<?xml version="1.0" encoding="utf-8"?>
<!-- Generator: Adobe Illustrator 27.2.0, SVG Export Plug-In . SVG Version: 6.00 Build 0)  -->
<svg version="1.1" xmlns="http://www.w3.org/2000/svg" xmlns:xlink="http://www.w3.org/1999/xlink" x="0px" y="0px"
	 viewBox="0 0 841.7 595.2" style="enable-background:new 0 0 841.7 595.2;" xml:space="preserve">
<style type="text/css">
	.st0{fill-rule:evenodd;clip-rule:evenodd;fill:#FFFFFF;}
	.st1{fill:none;stroke:#FFFFFF;stroke-width:8;}
	.st2{fill:#555555;}
	.st3{fill:none;stroke:#555555;stroke-linecap:round;stroke-miterlimit:10;stroke-dasharray:2,4;}
	.st4{opacity:6.000000e-02;fill:#85C1C1;enable-background:new    ;}
	.st5{opacity:6.000000e-02;fill:#7B9DAD;enable-background:new    ;}
	.st6{fill:#70799B;}
	.st7{opacity:6.000000e-02;fill:#BBD8D8;enable-background:new    ;}
	.st8{fill:#ADB0C2;}
	.st9{fill:#EFEFEF;}
	.st10{opacity:6.000000e-02;fill:#DEC3D7;enable-background:new    ;}
	.st11{opacity:6.000000e-02;fill:#CA96C0;enable-background:new    ;}
	.st12{fill:#85C1C1;}
	.st13{fill:#BBD8D8;}
	.st14{opacity:6.000000e-02;fill:#ADB0C2;enable-background:new    ;}
	.st15{fill:#DEC3D7;}
	.st16{fill:#CA96C0;}
	.st17{fill:#5698B9;}
	.st18{fill:#8C62AA;}
	.st19{font-family:'MyriadPro-Regular';}
	.st20{font-size:12px;}
</style>
<g id="Layer_1" xmlns:cc="http://creativecommons.org/ns#">
	<g>
		<g transform="matrix(1,0,0,1,0,0)">
		</g>
		<g transform="matrix(1,0,0,1,0,0)">
		</g>
		<g transform="matrix(11.8081,0,0,11.8081,0,0)">
		</g>
		<g transform="matrix(0.999751,0,0,0.999751,0,0)">
		</g>
		<g transform="matrix(0.999751,0,0,0.999751,0,0)">
			<path vector-effect="none" class="st0" d="M-0.5-0.5h842.9v596.4H-0.5V-0.5"/>
		</g>
		<g transform="matrix(0.999751,0,0,0.999751,0,0)">
		</g>
		<g transform="matrix(11.8081,0,0,11.8081,0,0)">
		</g>
		<g transform="matrix(11.8081,0,0,11.8081,0,0)">
		</g>
		<g transform="matrix(11.8081,0,0,11.8081,0,0)">
		</g>
		<g transform="matrix(11.8081,0,0,11.8081,0,0)">
		</g>
		<g transform="matrix(11.8081,0,0,11.8081,0,0)">
		</g>
		<g transform="matrix(1,0,0,1,0,0)">
			
				<image style="overflow:visible;enable-background:new    ;" width="3507" height="2480" xlink:href="8E6D1021FC8F6249.png"  transform="matrix(0.24 0 0 0.24 6.408691e-04 0)">
			</image>
		</g>
		<g transform="matrix(11.8081,0,0,11.8081,0,0)">
		</g>
		<g transform="matrix(11.8081,0,0,11.8081,0,0)">
		</g>
		<g transform="matrix(1,0,0,1,0,0)">
		</g>
	</g>
	<path d="M701,542.8V542c0-0.1,0-0.2,0.1-0.3c0.1-0.1,0.2-0.1,0.3-0.1h7.2v-3.3c0-0.1,0-0.2,0.1-0.3c0.1-0.1,0.2-0.1,0.3-0.1h0.7
		c0.1,0,0.2,0,0.3,0.1c0.1,0.1,0.1,0.2,0.1,0.3v4.5c0,0.1,0,0.2-0.1,0.3c-0.1,0.1-0.2,0.1-0.3,0.1h-8.4c-0.1,0-0.2,0-0.3-0.1
		C700.9,543,701,542.9,701,542.8z"/>
	<path d="M703.5,530.3h4.3c0.7,0,1.3,0.3,1.8,0.8s0.8,1.2,0.8,1.9c0,0.8-0.3,1.4-0.8,1.9s-1.1,0.8-1.8,0.8h-4.3
		c-0.7,0-1.3-0.3-1.8-0.8s-0.8-1.2-0.8-1.9c0-0.8,0.2-1.4,0.8-1.9C702.1,530.5,702.8,530.3,703.5,530.3z M707.8,531.8h-4.4
		c-0.3,0-0.5,0.1-0.7,0.3s-0.3,0.5-0.3,0.8s0.1,0.6,0.3,0.8c0.2,0.2,0.4,0.3,0.7,0.3h4.4c0.3,0,0.5-0.1,0.7-0.3
		c0.2-0.2,0.3-0.5,0.3-0.8s-0.1-0.6-0.3-0.8C708.3,532,708.1,531.8,707.8,531.8z"/>
	<path d="M705.4,524.3l3.1-0.5v-0.2l-3.7-0.2h-3.4c-0.1,0-0.2,0-0.3-0.1c-0.1-0.1-0.1-0.2-0.1-0.3v-0.7c0-0.1,0-0.2,0.1-0.3
		c0.1-0.1,0.2-0.1,0.3-0.1h3.3c0.1,0,0.3,0,0.5,0l4.6,0.4c0.1,0,0.2,0.1,0.3,0.1s0.1,0.2,0.1,0.3v1.3c0,0.1,0,0.2-0.1,0.3
		c-0.1,0.1-0.2,0.1-0.3,0.1l-3.4,0.5v0.2l3.4,0.5c0.1,0,0.2,0.1,0.3,0.1c0.1,0.1,0.1,0.2,0.1,0.3v1.3c0,0.1,0,0.2-0.1,0.3
		c-0.1,0.1-0.2,0.1-0.3,0.1l-4.6,0.4c-0.3,0-0.4,0-0.5,0h-3.3c-0.1,0-0.2,0-0.3-0.1c-0.1-0.1-0.1-0.2-0.1-0.3v-0.5
		c0-0.1,0-0.2,0.1-0.3c0.1-0.1,0.2-0.1,0.3-0.1h3.4l3.7-0.2v-0.2l-3.1-0.5c-0.3,0-0.4-0.2-0.4-0.4v-0.9
		C705.1,524.5,705.2,524.4,705.4,524.3z"/>
	<path class="st1" d="M701,542.8V542c0-0.1,0-0.2,0.1-0.3c0.1-0.1,0.2-0.1,0.3-0.1h7.2v-3.3c0-0.1,0-0.2,0.1-0.3
		c0.1-0.1,0.2-0.1,0.3-0.1h0.7c0.1,0,0.2,0,0.3,0.1c0.1,0.1,0.1,0.2,0.1,0.3v4.5c0,0.1,0,0.2-0.1,0.3c-0.1,0.1-0.2,0.1-0.3,0.1h-8.4
		c-0.1,0-0.2,0-0.3-0.1C700.9,543,701,542.9,701,542.8z"/>
	<path class="st1" d="M703.5,530.3h4.3c0.7,0,1.3,0.3,1.8,0.8s0.8,1.2,0.8,1.9c0,0.8-0.3,1.4-0.8,1.9s-1.1,0.8-1.8,0.8h-4.3
		c-0.7,0-1.3-0.3-1.8-0.8s-0.8-1.2-0.8-1.9c0-0.8,0.2-1.4,0.8-1.9C702.1,530.5,702.8,530.3,703.5,530.3z M707.8,531.8h-4.4
		c-0.3,0-0.5,0.1-0.7,0.3s-0.3,0.5-0.3,0.8s0.1,0.6,0.3,0.8c0.2,0.2,0.4,0.3,0.7,0.3h4.4c0.3,0,0.5-0.1,0.7-0.3
		c0.2-0.2,0.3-0.5,0.3-0.8s-0.1-0.6-0.3-0.8C708.3,532,708.1,531.8,707.8,531.8z"/>
	<path class="st1" d="M705.4,524.3l3.1-0.5v-0.2l-3.7-0.2h-3.4c-0.1,0-0.2,0-0.3-0.1c-0.1-0.1-0.1-0.2-0.1-0.3v-0.7
		c0-0.1,0-0.2,0.1-0.3c0.1-0.1,0.2-0.1,0.3-0.1h3.3c0.1,0,0.3,0,0.5,0l4.6,0.4c0.1,0,0.2,0.1,0.3,0.1s0.1,0.2,0.1,0.3v1.3
		c0,0.1,0,0.2-0.1,0.3c-0.1,0.1-0.2,0.1-0.3,0.1l-3.4,0.5v0.2l3.4,0.5c0.1,0,0.2,0.1,0.3,0.1c0.1,0.1,0.1,0.2,0.1,0.3v1.3
		c0,0.1,0,0.2-0.1,0.3c-0.1,0.1-0.2,0.1-0.3,0.1l-4.6,0.4c-0.3,0-0.4,0-0.5,0h-3.3c-0.1,0-0.2,0-0.3-0.1c-0.1-0.1-0.1-0.2-0.1-0.3
		v-0.5c0-0.1,0-0.2,0.1-0.3c0.1-0.1,0.2-0.1,0.3-0.1h3.4l3.7-0.2v-0.2l-3.1-0.5c-0.3,0-0.4-0.2-0.4-0.4v-0.9
		C705.1,524.5,705.2,524.4,705.4,524.3z"/>
	<path class="st2" d="M701,542.8V542c0-0.1,0-0.2,0.1-0.3c0.1-0.1,0.2-0.1,0.3-0.1h7.2v-3.3c0-0.1,0-0.2,0.1-0.3
		c0.1-0.1,0.2-0.1,0.3-0.1h0.7c0.1,0,0.2,0,0.3,0.1c0.1,0.1,0.1,0.2,0.1,0.3v4.5c0,0.1,0,0.2-0.1,0.3c-0.1,0.1-0.2,0.1-0.3,0.1h-8.4
		c-0.1,0-0.2,0-0.3-0.1C700.9,543,701,542.9,701,542.8z"/>
	<path class="st2" d="M703.5,530.3h4.3c0.7,0,1.3,0.3,1.8,0.8s0.8,1.2,0.8,1.9c0,0.8-0.3,1.4-0.8,1.9s-1.1,0.8-1.8,0.8h-4.3
		c-0.7,0-1.3-0.3-1.8-0.8s-0.8-1.2-0.8-1.9c0-0.8,0.2-1.4,0.8-1.9C702.1,530.5,702.8,530.3,703.5,530.3z M707.8,531.8h-4.4
		c-0.3,0-0.5,0.1-0.7,0.3s-0.3,0.5-0.3,0.8s0.1,0.6,0.3,0.8c0.2,0.2,0.4,0.3,0.7,0.3h4.4c0.3,0,0.5-0.1,0.7-0.3
		c0.2-0.2,0.3-0.5,0.3-0.8s-0.1-0.6-0.3-0.8C708.3,532,708.1,531.8,707.8,531.8z"/>
	<path class="st2" d="M705.4,524.3l3.1-0.5v-0.2l-3.7-0.2h-3.4c-0.1,0-0.2,0-0.3-0.1c-0.1-0.1-0.1-0.2-0.1-0.3v-0.7
		c0-0.1,0-0.2,0.1-0.3c0.1-0.1,0.2-0.1,0.3-0.1h3.3c0.1,0,0.3,0,0.5,0l4.6,0.4c0.1,0,0.2,0.1,0.3,0.1s0.1,0.2,0.1,0.3v1.3
		c0,0.1,0,0.2-0.1,0.3c-0.1,0.1-0.2,0.1-0.3,0.1l-3.4,0.5v0.2l3.4,0.5c0.1,0,0.2,0.1,0.3,0.1c0.1,0.1,0.1,0.2,0.1,0.3v1.3
		c0,0.1,0,0.2-0.1,0.3c-0.1,0.1-0.2,0.1-0.3,0.1l-4.6,0.4c-0.3,0-0.4,0-0.5,0h-3.3c-0.1,0-0.2,0-0.3-0.1c-0.1-0.1-0.1-0.2-0.1-0.3
		v-0.5c0-0.1,0-0.2,0.1-0.3c0.1-0.1,0.2-0.1,0.3-0.1h3.4l3.7-0.2v-0.2l-3.1-0.5c-0.3,0-0.4-0.2-0.4-0.4v-0.9
		C705.1,524.5,705.2,524.4,705.4,524.3z"/>
	<line class="st3" x1="704.7" y1="516.6" x2="704.7" y2="480.6"/>
	<polygon class="st2" points="708.8,484 708,484.6 704.7,481 701.3,484.6 700.6,484 704.7,479.6 	"/>
	<path d="M701.4,465.5h8.4c0.1,0,0.2,0,0.3,0.1c0.1,0.1,0.1,0.2,0.1,0.3v0.8c0,0.1,0,0.2-0.1,0.3c-0.1,0.1-0.2,0.1-0.3,0.1h-3.6v2.1
		h3.6c0.1,0,0.2,0,0.3,0.1s0.1,0.2,0.1,0.3v0.8c0,0.1,0,0.2-0.1,0.3c-0.1,0.1-0.2,0.1-0.3,0.1h-8.4c-0.1,0-0.2,0-0.3-0.1
		c-0.1-0.1-0.1-0.2-0.1-0.3v-0.8c0-0.1,0-0.2,0.1-0.3c0.1-0.1,0.2-0.1,0.3-0.1h3.2V467h-3.2c-0.1,0-0.2,0-0.3-0.1s-0.1-0.2-0.1-0.3
		v-0.8c0-0.1,0-0.2,0.1-0.3C701.2,465.4,701.3,465.5,701.4,465.5z"/>
	<path d="M709,457.7h0.9c0.2,0,0.3,0.1,0.3,0.3v4.6c0,0.1,0,0.2-0.1,0.2c-0.1,0.1-0.1,0.1-0.2,0.1H709c-0.1,0-0.2,0-0.2-0.1
		c-0.1-0.1-0.1-0.1-0.1-0.2v-1.5h-6.1v1.5c0,0.1,0,0.2-0.1,0.2c-0.1,0.1-0.1,0.1-0.2,0.1h-0.9c-0.1,0-0.2,0-0.2-0.1
		s-0.1-0.1-0.1-0.2V458c0-0.2,0.1-0.3,0.3-0.3h0.9c0.2,0,0.3,0.1,0.3,0.3v1.5h6.1V458C708.7,457.8,708.8,457.7,709,457.7z"/>
	<path d="M705.2,452.1v-2c0-0.1,0-0.2,0.1-0.3c0.1-0.1,0.2-0.1,0.3-0.1h2.1c0.7,0,1.3,0.3,1.8,0.8s0.8,1.2,0.8,1.9s-0.3,1.4-0.8,1.9
		s-1.1,0.8-1.8,0.8h-4.3c-0.7,0-1.3-0.3-1.8-0.8s-0.8-1.2-0.8-1.9c0-0.5,0.1-1,0.4-1.4c0.3-0.4,0.6-0.7,0.9-0.9
		c0.3-0.2,0.7-0.3,1-0.3c0.1,0,0.2,0,0.3,0.1c0.1,0.1,0.1,0.2,0.1,0.3v0.8c0,0.2-0.1,0.4-0.4,0.4c-0.2,0-0.4,0.1-0.6,0.3
		c-0.2,0.2-0.3,0.4-0.3,0.7c0,0.3,0.1,0.5,0.3,0.8c0.2,0.2,0.4,0.3,0.7,0.3h4.4c0.3,0,0.5-0.1,0.7-0.3c0.2-0.2,0.3-0.5,0.3-0.8
		c0-0.3-0.1-0.5-0.3-0.8c-0.2-0.2-0.4-0.4-0.7-0.4h-1.1v0.8c0,0.1,0,0.2-0.1,0.2c-0.1,0.1-0.1,0.1-0.2,0.1h-0.8
		c-0.1,0-0.2,0-0.2-0.1C705.3,452.3,705.2,452.2,705.2,452.1z"/>
	<path d="M701.4,442h8.4c0.1,0,0.2,0,0.3,0.1c0.1,0.1,0.1,0.2,0.1,0.3v0.8c0,0.1,0,0.2-0.1,0.3c-0.1,0.1-0.2,0.1-0.3,0.1h-3.6v2.2
		h3.6c0.1,0,0.2,0,0.3,0.1c0.1,0.1,0.1,0.2,0.1,0.3v0.8c0,0.1,0,0.2-0.1,0.3c-0.1,0.1-0.2,0.1-0.3,0.1h-8.4c-0.1,0-0.2,0-0.3-0.1
		c-0.1-0.1-0.1-0.2-0.1-0.3v-0.8c0-0.1,0-0.2,0.1-0.3c0.1-0.1,0.2-0.1,0.3-0.1h3.2v-2.2h-3.2c-0.1,0-0.2,0-0.3-0.1
		c-0.1-0.1-0.1-0.2-0.1-0.3v-0.8c0-0.1,0-0.2,0.1-0.3C701.2,442,701.3,442,701.4,442z"/>
	<path class="st1" d="M701.4,465.5h8.4c0.1,0,0.2,0,0.3,0.1c0.1,0.1,0.1,0.2,0.1,0.3v0.8c0,0.1,0,0.2-0.1,0.3
		c-0.1,0.1-0.2,0.1-0.3,0.1h-3.6v2.1h3.6c0.1,0,0.2,0,0.3,0.1s0.1,0.2,0.1,0.3v0.8c0,0.1,0,0.2-0.1,0.3c-0.1,0.1-0.2,0.1-0.3,0.1
		h-8.4c-0.1,0-0.2,0-0.3-0.1c-0.1-0.1-0.1-0.2-0.1-0.3v-0.8c0-0.1,0-0.2,0.1-0.3c0.1-0.1,0.2-0.1,0.3-0.1h3.2V467h-3.2
		c-0.1,0-0.2,0-0.3-0.1s-0.1-0.2-0.1-0.3v-0.8c0-0.1,0-0.2,0.1-0.3C701.2,465.4,701.3,465.5,701.4,465.5z"/>
	<path class="st1" d="M709,457.7h0.9c0.2,0,0.3,0.1,0.3,0.3v4.6c0,0.1,0,0.2-0.1,0.2c-0.1,0.1-0.1,0.1-0.2,0.1H709
		c-0.1,0-0.2,0-0.2-0.1c-0.1-0.1-0.1-0.1-0.1-0.2v-1.5h-6.1v1.5c0,0.1,0,0.2-0.1,0.2c-0.1,0.1-0.1,0.1-0.2,0.1h-0.9
		c-0.1,0-0.2,0-0.2-0.1s-0.1-0.1-0.1-0.2V458c0-0.2,0.1-0.3,0.3-0.3h0.9c0.2,0,0.3,0.1,0.3,0.3v1.5h6.1V458
		C708.7,457.8,708.8,457.7,709,457.7z"/>
	<path class="st1" d="M705.2,452.1v-2c0-0.1,0-0.2,0.1-0.3c0.1-0.1,0.2-0.1,0.3-0.1h2.1c0.7,0,1.3,0.3,1.8,0.8s0.8,1.2,0.8,1.9
		s-0.3,1.4-0.8,1.9s-1.1,0.8-1.8,0.8h-4.3c-0.7,0-1.3-0.3-1.8-0.8s-0.8-1.2-0.8-1.9c0-0.5,0.1-1,0.4-1.4c0.3-0.4,0.6-0.7,0.9-0.9
		c0.3-0.2,0.7-0.3,1-0.3c0.1,0,0.2,0,0.3,0.1c0.1,0.1,0.1,0.2,0.1,0.3v0.8c0,0.2-0.1,0.4-0.4,0.4c-0.2,0-0.4,0.1-0.6,0.3
		c-0.2,0.2-0.3,0.4-0.3,0.7c0,0.3,0.1,0.5,0.3,0.8c0.2,0.2,0.4,0.3,0.7,0.3h4.4c0.3,0,0.5-0.1,0.7-0.3c0.2-0.2,0.3-0.5,0.3-0.8
		c0-0.3-0.1-0.5-0.3-0.8c-0.2-0.2-0.4-0.4-0.7-0.4h-1.1v0.8c0,0.1,0,0.2-0.1,0.2c-0.1,0.1-0.1,0.1-0.2,0.1h-0.8
		c-0.1,0-0.2,0-0.2-0.1C705.3,452.3,705.2,452.2,705.2,452.1z"/>
	<path class="st1" d="M701.4,442h8.4c0.1,0,0.2,0,0.3,0.1c0.1,0.1,0.1,0.2,0.1,0.3v0.8c0,0.1,0,0.2-0.1,0.3
		c-0.1,0.1-0.2,0.1-0.3,0.1h-3.6v2.2h3.6c0.1,0,0.2,0,0.3,0.1c0.1,0.1,0.1,0.2,0.1,0.3v0.8c0,0.1,0,0.2-0.1,0.3
		c-0.1,0.1-0.2,0.1-0.3,0.1h-8.4c-0.1,0-0.2,0-0.3-0.1c-0.1-0.1-0.1-0.2-0.1-0.3v-0.8c0-0.1,0-0.2,0.1-0.3c0.1-0.1,0.2-0.1,0.3-0.1
		h3.2v-2.2h-3.2c-0.1,0-0.2,0-0.3-0.1c-0.1-0.1-0.1-0.2-0.1-0.3v-0.8c0-0.1,0-0.2,0.1-0.3C701.2,442,701.3,442,701.4,442z"/>
	<path class="st2" d="M701.4,465.5h8.4c0.1,0,0.2,0,0.3,0.1c0.1,0.1,0.1,0.2,0.1,0.3v0.8c0,0.1,0,0.2-0.1,0.3
		c-0.1,0.1-0.2,0.1-0.3,0.1h-3.6v2.1h3.6c0.1,0,0.2,0,0.3,0.1s0.1,0.2,0.1,0.3v0.8c0,0.1,0,0.2-0.1,0.3c-0.1,0.1-0.2,0.1-0.3,0.1
		h-8.4c-0.1,0-0.2,0-0.3-0.1c-0.1-0.1-0.1-0.2-0.1-0.3v-0.8c0-0.1,0-0.2,0.1-0.3c0.1-0.1,0.2-0.1,0.3-0.1h3.2V467h-3.2
		c-0.1,0-0.2,0-0.3-0.1s-0.1-0.2-0.1-0.3v-0.8c0-0.1,0-0.2,0.1-0.3C701.2,465.4,701.3,465.5,701.4,465.5z"/>
	<path class="st2" d="M709,457.7h0.9c0.2,0,0.3,0.1,0.3,0.3v4.6c0,0.1,0,0.2-0.1,0.2c-0.1,0.1-0.1,0.1-0.2,0.1H709
		c-0.1,0-0.2,0-0.2-0.1c-0.1-0.1-0.1-0.1-0.1-0.2v-1.5h-6.1v1.5c0,0.1,0,0.2-0.1,0.2c-0.1,0.1-0.1,0.1-0.2,0.1h-0.9
		c-0.1,0-0.2,0-0.2-0.1s-0.1-0.1-0.1-0.2V458c0-0.2,0.1-0.3,0.3-0.3h0.9c0.2,0,0.3,0.1,0.3,0.3v1.5h6.1V458
		C708.7,457.8,708.8,457.7,709,457.7z"/>
	<path class="st2" d="M705.2,452.1v-2c0-0.1,0-0.2,0.1-0.3c0.1-0.1,0.2-0.1,0.3-0.1h2.1c0.7,0,1.3,0.3,1.8,0.8s0.8,1.2,0.8,1.9
		s-0.3,1.4-0.8,1.9s-1.1,0.8-1.8,0.8h-4.3c-0.7,0-1.3-0.3-1.8-0.8s-0.8-1.2-0.8-1.9c0-0.5,0.1-1,0.4-1.4c0.3-0.4,0.6-0.7,0.9-0.9
		c0.3-0.2,0.7-0.3,1-0.3c0.1,0,0.2,0,0.3,0.1c0.1,0.1,0.1,0.2,0.1,0.3v0.8c0,0.2-0.1,0.4-0.4,0.4c-0.2,0-0.4,0.1-0.6,0.3
		c-0.2,0.2-0.3,0.4-0.3,0.7c0,0.3,0.1,0.5,0.3,0.8c0.2,0.2,0.4,0.3,0.7,0.3h4.4c0.3,0,0.5-0.1,0.7-0.3c0.2-0.2,0.3-0.5,0.3-0.8
		c0-0.3-0.1-0.5-0.3-0.8c-0.2-0.2-0.4-0.4-0.7-0.4h-1.1v0.8c0,0.1,0,0.2-0.1,0.2c-0.1,0.1-0.1,0.1-0.2,0.1h-0.8
		c-0.1,0-0.2,0-0.2-0.1C705.3,452.3,705.2,452.2,705.2,452.1z"/>
	<path class="st2" d="M701.4,442h8.4c0.1,0,0.2,0,0.3,0.1c0.1,0.1,0.1,0.2,0.1,0.3v0.8c0,0.1,0,0.2-0.1,0.3
		c-0.1,0.1-0.2,0.1-0.3,0.1h-3.6v2.2h3.6c0.1,0,0.2,0,0.3,0.1c0.1,0.1,0.1,0.2,0.1,0.3v0.8c0,0.1,0,0.2-0.1,0.3
		c-0.1,0.1-0.2,0.1-0.3,0.1h-8.4c-0.1,0-0.2,0-0.3-0.1c-0.1-0.1-0.1-0.2-0.1-0.3v-0.8c0-0.1,0-0.2,0.1-0.3c0.1-0.1,0.2-0.1,0.3-0.1
		h3.2v-2.2h-3.2c-0.1,0-0.2,0-0.3-0.1c-0.1-0.1-0.1-0.2-0.1-0.3v-0.8c0-0.1,0-0.2,0.1-0.3C701.2,442,701.3,442,701.4,442z"/>
	<path d="M720.2,551.2h0.8c0.1,0,0.2,0,0.3,0.1c0.1,0.1,0.1,0.2,0.1,0.3v7.2h3.3c0.1,0,0.2,0,0.3,0.1c0.1,0.1,0.1,0.2,0.1,0.3v0.7
		c0,0.1,0,0.2-0.1,0.3c-0.1,0.1-0.2,0.1-0.3,0.1h-4.5c-0.1,0-0.2,0-0.3-0.1c-0.1-0.1-0.1-0.2-0.1-0.3v-8.4c0-0.1,0-0.2,0.1-0.3
		C720,551.1,720.1,551.2,720.2,551.2z"/>
	<path d="M732.7,553.6v4.3c0,0.7-0.3,1.3-0.8,1.8s-1.2,0.8-1.9,0.8c-0.7,0-1.4-0.3-1.9-0.8s-0.8-1.1-0.8-1.8v-4.3
		c0-0.7,0.3-1.3,0.8-1.8s1.2-0.8,1.9-0.8c0.7,0,1.4,0.2,1.9,0.8C732.5,552.3,732.7,552.9,732.7,553.6z M731.2,558v-4.4
		c0-0.3-0.1-0.5-0.3-0.7s-0.5-0.3-0.8-0.3s-0.6,0.1-0.8,0.3c-0.2,0.2-0.3,0.4-0.3,0.7v4.4c0,0.3,0.1,0.5,0.3,0.7
		c0.2,0.2,0.5,0.3,0.8,0.3s0.6-0.1,0.8-0.3C731.1,558.5,731.2,558.3,731.2,558z"/>
	<path d="M738.7,555.6l0.5,3.1h0.2l0.2-3.7v-3.4c0-0.1,0-0.2,0.1-0.3c0.1-0.1,0.2-0.1,0.3-0.1h0.7c0.1,0,0.2,0,0.3,0.1
		c0.1,0.1,0.1,0.2,0.1,0.3v3.3c0,0.1,0,0.3,0,0.5l-0.4,4.6c0,0.1-0.1,0.2-0.1,0.3c0,0.1-0.2,0.1-0.3,0.1h-1.4c-0.1,0-0.2,0-0.3-0.1
		c-0.1-0.1-0.1-0.2-0.1-0.3l-0.5-3.4h-0.2l-0.5,3.4c0,0.1-0.1,0.2-0.1,0.3c0,0.1-0.2,0.1-0.3,0.1h-1.3c-0.1,0-0.2,0-0.3-0.1
		c-0.1-0.1-0.1-0.2-0.1-0.3l-0.4-4.6c0-0.3,0-0.4,0-0.5v-3.3c0-0.1,0-0.2,0.1-0.3c0.1-0.1,0.2-0.1,0.3-0.1h0.7c0.1,0,0.2,0,0.3,0.1
		c0.1,0.1,0.1,0.2,0.1,0.3v3.4l0.2,3.7h0.2l0.5-3.1c0-0.3,0.2-0.4,0.4-0.4h0.9C738.5,555.2,738.7,555.4,738.7,555.6z"/>
	<path class="st1" d="M720.2,551.2h0.8c0.1,0,0.2,0,0.3,0.1c0.1,0.1,0.1,0.2,0.1,0.3v7.2h3.3c0.1,0,0.2,0,0.3,0.1
		c0.1,0.1,0.1,0.2,0.1,0.3v0.7c0,0.1,0,0.2-0.1,0.3c-0.1,0.1-0.2,0.1-0.3,0.1h-4.5c-0.1,0-0.2,0-0.3-0.1c-0.1-0.1-0.1-0.2-0.1-0.3
		v-8.4c0-0.1,0-0.2,0.1-0.3C720,551.1,720.1,551.2,720.2,551.2z"/>
	<path class="st1" d="M732.7,553.6v4.3c0,0.7-0.3,1.3-0.8,1.8s-1.2,0.8-1.9,0.8c-0.7,0-1.4-0.3-1.9-0.8s-0.8-1.1-0.8-1.8v-4.3
		c0-0.7,0.3-1.3,0.8-1.8s1.2-0.8,1.9-0.8c0.7,0,1.4,0.2,1.9,0.8C732.5,552.3,732.7,552.9,732.7,553.6z M731.2,558v-4.4
		c0-0.3-0.1-0.5-0.3-0.7s-0.5-0.3-0.8-0.3s-0.6,0.1-0.8,0.3c-0.2,0.2-0.3,0.4-0.3,0.7v4.4c0,0.3,0.1,0.5,0.3,0.7
		c0.2,0.2,0.5,0.3,0.8,0.3s0.6-0.1,0.8-0.3C731.1,558.5,731.2,558.3,731.2,558z"/>
	<path class="st1" d="M738.7,555.6l0.5,3.1h0.2l0.2-3.7v-3.4c0-0.1,0-0.2,0.1-0.3c0.1-0.1,0.2-0.1,0.3-0.1h0.7c0.1,0,0.2,0,0.3,0.1
		c0.1,0.1,0.1,0.2,0.1,0.3v3.3c0,0.1,0,0.3,0,0.5l-0.4,4.6c0,0.1-0.1,0.2-0.1,0.3c0,0.1-0.2,0.1-0.3,0.1h-1.4c-0.1,0-0.2,0-0.3-0.1
		c-0.1-0.1-0.1-0.2-0.1-0.3l-0.5-3.4h-0.2l-0.5,3.4c0,0.1-0.1,0.2-0.1,0.3c0,0.1-0.2,0.1-0.3,0.1h-1.3c-0.1,0-0.2,0-0.3-0.1
		c-0.1-0.1-0.1-0.2-0.1-0.3l-0.4-4.6c0-0.3,0-0.4,0-0.5v-3.3c0-0.1,0-0.2,0.1-0.3c0.1-0.1,0.2-0.1,0.3-0.1h0.7c0.1,0,0.2,0,0.3,0.1
		c0.1,0.1,0.1,0.2,0.1,0.3v3.4l0.2,3.7h0.2l0.5-3.1c0-0.3,0.2-0.4,0.4-0.4h0.9C738.5,555.2,738.7,555.4,738.7,555.6z"/>
	<path class="st2" d="M720.2,551.2h0.8c0.1,0,0.2,0,0.3,0.1c0.1,0.1,0.1,0.2,0.1,0.3v7.2h3.3c0.1,0,0.2,0,0.3,0.1
		c0.1,0.1,0.1,0.2,0.1,0.3v0.7c0,0.1,0,0.2-0.1,0.3c-0.1,0.1-0.2,0.1-0.3,0.1h-4.5c-0.1,0-0.2,0-0.3-0.1c-0.1-0.1-0.1-0.2-0.1-0.3
		v-8.4c0-0.1,0-0.2,0.1-0.3C720,551.1,720.1,551.2,720.2,551.2z"/>
	<path class="st2" d="M732.7,553.6v4.3c0,0.7-0.3,1.3-0.8,1.8s-1.2,0.8-1.9,0.8c-0.7,0-1.4-0.3-1.9-0.8s-0.8-1.1-0.8-1.8v-4.3
		c0-0.7,0.3-1.3,0.8-1.8s1.2-0.8,1.9-0.8c0.7,0,1.4,0.2,1.9,0.8C732.5,552.3,732.7,552.9,732.7,553.6z M731.2,558v-4.4
		c0-0.3-0.1-0.5-0.3-0.7s-0.5-0.3-0.8-0.3s-0.6,0.1-0.8,0.3c-0.2,0.2-0.3,0.4-0.3,0.7v4.4c0,0.3,0.1,0.5,0.3,0.7
		c0.2,0.2,0.5,0.3,0.8,0.3s0.6-0.1,0.8-0.3C731.1,558.5,731.2,558.3,731.2,558z"/>
	<path class="st2" d="M738.7,555.6l0.5,3.1h0.2l0.2-3.7v-3.4c0-0.1,0-0.2,0.1-0.3c0.1-0.1,0.2-0.1,0.3-0.1h0.7c0.1,0,0.2,0,0.3,0.1
		c0.1,0.1,0.1,0.2,0.1,0.3v3.3c0,0.1,0,0.3,0,0.5l-0.4,4.6c0,0.1-0.1,0.2-0.1,0.3c0,0.1-0.2,0.1-0.3,0.1h-1.4c-0.1,0-0.2,0-0.3-0.1
		c-0.1-0.1-0.1-0.2-0.1-0.3l-0.5-3.4h-0.2l-0.5,3.4c0,0.1-0.1,0.2-0.1,0.3c0,0.1-0.2,0.1-0.3,0.1h-1.3c-0.1,0-0.2,0-0.3-0.1
		c-0.1-0.1-0.1-0.2-0.1-0.3l-0.4-4.6c0-0.3,0-0.4,0-0.5v-3.3c0-0.1,0-0.2,0.1-0.3c0.1-0.1,0.2-0.1,0.3-0.1h0.7c0.1,0,0.2,0,0.3,0.1
		c0.1,0.1,0.1,0.2,0.1,0.3v3.4l0.2,3.7h0.2l0.5-3.1c0-0.3,0.2-0.4,0.4-0.4h0.9C738.5,555.2,738.7,555.4,738.7,555.6z"/>
	<path d="M800.5,551.6v8.4c0,0.1,0,0.2-0.1,0.3c-0.1,0.1-0.2,0.1-0.3,0.1h-0.8c-0.1,0-0.2,0-0.3-0.1c-0.1-0.1-0.1-0.2-0.1-0.3v-3.6
		h-2.2v3.6c0,0.1,0,0.2-0.1,0.3c-0.1,0.1-0.2,0.1-0.3,0.1h-0.8c-0.1,0-0.2,0-0.3-0.1c-0.1-0.1-0.1-0.2-0.1-0.3v-8.4
		c0-0.1,0-0.2,0.1-0.3c0.1-0.1,0.2-0.1,0.3-0.1h0.8c0.1,0,0.2,0,0.3,0.1c0.1,0.1,0.1,0.2,0.1,0.3v3.2h2.2v-3.2c0-0.1,0-0.2,0.1-0.3
		c0.1-0.1,0.2-0.1,0.3-0.1h0.8c0.1,0,0.2,0,0.3,0.1C800.5,551.4,800.5,551.5,800.5,551.6z"/>
	<path d="M808.3,559.1v0.9c0,0.2-0.1,0.3-0.3,0.3h-4.6c-0.1,0-0.2,0-0.2-0.1c-0.1-0.1-0.1-0.1-0.1-0.2v-0.9c0-0.1,0-0.2,0.1-0.2
		c0.1-0.1,0.1-0.1,0.2-0.1h1.5v-6.1h-1.5c-0.1,0-0.2,0-0.2-0.1c-0.1-0.1-0.1-0.1-0.1-0.2v-0.9c0-0.1,0-0.2,0.1-0.2
		c0.1-0.1,0.1-0.1,0.2-0.1h4.6c0.2,0,0.3,0.1,0.3,0.3v0.9c0,0.2-0.1,0.3-0.3,0.3h-1.5v6.1h1.5C808.2,558.8,808.3,558.9,808.3,559.1z
		"/>
	<path d="M813.9,555.4h2c0.1,0,0.2,0,0.3,0.1c0.1,0.1,0.1,0.2,0.1,0.3v2.1c0,0.7-0.3,1.3-0.8,1.8s-1.2,0.8-1.9,0.8s-1.4-0.3-1.9-0.8
		s-0.8-1.1-0.8-1.8v-4.3c0-0.7,0.3-1.3,0.8-1.8s1.2-0.8,1.9-0.8c0.5,0,1,0.1,1.4,0.4s0.7,0.6,0.9,0.9c0.2,0.3,0.3,0.7,0.3,1
		c0,0.1,0,0.2-0.1,0.3c-0.1,0.1-0.2,0.1-0.3,0.1H815c-0.2,0-0.4-0.1-0.4-0.4c0-0.2-0.1-0.4-0.3-0.6s-0.4-0.3-0.7-0.3
		s-0.5,0.1-0.8,0.3c-0.2,0.2-0.3,0.4-0.3,0.7v4.4c0,0.3,0.1,0.5,0.3,0.7s0.5,0.3,0.8,0.3s0.5-0.1,0.8-0.3c0.2-0.2,0.4-0.4,0.4-0.7
		v-1.1h-0.9c-0.1,0-0.2,0-0.2-0.1c0-0.1-0.1-0.1-0.1-0.2v-0.8c0-0.1,0-0.2,0.1-0.2C813.7,555.4,813.8,555.4,813.9,555.4z"/>
	<path d="M824,551.6v8.4c0,0.1,0,0.2-0.1,0.3c-0.1,0.1-0.2,0.1-0.3,0.1h-0.7c-0.1,0-0.2,0-0.3-0.1c-0.1-0.1-0.1-0.2-0.1-0.3v-3.6
		h-2.2v3.6c0,0.1,0,0.2-0.1,0.3c-0.1,0.1-0.2,0.1-0.3,0.1h-0.8c-0.1,0-0.2,0-0.3-0.1c-0.1-0.1-0.1-0.2-0.1-0.3v-8.4
		c0-0.1,0-0.2,0.1-0.3c0.1-0.1,0.2-0.1,0.3-0.1h0.8c0.1,0,0.2,0,0.3,0.1c0.1,0.1,0.1,0.2,0.1,0.3v3.2h2.2v-3.2c0-0.1,0-0.2,0.1-0.3
		c0.1-0.1,0.2-0.1,0.3-0.1h0.8c0.1,0,0.2,0,0.3,0.1C824.1,551.4,824,551.5,824,551.6z"/>
	<path class="st1" d="M800.5,551.6v8.4c0,0.1,0,0.2-0.1,0.3c-0.1,0.1-0.2,0.1-0.3,0.1h-0.8c-0.1,0-0.2,0-0.3-0.1
		c-0.1-0.1-0.1-0.2-0.1-0.3v-3.6h-2.2v3.6c0,0.1,0,0.2-0.1,0.3c-0.1,0.1-0.2,0.1-0.3,0.1h-0.8c-0.1,0-0.2,0-0.3-0.1
		c-0.1-0.1-0.1-0.2-0.1-0.3v-8.4c0-0.1,0-0.2,0.1-0.3c0.1-0.1,0.2-0.1,0.3-0.1h0.8c0.1,0,0.2,0,0.3,0.1c0.1,0.1,0.1,0.2,0.1,0.3v3.2
		h2.2v-3.2c0-0.1,0-0.2,0.1-0.3c0.1-0.1,0.2-0.1,0.3-0.1h0.8c0.1,0,0.2,0,0.3,0.1C800.5,551.4,800.5,551.5,800.5,551.6z"/>
	<path class="st1" d="M808.3,559.1v0.9c0,0.2-0.1,0.3-0.3,0.3h-4.6c-0.1,0-0.2,0-0.2-0.1c-0.1-0.1-0.1-0.1-0.1-0.2v-0.9
		c0-0.1,0-0.2,0.1-0.2c0.1-0.1,0.1-0.1,0.2-0.1h1.5v-6.1h-1.5c-0.1,0-0.2,0-0.2-0.1c-0.1-0.1-0.1-0.1-0.1-0.2v-0.9
		c0-0.1,0-0.2,0.1-0.2c0.1-0.1,0.1-0.1,0.2-0.1h4.6c0.2,0,0.3,0.1,0.3,0.3v0.9c0,0.2-0.1,0.3-0.3,0.3h-1.5v6.1h1.5
		C808.2,558.8,808.3,558.9,808.3,559.1z"/>
	<path class="st1" d="M813.9,555.4h2c0.1,0,0.2,0,0.3,0.1c0.1,0.1,0.1,0.2,0.1,0.3v2.1c0,0.7-0.3,1.3-0.8,1.8s-1.2,0.8-1.9,0.8
		s-1.4-0.3-1.9-0.8s-0.8-1.1-0.8-1.8v-4.3c0-0.7,0.3-1.3,0.8-1.8s1.2-0.8,1.9-0.8c0.5,0,1,0.1,1.4,0.4s0.7,0.6,0.9,0.9
		c0.2,0.3,0.3,0.7,0.3,1c0,0.1,0,0.2-0.1,0.3c-0.1,0.1-0.2,0.1-0.3,0.1H815c-0.2,0-0.4-0.1-0.4-0.4c0-0.2-0.1-0.4-0.3-0.6
		s-0.4-0.3-0.7-0.3s-0.5,0.1-0.8,0.3c-0.2,0.2-0.3,0.4-0.3,0.7v4.4c0,0.3,0.1,0.5,0.3,0.7s0.5,0.3,0.8,0.3s0.5-0.1,0.8-0.3
		c0.2-0.2,0.4-0.4,0.4-0.7v-1.1h-0.9c-0.1,0-0.2,0-0.2-0.1c0-0.1-0.1-0.1-0.1-0.2v-0.8c0-0.1,0-0.2,0.1-0.2
		C813.7,555.4,813.8,555.4,813.9,555.4z"/>
	<path class="st1" d="M824,551.6v8.4c0,0.1,0,0.2-0.1,0.3c-0.1,0.1-0.2,0.1-0.3,0.1h-0.7c-0.1,0-0.2,0-0.3-0.1
		c-0.1-0.1-0.1-0.2-0.1-0.3v-3.6h-2.2v3.6c0,0.1,0,0.2-0.1,0.3c-0.1,0.1-0.2,0.1-0.3,0.1h-0.8c-0.1,0-0.2,0-0.3-0.1
		c-0.1-0.1-0.1-0.2-0.1-0.3v-8.4c0-0.1,0-0.2,0.1-0.3c0.1-0.1,0.2-0.1,0.3-0.1h0.8c0.1,0,0.2,0,0.3,0.1c0.1,0.1,0.1,0.2,0.1,0.3v3.2
		h2.2v-3.2c0-0.1,0-0.2,0.1-0.3c0.1-0.1,0.2-0.1,0.3-0.1h0.8c0.1,0,0.2,0,0.3,0.1C824.1,551.4,824,551.5,824,551.6z"/>
	<path class="st2" d="M800.5,551.6v8.4c0,0.1,0,0.2-0.1,0.3c-0.1,0.1-0.2,0.1-0.3,0.1h-0.8c-0.1,0-0.2,0-0.3-0.1
		c-0.1-0.1-0.1-0.2-0.1-0.3v-3.6h-2.2v3.6c0,0.1,0,0.2-0.1,0.3c-0.1,0.1-0.2,0.1-0.3,0.1h-0.8c-0.1,0-0.2,0-0.3-0.1
		c-0.1-0.1-0.1-0.2-0.1-0.3v-8.4c0-0.1,0-0.2,0.1-0.3c0.1-0.1,0.2-0.1,0.3-0.1h0.8c0.1,0,0.2,0,0.3,0.1c0.1,0.1,0.1,0.2,0.1,0.3v3.2
		h2.2v-3.2c0-0.1,0-0.2,0.1-0.3c0.1-0.1,0.2-0.1,0.3-0.1h0.8c0.1,0,0.2,0,0.3,0.1C800.5,551.4,800.5,551.5,800.5,551.6z"/>
	<path class="st2" d="M808.3,559.1v0.9c0,0.2-0.1,0.3-0.3,0.3h-4.6c-0.1,0-0.2,0-0.2-0.1c-0.1-0.1-0.1-0.1-0.1-0.2v-0.9
		c0-0.1,0-0.2,0.1-0.2c0.1-0.1,0.1-0.1,0.2-0.1h1.5v-6.1h-1.5c-0.1,0-0.2,0-0.2-0.1c-0.1-0.1-0.1-0.1-0.1-0.2v-0.9
		c0-0.1,0-0.2,0.1-0.2c0.1-0.1,0.1-0.1,0.2-0.1h4.6c0.2,0,0.3,0.1,0.3,0.3v0.9c0,0.2-0.1,0.3-0.3,0.3h-1.5v6.1h1.5
		C808.2,558.8,808.3,558.9,808.3,559.1z"/>
	<path class="st2" d="M813.9,555.4h2c0.1,0,0.2,0,0.3,0.1c0.1,0.1,0.1,0.2,0.1,0.3v2.1c0,0.7-0.3,1.3-0.8,1.8s-1.2,0.8-1.9,0.8
		s-1.4-0.3-1.9-0.8s-0.8-1.1-0.8-1.8v-4.3c0-0.7,0.3-1.3,0.8-1.8s1.2-0.8,1.9-0.8c0.5,0,1,0.1,1.4,0.4s0.7,0.6,0.9,0.9
		c0.2,0.3,0.3,0.7,0.3,1c0,0.1,0,0.2-0.1,0.3c-0.1,0.1-0.2,0.1-0.3,0.1H815c-0.2,0-0.4-0.1-0.4-0.4c0-0.2-0.1-0.4-0.3-0.6
		s-0.4-0.3-0.7-0.3s-0.5,0.1-0.8,0.3c-0.2,0.2-0.3,0.4-0.3,0.7v4.4c0,0.3,0.1,0.5,0.3,0.7s0.5,0.3,0.8,0.3s0.5-0.1,0.8-0.3
		c0.2-0.2,0.4-0.4,0.4-0.7v-1.1h-0.9c-0.1,0-0.2,0-0.2-0.1c0-0.1-0.1-0.1-0.1-0.2v-0.8c0-0.1,0-0.2,0.1-0.2
		C813.7,555.4,813.8,555.4,813.9,555.4z"/>
	<path class="st2" d="M824,551.6v8.4c0,0.1,0,0.2-0.1,0.3c-0.1,0.1-0.2,0.1-0.3,0.1h-0.7c-0.1,0-0.2,0-0.3-0.1
		c-0.1-0.1-0.1-0.2-0.1-0.3v-3.6h-2.2v3.6c0,0.1,0,0.2-0.1,0.3c-0.1,0.1-0.2,0.1-0.3,0.1h-0.8c-0.1,0-0.2,0-0.3-0.1
		c-0.1-0.1-0.1-0.2-0.1-0.3v-8.4c0-0.1,0-0.2,0.1-0.3c0.1-0.1,0.2-0.1,0.3-0.1h0.8c0.1,0,0.2,0,0.3,0.1c0.1,0.1,0.1,0.2,0.1,0.3v3.2
		h2.2v-3.2c0-0.1,0-0.2,0.1-0.3c0.1-0.1,0.2-0.1,0.3-0.1h0.8c0.1,0,0.2,0,0.3,0.1C824.1,551.4,824,551.5,824,551.6z"/>
	<rect x="718.1" y="435.1" class="st4" width="36.3" height="36.3"/>
	<rect x="754.3" y="435.1" class="st5" width="36.3" height="36.3"/>
	<rect x="789.6" y="435.1" class="st6" width="36.3" height="36.3"/>
	<rect x="718.1" y="471.3" class="st7" width="36.3" height="36.3"/>
	<rect x="754.3" y="471.3" class="st8" width="36.3" height="36.3"/>
	<rect x="718.1" y="507.6" class="st9" width="36.3" height="36.3"/>
	<rect x="754.3" y="507.6" class="st10" width="36.3" height="36.3"/>
	<rect x="790.6" y="507.6" class="st11" width="36.3" height="36.3"/>
	<path d="M700.2,541.5v-0.8c0-0.1,0-0.2,0.1-0.3c0.1-0.1,0.2-0.1,0.3-0.1h7.2V537c0-0.1,0-0.2,0.1-0.3c0.1-0.1,0.2-0.1,0.3-0.1h0.7
		c0.1,0,0.2,0,0.3,0.1c0.1,0.1,0.1,0.2,0.1,0.3v4.5c0,0.1,0,0.2-0.1,0.3c-0.1,0.1-0.2,0.1-0.3,0.1h-8.4c-0.1,0-0.2,0-0.3-0.1
		C700.1,541.7,700.2,541.6,700.2,541.5z"/>
	<path d="M702.6,529h4.3c0.7,0,1.3,0.3,1.8,0.8s0.8,1.2,0.8,1.9c0,0.8-0.3,1.4-0.8,1.9s-1.1,0.8-1.8,0.8h-4.3
		c-0.7,0-1.3-0.3-1.8-0.8s-0.8-1.2-0.8-1.9c0-0.8,0.2-1.4,0.8-1.9C701.3,529.2,701.9,529,702.6,529z M707,530.5h-4.4
		c-0.3,0-0.5,0.1-0.7,0.3c-0.2,0.2-0.3,0.5-0.3,0.8s0.1,0.6,0.3,0.8s0.4,0.3,0.7,0.3h4.4c0.3,0,0.5-0.1,0.7-0.3
		c0.2-0.2,0.3-0.5,0.3-0.8s-0.1-0.6-0.3-0.8C707.5,530.6,707.2,530.5,707,530.5z"/>
	<path d="M704.6,523l3.1-0.5v-0.2l-3.7-0.2h-3.4c-0.1,0-0.2,0-0.3-0.1c-0.1-0.1-0.1-0.2-0.1-0.3V521c0-0.1,0-0.2,0.1-0.3
		c0.1-0.1,0.2-0.1,0.3-0.1h3.2c0.1,0,0.3,0,0.5,0l4.6,0.4c0.1,0,0.2,0.1,0.3,0.1c0.1,0,0.1,0.2,0.1,0.3v1.3c0,0.1,0,0.2-0.1,0.3
		c-0.1,0.1-0.2,0.1-0.3,0.1l-3.4,0.5v0.2l3.4,0.5c0.1,0,0.2,0.1,0.3,0.1c0.1,0.1,0.1,0.2,0.1,0.3v1.3c0,0.1,0,0.2-0.1,0.3
		c-0.1,0.1-0.2,0.1-0.3,0.1l-4.6,0.4c-0.3,0-0.4,0-0.5,0h-3.3c-0.1,0-0.2,0-0.3-0.1c-0.1-0.1-0.1-0.2-0.1-0.3v-0.7
		c0-0.1,0-0.2,0.1-0.3c0.1-0.1,0.2-0.1,0.3-0.1h3.4l3.7-0.2v-0.2l-3.1-0.5c-0.3,0-0.4-0.2-0.4-0.4v-0.9
		C704.2,523.2,704.3,523,704.6,523z"/>
	<path class="st1" d="M700.2,541.5v-0.8c0-0.1,0-0.2,0.1-0.3c0.1-0.1,0.2-0.1,0.3-0.1h7.2V537c0-0.1,0-0.2,0.1-0.3
		c0.1-0.1,0.2-0.1,0.3-0.1h0.7c0.1,0,0.2,0,0.3,0.1c0.1,0.1,0.1,0.2,0.1,0.3v4.5c0,0.1,0,0.2-0.1,0.3c-0.1,0.1-0.2,0.1-0.3,0.1h-8.4
		c-0.1,0-0.2,0-0.3-0.1C700.1,541.7,700.2,541.6,700.2,541.5z"/>
	<path class="st1" d="M702.6,529h4.3c0.7,0,1.3,0.3,1.8,0.8s0.8,1.2,0.8,1.9c0,0.8-0.3,1.4-0.8,1.9s-1.1,0.8-1.8,0.8h-4.3
		c-0.7,0-1.3-0.3-1.8-0.8s-0.8-1.2-0.8-1.9c0-0.8,0.2-1.4,0.8-1.9C701.3,529.2,701.9,529,702.6,529z M707,530.5h-4.4
		c-0.3,0-0.5,0.1-0.7,0.3c-0.2,0.2-0.3,0.5-0.3,0.8s0.1,0.6,0.3,0.8s0.4,0.3,0.7,0.3h4.4c0.3,0,0.5-0.1,0.7-0.3
		c0.2-0.2,0.3-0.5,0.3-0.8s-0.1-0.6-0.3-0.8C707.5,530.6,707.2,530.5,707,530.5z"/>
	<path class="st1" d="M704.6,523l3.1-0.5v-0.2l-3.7-0.2h-3.4c-0.1,0-0.2,0-0.3-0.1c-0.1-0.1-0.1-0.2-0.1-0.3V521
		c0-0.1,0-0.2,0.1-0.3c0.1-0.1,0.2-0.1,0.3-0.1h3.2c0.1,0,0.3,0,0.5,0l4.6,0.4c0.1,0,0.2,0.1,0.3,0.1c0.1,0,0.1,0.2,0.1,0.3v1.3
		c0,0.1,0,0.2-0.1,0.3c-0.1,0.1-0.2,0.1-0.3,0.1l-3.4,0.5v0.2l3.4,0.5c0.1,0,0.2,0.1,0.3,0.1c0.1,0.1,0.1,0.2,0.1,0.3v1.3
		c0,0.1,0,0.2-0.1,0.3c-0.1,0.1-0.2,0.1-0.3,0.1l-4.6,0.4c-0.3,0-0.4,0-0.5,0h-3.3c-0.1,0-0.2,0-0.3-0.1c-0.1-0.1-0.1-0.2-0.1-0.3
		v-0.7c0-0.1,0-0.2,0.1-0.3c0.1-0.1,0.2-0.1,0.3-0.1h3.4l3.7-0.2v-0.2l-3.1-0.5c-0.3,0-0.4-0.2-0.4-0.4v-0.9
		C704.2,523.2,704.3,523,704.6,523z"/>
	<path class="st2" d="M700.2,541.5v-0.8c0-0.1,0-0.2,0.1-0.3c0.1-0.1,0.2-0.1,0.3-0.1h7.2V537c0-0.1,0-0.2,0.1-0.3
		c0.1-0.1,0.2-0.1,0.3-0.1h0.7c0.1,0,0.2,0,0.3,0.1c0.1,0.1,0.1,0.2,0.1,0.3v4.5c0,0.1,0,0.2-0.1,0.3c-0.1,0.1-0.2,0.1-0.3,0.1h-8.4
		c-0.1,0-0.2,0-0.3-0.1C700.1,541.7,700.2,541.6,700.2,541.5z"/>
	<path class="st2" d="M702.6,529h4.3c0.7,0,1.3,0.3,1.8,0.8s0.8,1.2,0.8,1.9c0,0.8-0.3,1.4-0.8,1.9s-1.1,0.8-1.8,0.8h-4.3
		c-0.7,0-1.3-0.3-1.8-0.8s-0.8-1.2-0.8-1.9c0-0.8,0.2-1.4,0.8-1.9C701.3,529.2,701.9,529,702.6,529z M707,530.5h-4.4
		c-0.3,0-0.5,0.1-0.7,0.3c-0.2,0.2-0.3,0.5-0.3,0.8s0.1,0.6,0.3,0.8s0.4,0.3,0.7,0.3h4.4c0.3,0,0.5-0.1,0.7-0.3
		c0.2-0.2,0.3-0.5,0.3-0.8s-0.1-0.6-0.3-0.8C707.5,530.6,707.2,530.5,707,530.5z"/>
	<path class="st2" d="M704.6,523l3.1-0.5v-0.2l-3.7-0.2h-3.4c-0.1,0-0.2,0-0.3-0.1c-0.1-0.1-0.1-0.2-0.1-0.3V521
		c0-0.1,0-0.2,0.1-0.3c0.1-0.1,0.2-0.1,0.3-0.1h3.2c0.1,0,0.3,0,0.5,0l4.6,0.4c0.1,0,0.2,0.1,0.3,0.1c0.1,0,0.1,0.2,0.1,0.3v1.3
		c0,0.1,0,0.2-0.1,0.3c-0.1,0.1-0.2,0.1-0.3,0.1l-3.4,0.5v0.2l3.4,0.5c0.1,0,0.2,0.1,0.3,0.1c0.1,0.1,0.1,0.2,0.1,0.3v1.3
		c0,0.1,0,0.2-0.1,0.3c-0.1,0.1-0.2,0.1-0.3,0.1l-4.6,0.4c-0.3,0-0.4,0-0.5,0h-3.3c-0.1,0-0.2,0-0.3-0.1c-0.1-0.1-0.1-0.2-0.1-0.3
		v-0.7c0-0.1,0-0.2,0.1-0.3c0.1-0.1,0.2-0.1,0.3-0.1h3.4l3.7-0.2v-0.2l-3.1-0.5c-0.3,0-0.4-0.2-0.4-0.4v-0.9
		C704.2,523.2,704.3,523,704.6,523z"/>
	<path d="M700.6,464.2h8.4c0.1,0,0.2,0,0.3,0.1c0.1,0.1,0.1,0.2,0.1,0.3v0.8c0,0.1,0,0.2-0.1,0.3c-0.1,0.1-0.2,0.1-0.3,0.1h-3.6v2.2
		h3.6c0.1,0,0.2,0,0.3,0.1c0.1,0.1,0.1,0.2,0.1,0.3v0.8c0,0.1,0,0.2-0.1,0.3c-0.1,0.1-0.2,0.1-0.3,0.1h-8.4c-0.1,0-0.2,0-0.3-0.1
		c-0.1-0.1-0.1-0.2-0.1-0.3v-0.8c0-0.1,0-0.2,0.1-0.3c0.1-0.1,0.2-0.1,0.3-0.1h3.2v-2.2h-3.2c-0.1,0-0.2,0-0.3-0.1
		c-0.1-0.1-0.1-0.2-0.1-0.3v-0.8c0-0.1,0-0.2,0.1-0.3C700.4,464.2,700.4,464.2,700.6,464.2z"/>
	<path d="M708.1,456.4h0.9c0.2,0,0.3,0.1,0.3,0.3v4.6c0,0.1,0,0.2-0.1,0.2c0,0.1-0.1,0.1-0.2,0.1h-0.9c-0.1,0-0.2,0-0.2-0.1
		c-0.1-0.1-0.1-0.1-0.1-0.2v-1.5h-6.1v1.5c0,0.1,0,0.2-0.1,0.2c-0.1,0.1-0.2,0.1-0.2,0.1h-0.9c-0.1,0-0.2,0-0.2-0.1
		s-0.1-0.1-0.1-0.2v-4.6c0-0.2,0.1-0.3,0.3-0.3h0.9c0.2,0,0.3,0.1,0.3,0.3v1.5h6.1v-1.5C707.8,456.5,707.9,456.4,708.1,456.4z"/>
	<path d="M704.4,450.8v-2c0-0.1,0-0.2,0.1-0.3c0.1-0.1,0.2-0.1,0.3-0.1h2.1c0.7,0,1.3,0.3,1.8,0.8s0.8,1.2,0.8,1.9
		c0,0.7-0.3,1.4-0.8,1.9s-1.1,0.8-1.8,0.8h-4.3c-0.7,0-1.3-0.3-1.8-0.8s-0.8-1.2-0.8-1.9c0-0.5,0.1-1,0.4-1.4
		c0.3-0.4,0.6-0.7,0.9-0.9c0.3-0.2,0.7-0.3,1-0.3c0.1,0,0.2,0,0.3,0.1c0.1,0.1,0.1,0.2,0.1,0.3v0.8c0,0.2-0.1,0.4-0.4,0.4
		c-0.2,0-0.4,0.1-0.6,0.3c-0.2,0.2-0.3,0.4-0.3,0.7c0,0.3,0.1,0.5,0.3,0.8c0.2,0.2,0.4,0.3,0.7,0.3h4.4c0.3,0,0.5-0.1,0.7-0.3
		c0.2-0.2,0.3-0.5,0.3-0.8c0-0.3-0.1-0.5-0.3-0.8c-0.2-0.2-0.4-0.4-0.7-0.4h-1.1v0.8c0,0.1,0,0.2-0.1,0.2c-0.1,0.1-0.1,0.1-0.2,0.1
		h-0.8c-0.1,0-0.2,0-0.2-0.1C704.4,451,704.4,450.9,704.4,450.8z"/>
	<path d="M700.6,440.7h8.4c0.1,0,0.2,0,0.3,0.1c0.1,0.1,0.1,0.2,0.1,0.3v0.8c0,0.1,0,0.2-0.1,0.3c-0.1,0.1-0.2,0.1-0.3,0.1h-3.6v2.2
		h3.6c0.1,0,0.2,0,0.3,0.1c0.1,0.1,0.1,0.2,0.1,0.3v0.7c0,0.1,0,0.2-0.1,0.3c-0.1,0.1-0.2,0.1-0.3,0.1h-8.4c-0.1,0-0.2,0-0.3-0.1
		c-0.1-0.1-0.1-0.2-0.1-0.3v-0.8c0-0.1,0-0.2,0.1-0.3c0.1-0.1,0.2-0.1,0.3-0.1h3.2v-2.2h-3.2c-0.1,0-0.2,0-0.3-0.1
		c-0.1-0.1-0.1-0.2-0.1-0.3V441c0-0.1,0-0.2,0.1-0.3C700.4,440.6,700.4,440.7,700.6,440.7z"/>
	<path class="st1" d="M700.6,464.2h8.4c0.1,0,0.2,0,0.3,0.1c0.1,0.1,0.1,0.2,0.1,0.3v0.8c0,0.1,0,0.2-0.1,0.3
		c-0.1,0.1-0.2,0.1-0.3,0.1h-3.6v2.2h3.6c0.1,0,0.2,0,0.3,0.1c0.1,0.1,0.1,0.2,0.1,0.3v0.8c0,0.1,0,0.2-0.1,0.3
		c-0.1,0.1-0.2,0.1-0.3,0.1h-8.4c-0.1,0-0.2,0-0.3-0.1c-0.1-0.1-0.1-0.2-0.1-0.3v-0.8c0-0.1,0-0.2,0.1-0.3c0.1-0.1,0.2-0.1,0.3-0.1
		h3.2v-2.2h-3.2c-0.1,0-0.2,0-0.3-0.1c-0.1-0.1-0.1-0.2-0.1-0.3v-0.8c0-0.1,0-0.2,0.1-0.3C700.4,464.2,700.4,464.2,700.6,464.2z"/>
	<path class="st1" d="M708.1,456.4h0.9c0.2,0,0.3,0.1,0.3,0.3v4.6c0,0.1,0,0.2-0.1,0.2c0,0.1-0.1,0.1-0.2,0.1h-0.9
		c-0.1,0-0.2,0-0.2-0.1c-0.1-0.1-0.1-0.1-0.1-0.2v-1.5h-6.1v1.5c0,0.1,0,0.2-0.1,0.2c-0.1,0.1-0.2,0.1-0.2,0.1h-0.9
		c-0.1,0-0.2,0-0.2-0.1s-0.1-0.1-0.1-0.2v-4.6c0-0.2,0.1-0.3,0.3-0.3h0.9c0.2,0,0.3,0.1,0.3,0.3v1.5h6.1v-1.5
		C707.8,456.5,707.9,456.4,708.1,456.4z"/>
	<path class="st1" d="M704.4,450.8v-2c0-0.1,0-0.2,0.1-0.3c0.1-0.1,0.2-0.1,0.3-0.1h2.1c0.7,0,1.3,0.3,1.8,0.8s0.8,1.2,0.8,1.9
		c0,0.7-0.3,1.4-0.8,1.9s-1.1,0.8-1.8,0.8h-4.3c-0.7,0-1.3-0.3-1.8-0.8s-0.8-1.2-0.8-1.9c0-0.5,0.1-1,0.4-1.4
		c0.3-0.4,0.6-0.7,0.9-0.9c0.3-0.2,0.7-0.3,1-0.3c0.1,0,0.2,0,0.3,0.1c0.1,0.1,0.1,0.2,0.1,0.3v0.8c0,0.2-0.1,0.4-0.4,0.4
		c-0.2,0-0.4,0.1-0.6,0.3c-0.2,0.2-0.3,0.4-0.3,0.7c0,0.3,0.1,0.5,0.3,0.8c0.2,0.2,0.4,0.3,0.7,0.3h4.4c0.3,0,0.5-0.1,0.7-0.3
		c0.2-0.2,0.3-0.5,0.3-0.8c0-0.3-0.1-0.5-0.3-0.8c-0.2-0.2-0.4-0.4-0.7-0.4h-1.1v0.8c0,0.1,0,0.2-0.1,0.2c-0.1,0.1-0.1,0.1-0.2,0.1
		h-0.8c-0.1,0-0.2,0-0.2-0.1C704.4,451,704.4,450.9,704.4,450.8z"/>
	<path class="st1" d="M700.6,440.7h8.4c0.1,0,0.2,0,0.3,0.1c0.1,0.1,0.1,0.2,0.1,0.3v0.8c0,0.1,0,0.2-0.1,0.3
		c-0.1,0.1-0.2,0.1-0.3,0.1h-3.6v2.2h3.6c0.1,0,0.2,0,0.3,0.1c0.1,0.1,0.1,0.2,0.1,0.3v0.7c0,0.1,0,0.2-0.1,0.3
		c-0.1,0.1-0.2,0.1-0.3,0.1h-8.4c-0.1,0-0.2,0-0.3-0.1c-0.1-0.1-0.1-0.2-0.1-0.3v-0.8c0-0.1,0-0.2,0.1-0.3c0.1-0.1,0.2-0.1,0.3-0.1
		h3.2v-2.2h-3.2c-0.1,0-0.2,0-0.3-0.1c-0.1-0.1-0.1-0.2-0.1-0.3V441c0-0.1,0-0.2,0.1-0.3C700.4,440.6,700.4,440.7,700.6,440.7z"/>
	<path class="st2" d="M700.6,464.2h8.4c0.1,0,0.2,0,0.3,0.1c0.1,0.1,0.1,0.2,0.1,0.3v0.8c0,0.1,0,0.2-0.1,0.3
		c-0.1,0.1-0.2,0.1-0.3,0.1h-3.6v2.2h3.6c0.1,0,0.2,0,0.3,0.1c0.1,0.1,0.1,0.2,0.1,0.3v0.8c0,0.1,0,0.2-0.1,0.3
		c-0.1,0.1-0.2,0.1-0.3,0.1h-8.4c-0.1,0-0.2,0-0.3-0.1c-0.1-0.1-0.1-0.2-0.1-0.3v-0.8c0-0.1,0-0.2,0.1-0.3c0.1-0.1,0.2-0.1,0.3-0.1
		h3.2v-2.2h-3.2c-0.1,0-0.2,0-0.3-0.1c-0.1-0.1-0.1-0.2-0.1-0.3v-0.8c0-0.1,0-0.2,0.1-0.3C700.4,464.2,700.4,464.2,700.6,464.2z"/>
	<path class="st2" d="M708.1,456.4h0.9c0.2,0,0.3,0.1,0.3,0.3v4.6c0,0.1,0,0.2-0.1,0.2c0,0.1-0.1,0.1-0.2,0.1h-0.9
		c-0.1,0-0.2,0-0.2-0.1c-0.1-0.1-0.1-0.1-0.1-0.2v-1.5h-6.1v1.5c0,0.1,0,0.2-0.1,0.2c-0.1,0.1-0.2,0.1-0.2,0.1h-0.9
		c-0.1,0-0.2,0-0.2-0.1s-0.1-0.1-0.1-0.2v-4.6c0-0.2,0.1-0.3,0.3-0.3h0.9c0.2,0,0.3,0.1,0.3,0.3v1.5h6.1v-1.5
		C707.8,456.5,707.9,456.4,708.1,456.4z"/>
	<path class="st2" d="M704.4,450.8v-2c0-0.1,0-0.2,0.1-0.3c0.1-0.1,0.2-0.1,0.3-0.1h2.1c0.7,0,1.3,0.3,1.8,0.8s0.8,1.2,0.8,1.9
		c0,0.7-0.3,1.4-0.8,1.9s-1.1,0.8-1.8,0.8h-4.3c-0.7,0-1.3-0.3-1.8-0.8s-0.8-1.2-0.8-1.9c0-0.5,0.1-1,0.4-1.4
		c0.3-0.4,0.6-0.7,0.9-0.9c0.3-0.2,0.7-0.3,1-0.3c0.1,0,0.2,0,0.3,0.1c0.1,0.1,0.1,0.2,0.1,0.3v0.8c0,0.2-0.1,0.4-0.4,0.4
		c-0.2,0-0.4,0.1-0.6,0.3c-0.2,0.2-0.3,0.4-0.3,0.7c0,0.3,0.1,0.5,0.3,0.8c0.2,0.2,0.4,0.3,0.7,0.3h4.4c0.3,0,0.5-0.1,0.7-0.3
		c0.2-0.2,0.3-0.5,0.3-0.8c0-0.3-0.1-0.5-0.3-0.8c-0.2-0.2-0.4-0.4-0.7-0.4h-1.1v0.8c0,0.1,0,0.2-0.1,0.2c-0.1,0.1-0.1,0.1-0.2,0.1
		h-0.8c-0.1,0-0.2,0-0.2-0.1C704.4,451,704.4,450.9,704.4,450.8z"/>
	<path class="st2" d="M700.6,440.7h8.4c0.1,0,0.2,0,0.3,0.1c0.1,0.1,0.1,0.2,0.1,0.3v0.8c0,0.1,0,0.2-0.1,0.3
		c-0.1,0.1-0.2,0.1-0.3,0.1h-3.6v2.2h3.6c0.1,0,0.2,0,0.3,0.1c0.1,0.1,0.1,0.2,0.1,0.3v0.7c0,0.1,0,0.2-0.1,0.3
		c-0.1,0.1-0.2,0.1-0.3,0.1h-8.4c-0.1,0-0.2,0-0.3-0.1c-0.1-0.1-0.1-0.2-0.1-0.3v-0.8c0-0.1,0-0.2,0.1-0.3c0.1-0.1,0.2-0.1,0.3-0.1
		h3.2v-2.2h-3.2c-0.1,0-0.2,0-0.3-0.1c-0.1-0.1-0.1-0.2-0.1-0.3V441c0-0.1,0-0.2,0.1-0.3C700.4,440.6,700.4,440.7,700.6,440.7z"/>
	<rect x="718" y="434.5" class="st12" width="36.3" height="36.3"/>
	<rect x="754.3" y="434.5" class="st5" width="36.3" height="36.3"/>
	<rect x="718" y="470.7" class="st13" width="36.3" height="36.3"/>
	<rect x="754.3" y="470.7" class="st14" width="36.3" height="36.3"/>
	<rect x="718" y="507" class="st9" width="36.3" height="36.3"/>
	<rect x="754.3" y="507" class="st10" width="36.3" height="36.3"/>
	<rect x="790.5" y="507" class="st11" width="36.3" height="36.3"/>
	<rect x="718" y="434.5" class="st12" width="36.3" height="36.3"/>
	<line class="st3" x1="704.7" y1="513.6" x2="704.7" y2="477.6"/>
	<path d="M720,548.5h0.8c0.1,0,0.2,0,0.3,0.1s0.1,0.2,0.1,0.3v6.8h3.3c0.1,0,0.2,0,0.3,0.1c0.1,0.1,0.1,0.2,0.1,0.3v0.7
		c0,0.1,0,0.2-0.1,0.3c-0.1,0.1-0.2,0.1-0.3,0.1H720c-0.1,0-0.2,0-0.3-0.1c-0.1-0.1-0.1-0.2-0.1-0.3v-8c0-0.1,0-0.2,0.1-0.3
		C719.8,548.6,719.9,548.5,720,548.5z"/>
	<path d="M732.3,550.8v4.1c0,0.7-0.3,1.2-0.8,1.7s-1.2,0.8-1.9,0.8c-0.8,0-1.4-0.3-1.9-0.8s-0.8-1-0.8-1.7v-4.1
		c0-0.7,0.3-1.2,0.8-1.7c0.5-0.5,1.2-0.8,1.9-0.8c0.8,0,1.4,0.2,1.9,0.8C732.1,549.5,732.3,550.1,732.3,550.8z M730.8,554.9v-4.2
		c0-0.3-0.1-0.5-0.3-0.7c-0.2-0.2-0.5-0.3-0.8-0.3s-0.6,0.1-0.8,0.3c-0.2,0.2-0.3,0.4-0.3,0.7v4.2c0,0.3,0.1,0.5,0.3,0.7
		c0.2,0.2,0.5,0.3,0.8,0.3s0.6-0.1,0.8-0.3C730.7,555.4,730.8,555.2,730.8,554.9z"/>
	<path d="M738.2,552.6l0.5,2.9h0.2l0.2-3.5v-3.2c0-0.1,0-0.2,0.1-0.3c0.1-0.1,0.2-0.1,0.3-0.1h0.7c0.1,0,0.2,0,0.3,0.1
		s0.1,0.2,0.1,0.3v3.1c0,0.1,0,0.3,0,0.5l-0.4,4.4c0,0.1-0.1,0.2-0.1,0.3c-0.1,0.1-0.2,0.1-0.3,0.1h-1.3c-0.1,0-0.2,0-0.3-0.1
		c-0.1-0.1-0.1-0.2-0.1-0.3l-0.5-3.2h-0.2l-0.5,3.2c0,0.1-0.1,0.2-0.1,0.3c-0.1,0.1-0.2,0.1-0.3,0.1h-1.3c-0.1,0-0.2,0-0.3-0.1
		c-0.1-0.1-0.1-0.2-0.1-0.3l-0.4-4.4c0-0.3,0-0.4,0-0.5v-3.1c0-0.1,0-0.2,0.1-0.3c0.1-0.1,0.2-0.1,0.3-0.1h0.7c0.1,0,0.2,0,0.3,0.1
		s0.1,0.2,0.1,0.3v3.2l0.2,3.5h0.2l0.5-2.9c0-0.3,0.2-0.4,0.4-0.4h0.9C738,552.3,738.2,552.4,738.2,552.6z"/>
	<path class="st1" d="M720,548.5h0.8c0.1,0,0.2,0,0.3,0.1s0.1,0.2,0.1,0.3v6.8h3.3c0.1,0,0.2,0,0.3,0.1c0.1,0.1,0.1,0.2,0.1,0.3v0.7
		c0,0.1,0,0.2-0.1,0.3c-0.1,0.1-0.2,0.1-0.3,0.1H720c-0.1,0-0.2,0-0.3-0.1c-0.1-0.1-0.1-0.2-0.1-0.3v-8c0-0.1,0-0.2,0.1-0.3
		C719.8,548.6,719.9,548.5,720,548.5z"/>
	<path class="st1" d="M732.3,550.8v4.1c0,0.7-0.3,1.2-0.8,1.7s-1.2,0.8-1.9,0.8c-0.8,0-1.4-0.3-1.9-0.8s-0.8-1-0.8-1.7v-4.1
		c0-0.7,0.3-1.2,0.8-1.7c0.5-0.5,1.2-0.8,1.9-0.8c0.8,0,1.4,0.2,1.9,0.8C732.1,549.5,732.3,550.1,732.3,550.8z M730.8,554.9v-4.2
		c0-0.3-0.1-0.5-0.3-0.7c-0.2-0.2-0.5-0.3-0.8-0.3s-0.6,0.1-0.8,0.3c-0.2,0.2-0.3,0.4-0.3,0.7v4.2c0,0.3,0.1,0.5,0.3,0.7
		c0.2,0.2,0.5,0.3,0.8,0.3s0.6-0.1,0.8-0.3C730.7,555.4,730.8,555.2,730.8,554.9z"/>
	<path class="st1" d="M738.2,552.6l0.5,2.9h0.2l0.2-3.5v-3.2c0-0.1,0-0.2,0.1-0.3c0.1-0.1,0.2-0.1,0.3-0.1h0.7c0.1,0,0.2,0,0.3,0.1
		s0.1,0.2,0.1,0.3v3.1c0,0.1,0,0.3,0,0.5l-0.4,4.4c0,0.1-0.1,0.2-0.1,0.3c-0.1,0.1-0.2,0.1-0.3,0.1h-1.3c-0.1,0-0.2,0-0.3-0.1
		c-0.1-0.1-0.1-0.2-0.1-0.3l-0.5-3.2h-0.2l-0.5,3.2c0,0.1-0.1,0.2-0.1,0.3c-0.1,0.1-0.2,0.1-0.3,0.1h-1.3c-0.1,0-0.2,0-0.3-0.1
		c-0.1-0.1-0.1-0.2-0.1-0.3l-0.4-4.4c0-0.3,0-0.4,0-0.5v-3.1c0-0.1,0-0.2,0.1-0.3c0.1-0.1,0.2-0.1,0.3-0.1h0.7c0.1,0,0.2,0,0.3,0.1
		s0.1,0.2,0.1,0.3v3.2l0.2,3.5h0.2l0.5-2.9c0-0.3,0.2-0.4,0.4-0.4h0.9C738,552.3,738.2,552.4,738.2,552.6z"/>
	<path class="st2" d="M720,548.5h0.8c0.1,0,0.2,0,0.3,0.1s0.1,0.2,0.1,0.3v6.8h3.3c0.1,0,0.2,0,0.3,0.1c0.1,0.1,0.1,0.2,0.1,0.3v0.7
		c0,0.1,0,0.2-0.1,0.3c-0.1,0.1-0.2,0.1-0.3,0.1H720c-0.1,0-0.2,0-0.3-0.1c-0.1-0.1-0.1-0.2-0.1-0.3v-8c0-0.1,0-0.2,0.1-0.3
		C719.8,548.6,719.9,548.5,720,548.5z"/>
	<path class="st2" d="M732.3,550.8v4.1c0,0.7-0.3,1.2-0.8,1.7s-1.2,0.8-1.9,0.8c-0.8,0-1.4-0.3-1.9-0.8s-0.8-1-0.8-1.7v-4.1
		c0-0.7,0.3-1.2,0.8-1.7c0.5-0.5,1.2-0.8,1.9-0.8c0.8,0,1.4,0.2,1.9,0.8C732.1,549.5,732.3,550.1,732.3,550.8z M730.8,554.9v-4.2
		c0-0.3-0.1-0.5-0.3-0.7c-0.2-0.2-0.5-0.3-0.8-0.3s-0.6,0.1-0.8,0.3c-0.2,0.2-0.3,0.4-0.3,0.7v4.2c0,0.3,0.1,0.5,0.3,0.7
		c0.2,0.2,0.5,0.3,0.8,0.3s0.6-0.1,0.8-0.3C730.7,555.4,730.8,555.2,730.8,554.9z"/>
	<path class="st2" d="M738.2,552.6l0.5,2.9h0.2l0.2-3.5v-3.2c0-0.1,0-0.2,0.1-0.3c0.1-0.1,0.2-0.1,0.3-0.1h0.7c0.1,0,0.2,0,0.3,0.1
		s0.1,0.2,0.1,0.3v3.1c0,0.1,0,0.3,0,0.5l-0.4,4.4c0,0.1-0.1,0.2-0.1,0.3c-0.1,0.1-0.2,0.1-0.3,0.1h-1.3c-0.1,0-0.2,0-0.3-0.1
		c-0.1-0.1-0.1-0.2-0.1-0.3l-0.5-3.2h-0.2l-0.5,3.2c0,0.1-0.1,0.2-0.1,0.3c-0.1,0.1-0.2,0.1-0.3,0.1h-1.3c-0.1,0-0.2,0-0.3-0.1
		c-0.1-0.1-0.1-0.2-0.1-0.3l-0.4-4.4c0-0.3,0-0.4,0-0.5v-3.1c0-0.1,0-0.2,0.1-0.3c0.1-0.1,0.2-0.1,0.3-0.1h0.7c0.1,0,0.2,0,0.3,0.1
		s0.1,0.2,0.1,0.3v3.2l0.2,3.5h0.2l0.5-2.9c0-0.3,0.2-0.4,0.4-0.4h0.9C738,552.3,738.2,552.4,738.2,552.6z"/>
	<path d="M799.1,548.8v8c0,0.1,0,0.2-0.1,0.3c-0.1,0.1-0.2,0.1-0.3,0.1H798c-0.1,0-0.2,0-0.3-0.1s-0.1-0.2-0.1-0.3v-3.4h-2.2v3.4
		c0,0.1,0,0.2-0.1,0.3c-0.1,0.1-0.2,0.1-0.3,0.1h-0.8c-0.1,0-0.2,0-0.3-0.1c-0.1-0.1-0.1-0.2-0.1-0.3v-8c0-0.1,0-0.2,0.1-0.3
		c0.1-0.1,0.2-0.1,0.3-0.1h0.8c0.1,0,0.2,0,0.3,0.1s0.1,0.2,0.1,0.3v3h2.2v-3c0-0.1,0-0.2,0.1-0.3c0.1-0.1,0.2-0.1,0.3-0.1h0.8
		c0.1,0,0.2,0,0.3,0.1S799.1,548.7,799.1,548.8z"/>
	<path d="M806.8,556.1v0.9c0,0.2-0.1,0.3-0.3,0.3H802c-0.1,0-0.2,0-0.2-0.1c-0.1-0.1-0.1-0.1-0.1-0.2v-0.9c0-0.1,0-0.2,0.1-0.2
		c0.1-0.1,0.1-0.1,0.2-0.1h1.5V550H802c-0.1,0-0.2,0-0.2-0.1c-0.1-0.1-0.1-0.1-0.1-0.2v-0.9c0-0.1,0-0.2,0.1-0.2
		c0.1-0.1,0.1-0.1,0.2-0.1h4.5c0.2,0,0.3,0.1,0.3,0.3v0.9c0,0.2-0.1,0.3-0.3,0.3h-1.5v5.8h1.5C806.7,555.8,806.8,555.9,806.8,556.1z
		"/>
	<path d="M812.3,552.4h2c0.1,0,0.2,0,0.3,0.1s0.1,0.2,0.1,0.3v2c0,0.7-0.3,1.2-0.8,1.7s-1.2,0.8-1.9,0.8s-1.4-0.3-1.9-0.8
		s-0.8-1-0.8-1.7v-4.1c0-0.7,0.3-1.2,0.8-1.7c0.5-0.5,1.2-0.8,1.9-0.8c0.5,0,1,0.1,1.4,0.4c0.4,0.3,0.7,0.6,0.9,0.9
		c0.2,0.3,0.3,0.7,0.3,0.9c0,0.1,0,0.2-0.1,0.3c-0.1,0.1-0.2,0.1-0.3,0.1h-0.8c-0.2,0-0.4-0.1-0.4-0.4c0-0.2-0.1-0.4-0.3-0.6
		c-0.2-0.2-0.4-0.3-0.7-0.3c-0.3,0-0.5,0.1-0.8,0.3c-0.2,0.2-0.3,0.4-0.3,0.7v4.2c0,0.3,0.1,0.5,0.3,0.7c0.2,0.2,0.5,0.3,0.8,0.3
		s0.5-0.1,0.8-0.3c0.2-0.2,0.4-0.4,0.4-0.7v-1h-0.8c-0.1,0-0.2,0-0.2-0.1c-0.1-0.1-0.1-0.1-0.1-0.2v-0.8
		C812.1,552.5,812.1,552.4,812.3,552.4C812.1,552.5,812.2,552.4,812.3,552.4z"/>
	<path d="M822.3,548.8v8c0,0.1,0,0.2-0.1,0.3c-0.1,0.1-0.2,0.1-0.3,0.1h-0.8c-0.1,0-0.2,0-0.3-0.1s-0.1-0.2-0.1-0.3v-3.4h-2.2v3.4
		c0,0.1,0,0.2-0.1,0.3c-0.1,0.1-0.2,0.1-0.3,0.1h-0.8c-0.1,0-0.2,0-0.3-0.1c-0.1-0.1-0.1-0.2-0.1-0.3v-8c0-0.1,0-0.2,0.1-0.3
		c0.1-0.1,0.2-0.1,0.3-0.1h0.8c0.1,0,0.2,0,0.3,0.1s0.1,0.2,0.1,0.3v3h2.2v-3c0-0.1,0-0.2,0.1-0.3c0.1-0.1,0.2-0.1,0.3-0.1h0.8
		c0.1,0,0.2,0,0.3,0.1S822.3,548.7,822.3,548.8z"/>
	<path class="st1" d="M799.1,548.8v8c0,0.1,0,0.2-0.1,0.3c-0.1,0.1-0.2,0.1-0.3,0.1H798c-0.1,0-0.2,0-0.3-0.1s-0.1-0.2-0.1-0.3v-3.4
		h-2.2v3.4c0,0.1,0,0.2-0.1,0.3c-0.1,0.1-0.2,0.1-0.3,0.1h-0.8c-0.1,0-0.2,0-0.3-0.1c-0.1-0.1-0.1-0.2-0.1-0.3v-8
		c0-0.1,0-0.2,0.1-0.3c0.1-0.1,0.2-0.1,0.3-0.1h0.8c0.1,0,0.2,0,0.3,0.1s0.1,0.2,0.1,0.3v3h2.2v-3c0-0.1,0-0.2,0.1-0.3
		c0.1-0.1,0.2-0.1,0.3-0.1h0.8c0.1,0,0.2,0,0.3,0.1S799.1,548.7,799.1,548.8z"/>
	<path class="st1" d="M806.8,556.1v0.9c0,0.2-0.1,0.3-0.3,0.3H802c-0.1,0-0.2,0-0.2-0.1c-0.1-0.1-0.1-0.1-0.1-0.2v-0.9
		c0-0.1,0-0.2,0.1-0.2c0.1-0.1,0.1-0.1,0.2-0.1h1.5V550H802c-0.1,0-0.2,0-0.2-0.1c-0.1-0.1-0.1-0.1-0.1-0.2v-0.9
		c0-0.1,0-0.2,0.1-0.2c0.1-0.1,0.1-0.1,0.2-0.1h4.5c0.2,0,0.3,0.1,0.3,0.3v0.9c0,0.2-0.1,0.3-0.3,0.3h-1.5v5.8h1.5
		C806.7,555.8,806.8,555.9,806.8,556.1z"/>
	<path class="st1" d="M812.3,552.4h2c0.1,0,0.2,0,0.3,0.1s0.1,0.2,0.1,0.3v2c0,0.7-0.3,1.2-0.8,1.7s-1.2,0.8-1.9,0.8
		s-1.4-0.3-1.9-0.8s-0.8-1-0.8-1.7v-4.1c0-0.7,0.3-1.2,0.8-1.7c0.5-0.5,1.2-0.8,1.9-0.8c0.5,0,1,0.1,1.4,0.4
		c0.4,0.3,0.7,0.6,0.9,0.9c0.2,0.3,0.3,0.7,0.3,0.9c0,0.1,0,0.2-0.1,0.3c-0.1,0.1-0.2,0.1-0.3,0.1h-0.8c-0.2,0-0.4-0.1-0.4-0.4
		c0-0.2-0.1-0.4-0.3-0.6c-0.2-0.2-0.4-0.3-0.7-0.3c-0.3,0-0.5,0.1-0.8,0.3c-0.2,0.2-0.3,0.4-0.3,0.7v4.2c0,0.3,0.1,0.5,0.3,0.7
		c0.2,0.2,0.5,0.3,0.8,0.3s0.5-0.1,0.8-0.3c0.2-0.2,0.4-0.4,0.4-0.7v-1h-0.8c-0.1,0-0.2,0-0.2-0.1c-0.1-0.1-0.1-0.1-0.1-0.2v-0.8
		C812.1,552.5,812.1,552.4,812.3,552.4C812.1,552.5,812.2,552.4,812.3,552.4z"/>
	<path class="st1" d="M822.3,548.8v8c0,0.1,0,0.2-0.1,0.3c-0.1,0.1-0.2,0.1-0.3,0.1h-0.8c-0.1,0-0.2,0-0.3-0.1s-0.1-0.2-0.1-0.3
		v-3.4h-2.2v3.4c0,0.1,0,0.2-0.1,0.3c-0.1,0.1-0.2,0.1-0.3,0.1h-0.8c-0.1,0-0.2,0-0.3-0.1c-0.1-0.1-0.1-0.2-0.1-0.3v-8
		c0-0.1,0-0.2,0.1-0.3c0.1-0.1,0.2-0.1,0.3-0.1h0.8c0.1,0,0.2,0,0.3,0.1s0.1,0.2,0.1,0.3v3h2.2v-3c0-0.1,0-0.2,0.1-0.3
		c0.1-0.1,0.2-0.1,0.3-0.1h0.8c0.1,0,0.2,0,0.3,0.1S822.3,548.7,822.3,548.8z"/>
	<path class="st2" d="M799.1,548.8v8c0,0.1,0,0.2-0.1,0.3c-0.1,0.1-0.2,0.1-0.3,0.1H798c-0.1,0-0.2,0-0.3-0.1s-0.1-0.2-0.1-0.3v-3.4
		h-2.2v3.4c0,0.1,0,0.2-0.1,0.3c-0.1,0.1-0.2,0.1-0.3,0.1h-0.8c-0.1,0-0.2,0-0.3-0.1c-0.1-0.1-0.1-0.2-0.1-0.3v-8
		c0-0.1,0-0.2,0.1-0.3c0.1-0.1,0.2-0.1,0.3-0.1h0.8c0.1,0,0.2,0,0.3,0.1s0.1,0.2,0.1,0.3v3h2.2v-3c0-0.1,0-0.2,0.1-0.3
		c0.1-0.1,0.2-0.1,0.3-0.1h0.8c0.1,0,0.2,0,0.3,0.1S799.1,548.7,799.1,548.8z"/>
	<path class="st2" d="M806.8,556.1v0.9c0,0.2-0.1,0.3-0.3,0.3H802c-0.1,0-0.2,0-0.2-0.1c-0.1-0.1-0.1-0.1-0.1-0.2v-0.9
		c0-0.1,0-0.2,0.1-0.2c0.1-0.1,0.1-0.1,0.2-0.1h1.5V550H802c-0.1,0-0.2,0-0.2-0.1c-0.1-0.1-0.1-0.1-0.1-0.2v-0.9
		c0-0.1,0-0.2,0.1-0.2c0.1-0.1,0.1-0.1,0.2-0.1h4.5c0.2,0,0.3,0.1,0.3,0.3v0.9c0,0.2-0.1,0.3-0.3,0.3h-1.5v5.8h1.5
		C806.7,555.8,806.8,555.9,806.8,556.1z"/>
	<path class="st2" d="M812.3,552.4h2c0.1,0,0.2,0,0.3,0.1s0.1,0.2,0.1,0.3v2c0,0.7-0.3,1.2-0.8,1.7s-1.2,0.8-1.9,0.8
		s-1.4-0.3-1.9-0.8s-0.8-1-0.8-1.7v-4.1c0-0.7,0.3-1.2,0.8-1.7c0.5-0.5,1.2-0.8,1.9-0.8c0.5,0,1,0.1,1.4,0.4
		c0.4,0.3,0.7,0.6,0.9,0.9c0.2,0.3,0.3,0.7,0.3,0.9c0,0.1,0,0.2-0.1,0.3c-0.1,0.1-0.2,0.1-0.3,0.1h-0.8c-0.2,0-0.4-0.1-0.4-0.4
		c0-0.2-0.1-0.4-0.3-0.6c-0.2-0.2-0.4-0.3-0.7-0.3c-0.3,0-0.5,0.1-0.8,0.3c-0.2,0.2-0.3,0.4-0.3,0.7v4.2c0,0.3,0.1,0.5,0.3,0.7
		c0.2,0.2,0.5,0.3,0.8,0.3s0.5-0.1,0.8-0.3c0.2-0.2,0.4-0.4,0.4-0.7v-1h-0.8c-0.1,0-0.2,0-0.2-0.1c-0.1-0.1-0.1-0.1-0.1-0.2v-0.8
		C812.1,552.5,812.1,552.4,812.3,552.4C812.1,552.5,812.2,552.4,812.3,552.4z"/>
	<path class="st2" d="M822.3,548.8v8c0,0.1,0,0.2-0.1,0.3c-0.1,0.1-0.2,0.1-0.3,0.1h-0.8c-0.1,0-0.2,0-0.3-0.1s-0.1-0.2-0.1-0.3
		v-3.4h-2.2v3.4c0,0.1,0,0.2-0.1,0.3c-0.1,0.1-0.2,0.1-0.3,0.1h-0.8c-0.1,0-0.2,0-0.3-0.1c-0.1-0.1-0.1-0.2-0.1-0.3v-8
		c0-0.1,0-0.2,0.1-0.3c0.1-0.1,0.2-0.1,0.3-0.1h0.8c0.1,0,0.2,0,0.3,0.1s0.1,0.2,0.1,0.3v3h2.2v-3c0-0.1,0-0.2,0.1-0.3
		c0.1-0.1,0.2-0.1,0.3-0.1h0.8c0.1,0,0.2,0,0.3,0.1S822.3,548.7,822.3,548.8z"/>
	<rect x="718.5" y="438.5" class="st4" width="35.8" height="34.5"/>
	<rect x="754.3" y="438.5" class="st5" width="35.8" height="34.5"/>
	<rect x="718.5" y="472.8" class="st7" width="35.8" height="34.5"/>
	<rect x="754.3" y="472.8" class="st14" width="35.8" height="34.5"/>
	<rect x="718.5" y="507.3" class="st9" width="35.8" height="34.5"/>
	<rect x="754.3" y="507.3" class="st15" width="35.8" height="34.5"/>
	<rect x="790" y="507.3" class="st16" width="35.8" height="34.5"/>
	<rect x="718.5" y="438.5" class="st4" width="35.8" height="34.5"/>
	<line class="st3" x1="748.7" y1="552.1" x2="784.1" y2="552.1"/>
	<polygon class="st2" points="780.9,556 780.2,555.3 783.9,552.1 780.2,548.9 780.9,548.2 785.2,552.1 	"/>
	<rect x="790" y="471.5" class="st17" width="35.8" height="36"/>
	<rect x="754" y="435" class="st18" width="36.1" height="36.5"/>
	<text transform="matrix(6.123234e-17 -1 1 6.123234e-17 691.1318 519.1328)" class="st19 st20">Illiteracy</text>
	<text transform="matrix(1 0 0 1 747 571)" class="st19 st20">Dropout</text>
</g>
<g id="ai2html-settings">
	<rect x="-450" style="fill:none;" width="400" height="418"/>
	<text id="ai2html-settings_00000021109072036294080830000008751401410796378502_" transform="matrix(1 0 0 1 -450 10.6499)"><tspan x="0" y="0" class="st19" style="font-size:15px;">ai2html-settings</tspan><tspan x="0" y="19" class="st19" style="font-size:15px;">settings_version: 0.115.5</tspan><tspan x="0" y="38" class="st19" style="font-size:15px;">image_format: auto</tspan><tspan x="0" y="57" class="st19" style="font-size:15px;">responsiveness: fixed</tspan><tspan x="0" y="76" class="st19" style="font-size:15px;">output: one-file</tspan><tspan x="0" y="95" class="st19" style="font-size:15px;">html_output_path: /ai2html-output/</tspan><tspan x="0" y="114" class="st19" style="font-size:15px;">html_output_extension: .html</tspan><tspan x="0" y="133" class="st19" style="font-size:15px;">image_output_path: </tspan><tspan x="0" y="152" class="st19" style="font-size:15px;">local_preview_template: </tspan><tspan x="0" y="171" class="st19" style="font-size:15px;">png_number_of_colors: 128</tspan><tspan x="0" y="190" class="st19" style="font-size:15px;">jpg_quality: 60</tspan><tspan x="0" y="209" class="st19" style="font-size:15px;">headline: </tspan><tspan x="0" y="228" class="st19" style="font-size:15px;">leadin: </tspan><tspan x="0" y="247" class="st19" style="font-size:15px;">notes: </tspan><tspan x="0" y="266" class="st19" style="font-size:15px;">sources: </tspan><tspan x="0" y="285" class="st19" style="font-size:15px;">credit: </tspan></text>
</g>
</svg>
