<?xml version="1.0" encoding="utf-8"?>
<!-- Generator: Adobe Illustrator 27.2.0, SVG Export Plug-In . SVG Version: 6.00 Build 0)  -->
<svg version="1.1" id="Layer_1" xmlns:cc="http://creativecommons.org/ns#"
	 xmlns="http://www.w3.org/2000/svg" xmlns:xlink="http://www.w3.org/1999/xlink" x="0px" y="0px" viewBox="0 0 841.7 595.2"
	 style="enable-background:new 0 0 841.7 595.2;" xml:space="preserve">
<style type="text/css">
	.st0{fill-rule:evenodd;clip-rule:evenodd;fill:#FFFFFF;}
	.st1{fill:none;stroke:#FFFFFF;stroke-width:8;}
	.st2{fill:#555555;}
	.st3{opacity:6.000000e-02;fill:#85C1C1;enable-background:new    ;}
	.st4{opacity:6.000000e-02;fill:#7B9DAD;enable-background:new    ;}
	.st5{opacity:6.000000e-02;fill:#70799B;enable-background:new    ;}
	.st6{opacity:6.000000e-02;fill:#BBD8D8;enable-background:new    ;}
	.st7{opacity:6.000000e-02;fill:#ADB0C2;enable-background:new    ;}
	.st8{opacity:6.000000e-02;fill:#9E88AD;enable-background:new    ;}
	.st9{fill:#EFEFEF;}
	.st10{fill:#DEC3D7;}
	.st11{fill:#CA96C0;}
	.st12{fill:none;stroke:#222222;stroke-linecap:round;stroke-miterlimit:10;}
	.st13{fill:#222222;}
	.st14{fill:none;stroke:#555555;stroke-linecap:round;stroke-miterlimit:10;stroke-dasharray:2,4;}
	.st15{font-family:'MyriadPro-Regular';}
	.st16{font-size:12px;}
</style>
<g>
	<g transform="matrix(1,0,0,1,0,0)">
	</g>
	<g transform="matrix(1,0,0,1,0,0)">
	</g>
	<g transform="matrix(11.8081,0,0,11.8081,0,0)">
	</g>
	<g transform="matrix(0.999751,0,0,0.999751,0,0)">
	</g>
	<g transform="matrix(0.999751,0,0,0.999751,0,0)">
		<path vector-effect="none" class="st0" d="M-0.5-0.5h842.9v596.4H-0.5V-0.5"/>
	</g>
	<g transform="matrix(0.999751,0,0,0.999751,0,0)">
	</g>
	<g transform="matrix(11.8081,0,0,11.8081,0,0)">
	</g>
	<g transform="matrix(11.8081,0,0,11.8081,0,0)">
	</g>
	<g transform="matrix(11.8081,0,0,11.8081,0,0)">
	</g>
	<g transform="matrix(11.8081,0,0,11.8081,0,0)">
	</g>
	<g transform="matrix(11.8081,0,0,11.8081,0,0)">
	</g>
	<g transform="matrix(1,0,0,1,0,0)">
		
			<image style="overflow:visible;enable-background:new    ;" width="3507" height="2480" xlink:href="8C5618B44ABD840D.png"  transform="matrix(0.24 0 0 0.24 6.408691e-04 0)">
		</image>
	</g>
	<g transform="matrix(11.8081,0,0,11.8081,0,0)">
	</g>
	<g transform="matrix(11.8081,0,0,11.8081,0,0)">
	</g>
	<g transform="matrix(11.8081,0,0,11.8081,0,0)">
	</g>
	<g transform="matrix(11.8081,0,0,11.8081,0,0)">
	</g>
	<g transform="matrix(1,0,0,1,0,0)">
	</g>
</g>
<path d="M720,531.7h0.8c0.1,0,0.2,0,0.3,0.1s0.1,0.2,0.1,0.3v6.8h3.3c0.1,0,0.2,0,0.3,0.1c0.1,0.1,0.1,0.2,0.1,0.3v0.7
	c0,0.1,0,0.2-0.1,0.3c-0.1,0.1-0.2,0.1-0.3,0.1H720c-0.1,0-0.2,0-0.3-0.1c-0.1-0.1-0.1-0.2-0.1-0.3v-8c0-0.1,0-0.2,0.1-0.3
	C719.8,531.8,719.9,531.7,720,531.7z"/>
<path d="M732.4,534.1v4.1c0,0.7-0.3,1.2-0.8,1.7s-1.2,0.8-1.9,0.8c-0.8,0-1.4-0.3-1.9-0.8s-0.8-1-0.8-1.7v-4.1
	c0-0.7,0.3-1.2,0.8-1.7c0.5-0.5,1.2-0.8,1.9-0.8c0.8,0,1.4,0.2,1.9,0.8C732.2,532.8,732.4,533.3,732.4,534.1z M730.9,538.2V534
	c0-0.3-0.1-0.5-0.3-0.7s-0.5-0.3-0.8-0.3s-0.6,0.1-0.8,0.3s-0.3,0.4-0.3,0.7v4.2c0,0.3,0.1,0.5,0.3,0.7c0.2,0.2,0.5,0.3,0.8,0.3
	s0.6-0.1,0.8-0.3C730.8,538.7,730.9,538.5,730.9,538.2z"/>
<path d="M738.3,535.9l0.5,2.9h0.2l0.2-3.5v-3.2c0-0.1,0-0.2,0.1-0.3c0.1-0.1,0.2-0.1,0.3-0.1h0.7c0.1,0,0.2,0,0.3,0.1
	s0.1,0.2,0.1,0.3v3.1c0,0.1,0,0.3,0,0.5l-0.4,4.4c0,0.1-0.1,0.2-0.1,0.3c-0.1,0.1-0.2,0.1-0.3,0.1h-1.3c-0.1,0-0.2,0-0.3-0.1
	c-0.1-0.1-0.1-0.2-0.1-0.3l-0.5-3.2h-0.2l-0.5,3.2c0,0.1-0.1,0.2-0.1,0.3c-0.1,0.1-0.2,0.1-0.3,0.1h-1.3c-0.1,0-0.2,0-0.3-0.1
	c-0.1-0.1-0.1-0.2-0.1-0.3l-0.4-4.4c0-0.3,0-0.4,0-0.5v-3.1c0-0.1,0-0.2,0.1-0.3c0.1-0.1,0.2-0.1,0.3-0.1h0.7c0.1,0,0.2,0,0.3,0.1
	c0.1,0.1,0.1,0.2,0.1,0.3v3.2l0.2,3.5h0.2l0.5-2.9c0-0.3,0.2-0.4,0.4-0.4h0.9C738.1,535.5,738.3,535.7,738.3,535.9z"/>
<path class="st1" d="M720,531.7h0.8c0.1,0,0.2,0,0.3,0.1s0.1,0.2,0.1,0.3v6.8h3.3c0.1,0,0.2,0,0.3,0.1c0.1,0.1,0.1,0.2,0.1,0.3v0.7
	c0,0.1,0,0.2-0.1,0.3c-0.1,0.1-0.2,0.1-0.3,0.1H720c-0.1,0-0.2,0-0.3-0.1c-0.1-0.1-0.1-0.2-0.1-0.3v-8c0-0.1,0-0.2,0.1-0.3
	C719.8,531.8,719.9,531.7,720,531.7z"/>
<path class="st1" d="M732.4,534.1v4.1c0,0.7-0.3,1.2-0.8,1.7s-1.2,0.8-1.9,0.8c-0.8,0-1.4-0.3-1.9-0.8s-0.8-1-0.8-1.7v-4.1
	c0-0.7,0.3-1.2,0.8-1.7c0.5-0.5,1.2-0.8,1.9-0.8c0.8,0,1.4,0.2,1.9,0.8C732.2,532.8,732.4,533.3,732.4,534.1z M730.9,538.2V534
	c0-0.3-0.1-0.5-0.3-0.7s-0.5-0.3-0.8-0.3s-0.6,0.1-0.8,0.3s-0.3,0.4-0.3,0.7v4.2c0,0.3,0.1,0.5,0.3,0.7c0.2,0.2,0.5,0.3,0.8,0.3
	s0.6-0.1,0.8-0.3C730.8,538.7,730.9,538.5,730.9,538.2z"/>
<path class="st1" d="M738.3,535.9l0.5,2.9h0.2l0.2-3.5v-3.2c0-0.1,0-0.2,0.1-0.3c0.1-0.1,0.2-0.1,0.3-0.1h0.7c0.1,0,0.2,0,0.3,0.1
	s0.1,0.2,0.1,0.3v3.1c0,0.1,0,0.3,0,0.5l-0.4,4.4c0,0.1-0.1,0.2-0.1,0.3c-0.1,0.1-0.2,0.1-0.3,0.1h-1.3c-0.1,0-0.2,0-0.3-0.1
	c-0.1-0.1-0.1-0.2-0.1-0.3l-0.5-3.2h-0.2l-0.5,3.2c0,0.1-0.1,0.2-0.1,0.3c-0.1,0.1-0.2,0.1-0.3,0.1h-1.3c-0.1,0-0.2,0-0.3-0.1
	c-0.1-0.1-0.1-0.2-0.1-0.3l-0.4-4.4c0-0.3,0-0.4,0-0.5v-3.1c0-0.1,0-0.2,0.1-0.3c0.1-0.1,0.2-0.1,0.3-0.1h0.7c0.1,0,0.2,0,0.3,0.1
	c0.1,0.1,0.1,0.2,0.1,0.3v3.2l0.2,3.5h0.2l0.5-2.9c0-0.3,0.2-0.4,0.4-0.4h0.9C738.1,535.5,738.3,535.7,738.3,535.9z"/>
<path class="st2" d="M720,531.7h0.8c0.1,0,0.2,0,0.3,0.1s0.1,0.2,0.1,0.3v6.8h3.3c0.1,0,0.2,0,0.3,0.1c0.1,0.1,0.1,0.2,0.1,0.3v0.7
	c0,0.1,0,0.2-0.1,0.3c-0.1,0.1-0.2,0.1-0.3,0.1H720c-0.1,0-0.2,0-0.3-0.1c-0.1-0.1-0.1-0.2-0.1-0.3v-8c0-0.1,0-0.2,0.1-0.3
	C719.8,531.8,719.9,531.7,720,531.7z"/>
<path class="st2" d="M732.4,534.1v4.1c0,0.7-0.3,1.2-0.8,1.7s-1.2,0.8-1.9,0.8c-0.8,0-1.4-0.3-1.9-0.8s-0.8-1-0.8-1.7v-4.1
	c0-0.7,0.3-1.2,0.8-1.7c0.5-0.5,1.2-0.8,1.9-0.8c0.8,0,1.4,0.2,1.9,0.8C732.2,532.8,732.4,533.3,732.4,534.1z M730.9,538.2V534
	c0-0.3-0.1-0.5-0.3-0.7s-0.5-0.3-0.8-0.3s-0.6,0.1-0.8,0.3s-0.3,0.4-0.3,0.7v4.2c0,0.3,0.1,0.5,0.3,0.7c0.2,0.2,0.5,0.3,0.8,0.3
	s0.6-0.1,0.8-0.3C730.8,538.7,730.9,538.5,730.9,538.2z"/>
<path class="st2" d="M738.3,535.9l0.5,2.9h0.2l0.2-3.5v-3.2c0-0.1,0-0.2,0.1-0.3c0.1-0.1,0.2-0.1,0.3-0.1h0.7c0.1,0,0.2,0,0.3,0.1
	s0.1,0.2,0.1,0.3v3.1c0,0.1,0,0.3,0,0.5l-0.4,4.4c0,0.1-0.1,0.2-0.1,0.3c-0.1,0.1-0.2,0.1-0.3,0.1h-1.3c-0.1,0-0.2,0-0.3-0.1
	c-0.1-0.1-0.1-0.2-0.1-0.3l-0.5-3.2h-0.2l-0.5,3.2c0,0.1-0.1,0.2-0.1,0.3c-0.1,0.1-0.2,0.1-0.3,0.1h-1.3c-0.1,0-0.2,0-0.3-0.1
	c-0.1-0.1-0.1-0.2-0.1-0.3l-0.4-4.4c0-0.3,0-0.4,0-0.5v-3.1c0-0.1,0-0.2,0.1-0.3c0.1-0.1,0.2-0.1,0.3-0.1h0.7c0.1,0,0.2,0,0.3,0.1
	c0.1,0.1,0.1,0.2,0.1,0.3v3.2l0.2,3.5h0.2l0.5-2.9c0-0.3,0.2-0.4,0.4-0.4h0.9C738.1,535.5,738.3,535.7,738.3,535.9z"/>
<path d="M799.2,532.1v8c0,0.1,0,0.2-0.1,0.3c-0.1,0.1-0.2,0.1-0.3,0.1H798c-0.1,0-0.2,0-0.3-0.1c-0.1-0.1-0.1-0.2-0.1-0.3v-3.4h-2.2
	v3.4c0,0.1,0,0.2-0.1,0.3c-0.1,0.1-0.2,0.1-0.3,0.1h-0.8c-0.1,0-0.2,0-0.3-0.1s-0.1-0.2-0.1-0.3v-8c0-0.1,0-0.2,0.1-0.3
	c0.1-0.1,0.2-0.1,0.3-0.1h0.8c0.1,0,0.2,0,0.3,0.1s0.1,0.2,0.1,0.3v3h2.2v-3c0-0.1,0-0.2,0.1-0.3c0.1-0.1,0.2-0.1,0.3-0.1h0.8
	c0.1,0,0.2,0,0.3,0.1S799.2,532,799.2,532.1z"/>
<path d="M806.9,539.3v0.9c0,0.2-0.1,0.3-0.3,0.3h-4.5c-0.1,0-0.2,0-0.2-0.1c-0.1-0.1-0.1-0.1-0.1-0.2v-0.9c0-0.1,0-0.2,0.1-0.2
	c0.1-0.1,0.1-0.1,0.2-0.1h1.5v-5.8h-1.5c-0.1,0-0.2,0-0.2-0.1c-0.1-0.1-0.1-0.1-0.1-0.2v-0.9c0-0.1,0-0.2,0.1-0.2
	c0.1-0.1,0.1-0.1,0.2-0.1h4.5c0.2,0,0.3,0.1,0.3,0.3v0.9c0,0.2-0.1,0.3-0.3,0.3h-1.5v5.8h1.5C806.8,539,806.9,539.1,806.9,539.3z"/>
<path d="M812.4,535.7h2c0.1,0,0.2,0,0.3,0.1c0.1,0.1,0.1,0.2,0.1,0.3v2c0,0.7-0.3,1.2-0.8,1.7s-1.2,0.8-1.9,0.8s-1.4-0.3-1.9-0.8
	s-0.8-1-0.8-1.7V534c0-0.7,0.3-1.2,0.8-1.7c0.5-0.5,1.2-0.8,1.9-0.8c0.5,0,1,0.1,1.4,0.4c0.4,0.3,0.7,0.6,0.9,0.9
	c0.2,0.3,0.3,0.7,0.3,0.9c0,0.1,0,0.2-0.1,0.3c-0.1,0.1-0.2,0.1-0.3,0.1h-0.8c-0.2,0-0.4-0.1-0.4-0.4c0-0.2-0.1-0.4-0.3-0.6
	s-0.4-0.3-0.7-0.3c-0.3,0-0.5,0.1-0.8,0.3c-0.2,0.2-0.3,0.4-0.3,0.7v4.2c0,0.3,0.1,0.5,0.3,0.7c0.2,0.2,0.5,0.3,0.8,0.3
	s0.5-0.1,0.8-0.3c0.2-0.2,0.4-0.4,0.4-0.7v-1h-0.8c-0.1,0-0.2,0-0.2-0.1c-0.1-0.1-0.1-0.1-0.1-0.2v-0.8
	C812.2,535.8,812.2,535.7,812.4,535.7C812.2,535.8,812.3,535.7,812.4,535.7z"/>
<path d="M822.4,532.1v8c0,0.1,0,0.2-0.1,0.3c-0.1,0.1-0.2,0.1-0.3,0.1h-0.8c-0.1,0-0.2,0-0.3-0.1s-0.1-0.2-0.1-0.3v-3.4h-2.2v3.4
	c0,0.1,0,0.2-0.1,0.3c-0.1,0.1-0.2,0.1-0.3,0.1h-0.8c-0.1,0-0.2,0-0.3-0.1c-0.1-0.1-0.1-0.2-0.1-0.3v-8c0-0.1,0-0.2,0.1-0.3
	c0.1-0.1,0.2-0.1,0.3-0.1h0.8c0.1,0,0.2,0,0.3,0.1s0.1,0.2,0.1,0.3v3h2.2v-3c0-0.1,0-0.2,0.1-0.3c0.1-0.1,0.2-0.1,0.3-0.1h0.8
	c0.1,0,0.2,0,0.3,0.1S822.4,532,822.4,532.1z"/>
<path class="st1" d="M799.2,532.1v8c0,0.1,0,0.2-0.1,0.3c-0.1,0.1-0.2,0.1-0.3,0.1H798c-0.1,0-0.2,0-0.3-0.1
	c-0.1-0.1-0.1-0.2-0.1-0.3v-3.4h-2.2v3.4c0,0.1,0,0.2-0.1,0.3c-0.1,0.1-0.2,0.1-0.3,0.1h-0.8c-0.1,0-0.2,0-0.3-0.1s-0.1-0.2-0.1-0.3
	v-8c0-0.1,0-0.2,0.1-0.3c0.1-0.1,0.2-0.1,0.3-0.1h0.8c0.1,0,0.2,0,0.3,0.1s0.1,0.2,0.1,0.3v3h2.2v-3c0-0.1,0-0.2,0.1-0.3
	c0.1-0.1,0.2-0.1,0.3-0.1h0.8c0.1,0,0.2,0,0.3,0.1S799.2,532,799.2,532.1z"/>
<path class="st1" d="M806.9,539.3v0.9c0,0.2-0.1,0.3-0.3,0.3h-4.5c-0.1,0-0.2,0-0.2-0.1c-0.1-0.1-0.1-0.1-0.1-0.2v-0.9
	c0-0.1,0-0.2,0.1-0.2c0.1-0.1,0.1-0.1,0.2-0.1h1.5v-5.8h-1.5c-0.1,0-0.2,0-0.2-0.1c-0.1-0.1-0.1-0.1-0.1-0.2v-0.9
	c0-0.1,0-0.2,0.1-0.2c0.1-0.1,0.1-0.1,0.2-0.1h4.5c0.2,0,0.3,0.1,0.3,0.3v0.9c0,0.2-0.1,0.3-0.3,0.3h-1.5v5.8h1.5
	C806.8,539,806.9,539.1,806.9,539.3z"/>
<path class="st1" d="M812.4,535.7h2c0.1,0,0.2,0,0.3,0.1c0.1,0.1,0.1,0.2,0.1,0.3v2c0,0.7-0.3,1.2-0.8,1.7s-1.2,0.8-1.9,0.8
	s-1.4-0.3-1.9-0.8s-0.8-1-0.8-1.7V534c0-0.7,0.3-1.2,0.8-1.7c0.5-0.5,1.2-0.8,1.9-0.8c0.5,0,1,0.1,1.4,0.4c0.4,0.3,0.7,0.6,0.9,0.9
	c0.2,0.3,0.3,0.7,0.3,0.9c0,0.1,0,0.2-0.1,0.3c-0.1,0.1-0.2,0.1-0.3,0.1h-0.8c-0.2,0-0.4-0.1-0.4-0.4c0-0.2-0.1-0.4-0.3-0.6
	s-0.4-0.3-0.7-0.3c-0.3,0-0.5,0.1-0.8,0.3c-0.2,0.2-0.3,0.4-0.3,0.7v4.2c0,0.3,0.1,0.5,0.3,0.7c0.2,0.2,0.5,0.3,0.8,0.3
	s0.5-0.1,0.8-0.3c0.2-0.2,0.4-0.4,0.4-0.7v-1h-0.8c-0.1,0-0.2,0-0.2-0.1c-0.1-0.1-0.1-0.1-0.1-0.2v-0.8
	C812.2,535.8,812.2,535.7,812.4,535.7C812.2,535.8,812.3,535.7,812.4,535.7z"/>
<path class="st1" d="M822.4,532.1v8c0,0.1,0,0.2-0.1,0.3c-0.1,0.1-0.2,0.1-0.3,0.1h-0.8c-0.1,0-0.2,0-0.3-0.1s-0.1-0.2-0.1-0.3v-3.4
	h-2.2v3.4c0,0.1,0,0.2-0.1,0.3c-0.1,0.1-0.2,0.1-0.3,0.1h-0.8c-0.1,0-0.2,0-0.3-0.1c-0.1-0.1-0.1-0.2-0.1-0.3v-8
	c0-0.1,0-0.2,0.1-0.3c0.1-0.1,0.2-0.1,0.3-0.1h0.8c0.1,0,0.2,0,0.3,0.1s0.1,0.2,0.1,0.3v3h2.2v-3c0-0.1,0-0.2,0.1-0.3
	c0.1-0.1,0.2-0.1,0.3-0.1h0.8c0.1,0,0.2,0,0.3,0.1S822.4,532,822.4,532.1z"/>
<path class="st2" d="M799.2,532.1v8c0,0.1,0,0.2-0.1,0.3c-0.1,0.1-0.2,0.1-0.3,0.1H798c-0.1,0-0.2,0-0.3-0.1
	c-0.1-0.1-0.1-0.2-0.1-0.3v-3.4h-2.2v3.4c0,0.1,0,0.2-0.1,0.3c-0.1,0.1-0.2,0.1-0.3,0.1h-0.8c-0.1,0-0.2,0-0.3-0.1s-0.1-0.2-0.1-0.3
	v-8c0-0.1,0-0.2,0.1-0.3c0.1-0.1,0.2-0.1,0.3-0.1h0.8c0.1,0,0.2,0,0.3,0.1s0.1,0.2,0.1,0.3v3h2.2v-3c0-0.1,0-0.2,0.1-0.3
	c0.1-0.1,0.2-0.1,0.3-0.1h0.8c0.1,0,0.2,0,0.3,0.1S799.2,532,799.2,532.1z"/>
<path class="st2" d="M806.9,539.3v0.9c0,0.2-0.1,0.3-0.3,0.3h-4.5c-0.1,0-0.2,0-0.2-0.1c-0.1-0.1-0.1-0.1-0.1-0.2v-0.9
	c0-0.1,0-0.2,0.1-0.2c0.1-0.1,0.1-0.1,0.2-0.1h1.5v-5.8h-1.5c-0.1,0-0.2,0-0.2-0.1c-0.1-0.1-0.1-0.1-0.1-0.2v-0.9
	c0-0.1,0-0.2,0.1-0.2c0.1-0.1,0.1-0.1,0.2-0.1h4.5c0.2,0,0.3,0.1,0.3,0.3v0.9c0,0.2-0.1,0.3-0.3,0.3h-1.5v5.8h1.5
	C806.8,539,806.9,539.1,806.9,539.3z"/>
<path class="st2" d="M812.4,535.7h2c0.1,0,0.2,0,0.3,0.1c0.1,0.1,0.1,0.2,0.1,0.3v2c0,0.7-0.3,1.2-0.8,1.7s-1.2,0.8-1.9,0.8
	s-1.4-0.3-1.9-0.8s-0.8-1-0.8-1.7V534c0-0.7,0.3-1.2,0.8-1.7c0.5-0.5,1.2-0.8,1.9-0.8c0.5,0,1,0.1,1.4,0.4c0.4,0.3,0.7,0.6,0.9,0.9
	c0.2,0.3,0.3,0.7,0.3,0.9c0,0.1,0,0.2-0.1,0.3c-0.1,0.1-0.2,0.1-0.3,0.1h-0.8c-0.2,0-0.4-0.1-0.4-0.4c0-0.2-0.1-0.4-0.3-0.6
	s-0.4-0.3-0.7-0.3c-0.3,0-0.5,0.1-0.8,0.3c-0.2,0.2-0.3,0.4-0.3,0.7v4.2c0,0.3,0.1,0.5,0.3,0.7c0.2,0.2,0.5,0.3,0.8,0.3
	s0.5-0.1,0.8-0.3c0.2-0.2,0.4-0.4,0.4-0.7v-1h-0.8c-0.1,0-0.2,0-0.2-0.1c-0.1-0.1-0.1-0.1-0.1-0.2v-0.8
	C812.2,535.8,812.2,535.7,812.4,535.7C812.2,535.8,812.3,535.7,812.4,535.7z"/>
<path class="st2" d="M822.4,532.1v8c0,0.1,0,0.2-0.1,0.3c-0.1,0.1-0.2,0.1-0.3,0.1h-0.8c-0.1,0-0.2,0-0.3-0.1s-0.1-0.2-0.1-0.3v-3.4
	h-2.2v3.4c0,0.1,0,0.2-0.1,0.3c-0.1,0.1-0.2,0.1-0.3,0.1h-0.8c-0.1,0-0.2,0-0.3-0.1c-0.1-0.1-0.1-0.2-0.1-0.3v-8
	c0-0.1,0-0.2,0.1-0.3c0.1-0.1,0.2-0.1,0.3-0.1h0.8c0.1,0,0.2,0,0.3,0.1s0.1,0.2,0.1,0.3v3h2.2v-3c0-0.1,0-0.2,0.1-0.3
	c0.1-0.1,0.2-0.1,0.3-0.1h0.8c0.1,0,0.2,0,0.3,0.1S822.4,532,822.4,532.1z"/>
<rect x="718.5" y="421.7" class="st3" width="35.8" height="34.5"/>
<rect x="754.3" y="421.7" class="st4" width="35.8" height="34.5"/>
<rect x="790" y="421.7" class="st5" width="35.8" height="34.5"/>
<rect x="718.5" y="456.1" class="st6" width="35.8" height="34.5"/>
<rect x="754.3" y="456.1" class="st7" width="35.8" height="34.5"/>
<rect x="790" y="456.1" class="st8" width="35.8" height="34.5"/>
<rect x="718.5" y="490.5" class="st9" width="35.8" height="34.5"/>
<rect x="754.3" y="490.5" class="st10" width="35.8" height="34.5"/>
<rect x="790" y="490.5" class="st11" width="35.8" height="34.5"/>
<rect x="718.5" y="421.7" class="st3" width="35.8" height="34.5"/>
<line class="st12" x1="795.5" y1="553.8" x2="821.7" y2="553.8"/>
<polygon class="st13" points="818.4,557.6 817.8,557 821.4,553.8 817.8,550.6 818.4,549.9 822.8,553.8 "/>
<line class="st14" x1="748.7" y1="535.3" x2="784.2" y2="535.3"/>
<polygon class="st2" points="781,539.2 780.3,538.6 783.9,535.3 780.3,532.2 781,531.4 785.3,535.3 "/>
<text transform="matrix(1 0 0 1 718.8107 557.2737)" class="st15 st16">Dropout rates</text>
</svg>
