<?xml version="1.0" encoding="utf-8"?>
<!-- Generator: Adobe Illustrator 27.2.0, SVG Export Plug-In . SVG Version: 6.00 Build 0)  -->
<svg version="1.1" id="Layer_1" xmlns:cc="http://creativecommons.org/ns#"
	 xmlns="http://www.w3.org/2000/svg" xmlns:xlink="http://www.w3.org/1999/xlink" x="0px" y="0px" viewBox="0 0 841.7 595.2"
	 style="enable-background:new 0 0 841.7 595.2;" xml:space="preserve">
<style type="text/css">
	.st0{fill-rule:evenodd;clip-rule:evenodd;fill:#FFFFFF;}
	.st1{fill:none;stroke:#FFFFFF;stroke-width:8;}
	.st2{fill:#555555;}
	.st3{fill:#85C1C1;}
	.st4{opacity:6.000000e-02;fill:#7B9DAD;enable-background:new    ;}
	.st5{opacity:6.000000e-02;fill:#70799B;enable-background:new    ;}
	.st6{fill:#BBD8D8;}
	.st7{opacity:6.000000e-02;fill:#ADB0C2;enable-background:new    ;}
	.st8{opacity:6.000000e-02;fill:#9E88AD;enable-background:new    ;}
	.st9{fill:#EFEFEF;}
	.st10{opacity:6.000000e-02;fill:#DEC3D7;enable-background:new    ;}
	.st11{opacity:6.000000e-02;fill:#CA96C0;enable-background:new    ;}
	.st12{fill:none;stroke:#222222;stroke-linecap:round;stroke-miterlimit:10;}
	.st13{fill:#222222;}
	.st14{fill:none;stroke:#555555;stroke-linecap:round;stroke-miterlimit:10;stroke-dasharray:2,4;}
	.st15{font-family:'MyriadPro-Regular';}
	.st16{font-size:12px;}
</style>
<g>
	<g transform="matrix(1,0,0,1,0,0)">
	</g>
	<g transform="matrix(1,0,0,1,0,0)">
	</g>
	<g transform="matrix(11.8081,0,0,11.8081,0,0)">
	</g>
	<g transform="matrix(0.999751,0,0,0.999751,0,0)">
	</g>
	<g transform="matrix(0.999751,0,0,0.999751,0,0)">
		<path vector-effect="none" class="st0" d="M-0.5-0.5h842.9v596.4H-0.5V-0.5"/>
	</g>
	<g transform="matrix(0.999751,0,0,0.999751,0,0)">
	</g>
	<g transform="matrix(11.8081,0,0,11.8081,0,0)">
	</g>
	<g transform="matrix(11.8081,0,0,11.8081,0,0)">
	</g>
	<g transform="matrix(11.8081,0,0,11.8081,0,0)">
	</g>
	<g transform="matrix(11.8081,0,0,11.8081,0,0)">
	</g>
	<g transform="matrix(11.8081,0,0,11.8081,0,0)">
	</g>
	<g transform="matrix(1,0,0,1,0,0)">
		
			<image style="overflow:visible;enable-background:new    ;" width="3507" height="2480" xlink:href="8AD681562558FFC1.png"  transform="matrix(0.24 0 0 0.24 6.408691e-04 0)">
		</image>
	</g>
	<g transform="matrix(11.8081,0,0,11.8081,0,0)">
	</g>
	<g transform="matrix(11.8081,0,0,11.8081,0,0)">
	</g>
	<g transform="matrix(11.8081,0,0,11.8081,0,0)">
	</g>
	<g transform="matrix(11.8081,0,0,11.8081,0,0)">
	</g>
	<g transform="matrix(1,0,0,1,0,0)">
	</g>
</g>
<path d="M700.2,557.8V557c0-0.1,0-0.2,0.1-0.3c0.1-0.1,0.2-0.1,0.3-0.1h7.2v-3.3c0-0.1,0-0.2,0.1-0.3c0.1-0.1,0.2-0.1,0.3-0.1h0.7
	c0.1,0,0.2,0,0.3,0.1c0.1,0.1,0.1,0.2,0.1,0.3v4.5c0,0.1,0,0.2-0.1,0.3c-0.1,0.1-0.2,0.1-0.3,0.1h-8.4c-0.1,0-0.2,0-0.3-0.1
	C700.1,558,700.2,557.9,700.2,557.8z"/>
<path d="M702.6,545.3h4.3c0.7,0,1.3,0.3,1.8,0.8s0.8,1.2,0.8,1.9c0,0.8-0.3,1.4-0.8,1.9s-1.1,0.8-1.8,0.8h-4.3
	c-0.7,0-1.3-0.3-1.8-0.8s-0.8-1.2-0.8-1.9c0-0.8,0.2-1.4,0.8-1.9C701.3,545.5,701.9,545.3,702.6,545.3z M707,546.8h-4.4
	c-0.3,0-0.5,0.1-0.7,0.3c-0.2,0.2-0.3,0.5-0.3,0.8c0,0.3,0.1,0.6,0.3,0.8c0.2,0.2,0.4,0.3,0.7,0.3h4.4c0.3,0,0.5-0.1,0.7-0.3
	s0.3-0.5,0.3-0.8c0-0.3-0.1-0.6-0.3-0.8C707.5,546.9,707.2,546.8,707,546.8z"/>
<path d="M704.6,539.3l3.1-0.5v-0.2l-3.7-0.2h-3.4c-0.1,0-0.2,0-0.3-0.1c-0.1-0.1-0.1-0.2-0.1-0.3v-0.7c0-0.1,0-0.2,0.1-0.3
	c0.1-0.1,0.2-0.1,0.3-0.1h3.2c0.1,0,0.3,0,0.5,0l4.6,0.4c0.1,0,0.2,0.1,0.3,0.1c0.1,0,0.1,0.2,0.1,0.3v1.3c0,0.1,0,0.2-0.1,0.3
	c-0.1,0.1-0.2,0.1-0.3,0.1l-3.4,0.5v0.2l3.4,0.5c0.1,0,0.2,0.1,0.3,0.1c0.1,0.1,0.1,0.2,0.1,0.3v1.3c0,0.1,0,0.2-0.1,0.3
	c-0.1,0.1-0.2,0.1-0.3,0.1l-4.6,0.4c-0.3,0-0.4,0-0.5,0h-3.3c-0.1,0-0.2,0-0.3-0.1c-0.1-0.1-0.1-0.2-0.1-0.3V542
	c0-0.1,0-0.2,0.1-0.3c0.1-0.1,0.2-0.1,0.3-0.1h3.4l3.7-0.2v-0.2l-3.1-0.5c-0.3,0-0.4-0.2-0.4-0.4v-0.9
	C704.2,539.5,704.3,539.3,704.6,539.3z"/>
<path class="st1" d="M700.2,557.8V557c0-0.1,0-0.2,0.1-0.3c0.1-0.1,0.2-0.1,0.3-0.1h7.2v-3.3c0-0.1,0-0.2,0.1-0.3
	c0.1-0.1,0.2-0.1,0.3-0.1h0.7c0.1,0,0.2,0,0.3,0.1c0.1,0.1,0.1,0.2,0.1,0.3v4.5c0,0.1,0,0.2-0.1,0.3c-0.1,0.1-0.2,0.1-0.3,0.1h-8.4
	c-0.1,0-0.2,0-0.3-0.1C700.1,558,700.2,557.9,700.2,557.8z"/>
<path class="st1" d="M702.6,545.3h4.3c0.7,0,1.3,0.3,1.8,0.8s0.8,1.2,0.8,1.9c0,0.8-0.3,1.4-0.8,1.9s-1.1,0.8-1.8,0.8h-4.3
	c-0.7,0-1.3-0.3-1.8-0.8s-0.8-1.2-0.8-1.9c0-0.8,0.2-1.4,0.8-1.9C701.3,545.5,701.9,545.3,702.6,545.3z M707,546.8h-4.4
	c-0.3,0-0.5,0.1-0.7,0.3c-0.2,0.2-0.3,0.5-0.3,0.8c0,0.3,0.1,0.6,0.3,0.8c0.2,0.2,0.4,0.3,0.7,0.3h4.4c0.3,0,0.5-0.1,0.7-0.3
	s0.3-0.5,0.3-0.8c0-0.3-0.1-0.6-0.3-0.8C707.5,546.9,707.2,546.8,707,546.8z"/>
<path class="st1" d="M704.6,539.3l3.1-0.5v-0.2l-3.7-0.2h-3.4c-0.1,0-0.2,0-0.3-0.1c-0.1-0.1-0.1-0.2-0.1-0.3v-0.7
	c0-0.1,0-0.2,0.1-0.3c0.1-0.1,0.2-0.1,0.3-0.1h3.2c0.1,0,0.3,0,0.5,0l4.6,0.4c0.1,0,0.2,0.1,0.3,0.1c0.1,0,0.1,0.2,0.1,0.3v1.3
	c0,0.1,0,0.2-0.1,0.3c-0.1,0.1-0.2,0.1-0.3,0.1l-3.4,0.5v0.2l3.4,0.5c0.1,0,0.2,0.1,0.3,0.1c0.1,0.1,0.1,0.2,0.1,0.3v1.3
	c0,0.1,0,0.2-0.1,0.3c-0.1,0.1-0.2,0.1-0.3,0.1l-4.6,0.4c-0.3,0-0.4,0-0.5,0h-3.3c-0.1,0-0.2,0-0.3-0.1c-0.1-0.1-0.1-0.2-0.1-0.3
	V542c0-0.1,0-0.2,0.1-0.3c0.1-0.1,0.2-0.1,0.3-0.1h3.4l3.7-0.2v-0.2l-3.1-0.5c-0.3,0-0.4-0.2-0.4-0.4v-0.9
	C704.2,539.5,704.3,539.3,704.6,539.3z"/>
<path class="st2" d="M700.2,557.8V557c0-0.1,0-0.2,0.1-0.3c0.1-0.1,0.2-0.1,0.3-0.1h7.2v-3.3c0-0.1,0-0.2,0.1-0.3
	c0.1-0.1,0.2-0.1,0.3-0.1h0.7c0.1,0,0.2,0,0.3,0.1c0.1,0.1,0.1,0.2,0.1,0.3v4.5c0,0.1,0,0.2-0.1,0.3c-0.1,0.1-0.2,0.1-0.3,0.1h-8.4
	c-0.1,0-0.2,0-0.3-0.1C700.1,558,700.2,557.9,700.2,557.8z"/>
<path class="st2" d="M702.6,545.3h4.3c0.7,0,1.3,0.3,1.8,0.8s0.8,1.2,0.8,1.9c0,0.8-0.3,1.4-0.8,1.9s-1.1,0.8-1.8,0.8h-4.3
	c-0.7,0-1.3-0.3-1.8-0.8s-0.8-1.2-0.8-1.9c0-0.8,0.2-1.4,0.8-1.9C701.3,545.5,701.9,545.3,702.6,545.3z M707,546.8h-4.4
	c-0.3,0-0.5,0.1-0.7,0.3c-0.2,0.2-0.3,0.5-0.3,0.8c0,0.3,0.1,0.6,0.3,0.8c0.2,0.2,0.4,0.3,0.7,0.3h4.4c0.3,0,0.5-0.1,0.7-0.3
	s0.3-0.5,0.3-0.8c0-0.3-0.1-0.6-0.3-0.8C707.5,546.9,707.2,546.8,707,546.8z"/>
<path class="st2" d="M704.6,539.3l3.1-0.5v-0.2l-3.7-0.2h-3.4c-0.1,0-0.2,0-0.3-0.1c-0.1-0.1-0.1-0.2-0.1-0.3v-0.7
	c0-0.1,0-0.2,0.1-0.3c0.1-0.1,0.2-0.1,0.3-0.1h3.2c0.1,0,0.3,0,0.5,0l4.6,0.4c0.1,0,0.2,0.1,0.3,0.1c0.1,0,0.1,0.2,0.1,0.3v1.3
	c0,0.1,0,0.2-0.1,0.3c-0.1,0.1-0.2,0.1-0.3,0.1l-3.4,0.5v0.2l3.4,0.5c0.1,0,0.2,0.1,0.3,0.1c0.1,0.1,0.1,0.2,0.1,0.3v1.3
	c0,0.1,0,0.2-0.1,0.3c-0.1,0.1-0.2,0.1-0.3,0.1l-4.6,0.4c-0.3,0-0.4,0-0.5,0h-3.3c-0.1,0-0.2,0-0.3-0.1c-0.1-0.1-0.1-0.2-0.1-0.3
	V542c0-0.1,0-0.2,0.1-0.3c0.1-0.1,0.2-0.1,0.3-0.1h3.4l3.7-0.2v-0.2l-3.1-0.5c-0.3,0-0.4-0.2-0.4-0.4v-0.9
	C704.2,539.5,704.3,539.3,704.6,539.3z"/>
<path d="M700.6,480.5h8.4c0.1,0,0.2,0,0.3,0.1s0.1,0.2,0.1,0.3v0.8c0,0.1,0,0.2-0.1,0.3s-0.2,0.1-0.3,0.1h-3.6v2.2h3.6
	c0.1,0,0.2,0,0.3,0.1c0.1,0.1,0.1,0.2,0.1,0.3v0.8c0,0.1,0,0.2-0.1,0.3s-0.2,0.1-0.3,0.1h-8.4c-0.1,0-0.2,0-0.3-0.1
	s-0.1-0.2-0.1-0.3v-0.8c0-0.1,0-0.2,0.1-0.3c0.1-0.1,0.2-0.1,0.3-0.1h3.2v-2.2h-3.2c-0.1,0-0.2,0-0.3-0.1c-0.1-0.1-0.1-0.2-0.1-0.3
	v-0.8c0-0.1,0-0.2,0.1-0.3S700.4,480.5,700.6,480.5z"/>
<path d="M708.1,472.7h0.9c0.2,0,0.3,0.1,0.3,0.3v4.6c0,0.1,0,0.2-0.1,0.2c0,0.1-0.1,0.1-0.2,0.1h-0.9c-0.1,0-0.2,0-0.2-0.1
	c-0.1-0.1-0.1-0.1-0.1-0.2v-1.5h-6.1v1.5c0,0.1,0,0.2-0.1,0.2c-0.1,0.1-0.2,0.1-0.2,0.1h-0.9c-0.1,0-0.2,0-0.2-0.1
	c0-0.1-0.1-0.1-0.1-0.2V473c0-0.2,0.1-0.3,0.3-0.3h0.9c0.2,0,0.3,0.1,0.3,0.3v1.5h6.1V473C707.8,472.8,707.9,472.7,708.1,472.7z"/>
<path d="M704.4,467.1v-2c0-0.1,0-0.2,0.1-0.3c0.1-0.1,0.2-0.1,0.3-0.1h2.1c0.7,0,1.3,0.3,1.8,0.8s0.8,1.2,0.8,1.9
	c0,0.7-0.3,1.4-0.8,1.9s-1.1,0.8-1.8,0.8h-4.3c-0.7,0-1.3-0.3-1.8-0.8s-0.8-1.2-0.8-1.9c0-0.5,0.1-1,0.4-1.4
	c0.3-0.4,0.6-0.7,0.9-0.9s0.7-0.3,1-0.3c0.1,0,0.2,0,0.3,0.1c0.1,0.1,0.1,0.2,0.1,0.3v0.8c0,0.2-0.1,0.4-0.4,0.4
	c-0.2,0-0.4,0.1-0.6,0.3c-0.2,0.2-0.3,0.4-0.3,0.7c0,0.3,0.1,0.5,0.3,0.8c0.2,0.2,0.4,0.3,0.7,0.3h4.4c0.3,0,0.5-0.1,0.7-0.3
	c0.2-0.2,0.3-0.5,0.3-0.8c0-0.3-0.1-0.5-0.3-0.8c-0.2-0.2-0.4-0.4-0.7-0.4h-1.1v0.8c0,0.1,0,0.2-0.1,0.2c-0.1,0.1-0.1,0.1-0.2,0.1
	h-0.8c-0.1,0-0.2,0-0.2-0.1C704.4,467.3,704.4,467.2,704.4,467.1z"/>
<path d="M700.6,457h8.4c0.1,0,0.2,0,0.3,0.1s0.1,0.2,0.1,0.3v0.8c0,0.1,0,0.2-0.1,0.3s-0.2,0.1-0.3,0.1h-3.6v2.2h3.6
	c0.1,0,0.2,0,0.3,0.1s0.1,0.2,0.1,0.3v0.7c0,0.1,0,0.2-0.1,0.3c-0.1,0.1-0.2,0.1-0.3,0.1h-8.4c-0.1,0-0.2,0-0.3-0.1
	c-0.1-0.1-0.1-0.2-0.1-0.3v-0.8c0-0.1,0-0.2,0.1-0.3c0.1-0.1,0.2-0.1,0.3-0.1h3.2v-2.2h-3.2c-0.1,0-0.2,0-0.3-0.1
	c-0.1-0.1-0.1-0.2-0.1-0.3v-0.8c0-0.1,0-0.2,0.1-0.3C700.4,456.9,700.4,457,700.6,457z"/>
<path class="st1" d="M700.6,480.5h8.4c0.1,0,0.2,0,0.3,0.1s0.1,0.2,0.1,0.3v0.8c0,0.1,0,0.2-0.1,0.3s-0.2,0.1-0.3,0.1h-3.6v2.2h3.6
	c0.1,0,0.2,0,0.3,0.1c0.1,0.1,0.1,0.2,0.1,0.3v0.8c0,0.1,0,0.2-0.1,0.3s-0.2,0.1-0.3,0.1h-8.4c-0.1,0-0.2,0-0.3-0.1
	s-0.1-0.2-0.1-0.3v-0.8c0-0.1,0-0.2,0.1-0.3c0.1-0.1,0.2-0.1,0.3-0.1h3.2v-2.2h-3.2c-0.1,0-0.2,0-0.3-0.1c-0.1-0.1-0.1-0.2-0.1-0.3
	v-0.8c0-0.1,0-0.2,0.1-0.3S700.4,480.5,700.6,480.5z"/>
<path class="st1" d="M708.1,472.7h0.9c0.2,0,0.3,0.1,0.3,0.3v4.6c0,0.1,0,0.2-0.1,0.2c0,0.1-0.1,0.1-0.2,0.1h-0.9
	c-0.1,0-0.2,0-0.2-0.1c-0.1-0.1-0.1-0.1-0.1-0.2v-1.5h-6.1v1.5c0,0.1,0,0.2-0.1,0.2c-0.1,0.1-0.2,0.1-0.2,0.1h-0.9
	c-0.1,0-0.2,0-0.2-0.1c0-0.1-0.1-0.1-0.1-0.2V473c0-0.2,0.1-0.3,0.3-0.3h0.9c0.2,0,0.3,0.1,0.3,0.3v1.5h6.1V473
	C707.8,472.8,707.9,472.7,708.1,472.7z"/>
<path class="st1" d="M704.4,467.1v-2c0-0.1,0-0.2,0.1-0.3c0.1-0.1,0.2-0.1,0.3-0.1h2.1c0.7,0,1.3,0.3,1.8,0.8s0.8,1.2,0.8,1.9
	c0,0.7-0.3,1.4-0.8,1.9s-1.1,0.8-1.8,0.8h-4.3c-0.7,0-1.3-0.3-1.8-0.8s-0.8-1.2-0.8-1.9c0-0.5,0.1-1,0.4-1.4
	c0.3-0.4,0.6-0.7,0.9-0.9s0.7-0.3,1-0.3c0.1,0,0.2,0,0.3,0.1c0.1,0.1,0.1,0.2,0.1,0.3v0.8c0,0.2-0.1,0.4-0.4,0.4
	c-0.2,0-0.4,0.1-0.6,0.3c-0.2,0.2-0.3,0.4-0.3,0.7c0,0.3,0.1,0.5,0.3,0.8c0.2,0.2,0.4,0.3,0.7,0.3h4.4c0.3,0,0.5-0.1,0.7-0.3
	c0.2-0.2,0.3-0.5,0.3-0.8c0-0.3-0.1-0.5-0.3-0.8c-0.2-0.2-0.4-0.4-0.7-0.4h-1.1v0.8c0,0.1,0,0.2-0.1,0.2c-0.1,0.1-0.1,0.1-0.2,0.1
	h-0.8c-0.1,0-0.2,0-0.2-0.1C704.4,467.3,704.4,467.2,704.4,467.1z"/>
<path class="st1" d="M700.6,457h8.4c0.1,0,0.2,0,0.3,0.1s0.1,0.2,0.1,0.3v0.8c0,0.1,0,0.2-0.1,0.3s-0.2,0.1-0.3,0.1h-3.6v2.2h3.6
	c0.1,0,0.2,0,0.3,0.1s0.1,0.2,0.1,0.3v0.7c0,0.1,0,0.2-0.1,0.3c-0.1,0.1-0.2,0.1-0.3,0.1h-8.4c-0.1,0-0.2,0-0.3-0.1
	c-0.1-0.1-0.1-0.2-0.1-0.3v-0.8c0-0.1,0-0.2,0.1-0.3c0.1-0.1,0.2-0.1,0.3-0.1h3.2v-2.2h-3.2c-0.1,0-0.2,0-0.3-0.1
	c-0.1-0.1-0.1-0.2-0.1-0.3v-0.8c0-0.1,0-0.2,0.1-0.3C700.4,456.9,700.4,457,700.6,457z"/>
<path class="st2" d="M700.6,480.5h8.4c0.1,0,0.2,0,0.3,0.1s0.1,0.2,0.1,0.3v0.8c0,0.1,0,0.2-0.1,0.3s-0.2,0.1-0.3,0.1h-3.6v2.2h3.6
	c0.1,0,0.2,0,0.3,0.1c0.1,0.1,0.1,0.2,0.1,0.3v0.8c0,0.1,0,0.2-0.1,0.3s-0.2,0.1-0.3,0.1h-8.4c-0.1,0-0.2,0-0.3-0.1
	s-0.1-0.2-0.1-0.3v-0.8c0-0.1,0-0.2,0.1-0.3c0.1-0.1,0.2-0.1,0.3-0.1h3.2v-2.2h-3.2c-0.1,0-0.2,0-0.3-0.1c-0.1-0.1-0.1-0.2-0.1-0.3
	v-0.8c0-0.1,0-0.2,0.1-0.3S700.4,480.5,700.6,480.5z"/>
<path class="st2" d="M708.1,472.7h0.9c0.2,0,0.3,0.1,0.3,0.3v4.6c0,0.1,0,0.2-0.1,0.2c0,0.1-0.1,0.1-0.2,0.1h-0.9
	c-0.1,0-0.2,0-0.2-0.1c-0.1-0.1-0.1-0.1-0.1-0.2v-1.5h-6.1v1.5c0,0.1,0,0.2-0.1,0.2c-0.1,0.1-0.2,0.1-0.2,0.1h-0.9
	c-0.1,0-0.2,0-0.2-0.1c0-0.1-0.1-0.1-0.1-0.2V473c0-0.2,0.1-0.3,0.3-0.3h0.9c0.2,0,0.3,0.1,0.3,0.3v1.5h6.1V473
	C707.8,472.8,707.9,472.7,708.1,472.7z"/>
<path class="st2" d="M704.4,467.1v-2c0-0.1,0-0.2,0.1-0.3c0.1-0.1,0.2-0.1,0.3-0.1h2.1c0.7,0,1.3,0.3,1.8,0.8s0.8,1.2,0.8,1.9
	c0,0.7-0.3,1.4-0.8,1.9s-1.1,0.8-1.8,0.8h-4.3c-0.7,0-1.3-0.3-1.8-0.8s-0.8-1.2-0.8-1.9c0-0.5,0.1-1,0.4-1.4
	c0.3-0.4,0.6-0.7,0.9-0.9s0.7-0.3,1-0.3c0.1,0,0.2,0,0.3,0.1c0.1,0.1,0.1,0.2,0.1,0.3v0.8c0,0.2-0.1,0.4-0.4,0.4
	c-0.2,0-0.4,0.1-0.6,0.3c-0.2,0.2-0.3,0.4-0.3,0.7c0,0.3,0.1,0.5,0.3,0.8c0.2,0.2,0.4,0.3,0.7,0.3h4.4c0.3,0,0.5-0.1,0.7-0.3
	c0.2-0.2,0.3-0.5,0.3-0.8c0-0.3-0.1-0.5-0.3-0.8c-0.2-0.2-0.4-0.4-0.7-0.4h-1.1v0.8c0,0.1,0,0.2-0.1,0.2c-0.1,0.1-0.1,0.1-0.2,0.1
	h-0.8c-0.1,0-0.2,0-0.2-0.1C704.4,467.3,704.4,467.2,704.4,467.1z"/>
<path class="st2" d="M700.6,457h8.4c0.1,0,0.2,0,0.3,0.1s0.1,0.2,0.1,0.3v0.8c0,0.1,0,0.2-0.1,0.3s-0.2,0.1-0.3,0.1h-3.6v2.2h3.6
	c0.1,0,0.2,0,0.3,0.1s0.1,0.2,0.1,0.3v0.7c0,0.1,0,0.2-0.1,0.3c-0.1,0.1-0.2,0.1-0.3,0.1h-8.4c-0.1,0-0.2,0-0.3-0.1
	c-0.1-0.1-0.1-0.2-0.1-0.3v-0.8c0-0.1,0-0.2,0.1-0.3c0.1-0.1,0.2-0.1,0.3-0.1h3.2v-2.2h-3.2c-0.1,0-0.2,0-0.3-0.1
	c-0.1-0.1-0.1-0.2-0.1-0.3v-0.8c0-0.1,0-0.2,0.1-0.3C700.4,456.9,700.4,457,700.6,457z"/>
<rect x="718" y="450.8" class="st3" width="36.3" height="36.3"/>
<rect x="754.3" y="450.8" class="st4" width="36.3" height="36.3"/>
<rect x="790.5" y="450.8" class="st5" width="36.3" height="36.3"/>
<rect x="718" y="487" class="st6" width="36.3" height="36.3"/>
<rect x="754.3" y="487" class="st7" width="36.3" height="36.3"/>
<rect x="790.5" y="487" class="st8" width="36.3" height="36.3"/>
<rect x="718" y="523.3" class="st9" width="36.3" height="36.3"/>
<rect x="754.3" y="523.3" class="st10" width="36.3" height="36.3"/>
<rect x="790.5" y="523.3" class="st11" width="36.3" height="36.3"/>
<rect x="718" y="450.8" class="st3" width="36.3" height="36.3"/>
<line class="st12" x1="687.2" y1="481.3" x2="687.2" y2="454.6"/>
<polygon class="st13" points="691.3,457.9 690.5,458.6 687.2,455 683.8,458.6 683.1,457.9 687.2,453.5 "/>
<line class="st14" x1="704.7" y1="529.9" x2="704.7" y2="493.9"/>
<polygon class="st2" points="708.8,497.3 708,497.9 704.7,494.3 701.3,497.9 700.6,497.3 704.7,492.9 "/>
<text transform="matrix(6.123234e-17 -1 1 6.123234e-17 690.2178 553.3853)" class="st15 st16">Illiteracy</text>
</svg>
