<?xml version="1.0" encoding="utf-8"?>
<!-- Generator: Adobe Illustrator 27.2.0, SVG Export Plug-In . SVG Version: 6.00 Build 0)  -->
<svg version="1.1" id="Layer_1" xmlns:cc="http://creativecommons.org/ns#"
	 xmlns="http://www.w3.org/2000/svg" xmlns:xlink="http://www.w3.org/1999/xlink" x="0px" y="0px" viewBox="0 0 125 125"
	 style="enable-background:new 0 0 125 125;" xml:space="preserve">
<style type="text/css">
	.st0{fill-rule:evenodd;clip-rule:evenodd;fill:#FFFFFF;}
	.st1{font-family:'ArialMT';}
	.st2{font-size:11.9025px;}
	
		.st3{fill-rule:evenodd;clip-rule:evenodd;fill:#F5F5F5;stroke:#232323;stroke-width:0.7368;stroke-linecap:square;stroke-linejoin:bevel;stroke-miterlimit:10;}
	
		.st4{fill-rule:evenodd;clip-rule:evenodd;fill:#DFB0D6;stroke:#232323;stroke-width:0.7368;stroke-linecap:square;stroke-linejoin:bevel;stroke-miterlimit:10;}
	
		.st5{fill-rule:evenodd;clip-rule:evenodd;fill:#BE64AC;stroke:#232323;stroke-width:0.7368;stroke-linecap:square;stroke-linejoin:bevel;stroke-miterlimit:10;}
</style>
<g>
	<g transform="matrix(1,0,0,1,0,0)">
	</g>
	<g transform="matrix(1,0,0,1,0,0)">
	</g>
	<g transform="matrix(11.8081,0,0,11.8081,0,0)">
	</g>
	<g transform="matrix(0.999751,0,0,0.999751,0,0)">
	</g>
	<g transform="matrix(0.999751,0,0,0.999751,0,0)">
		<path vector-effect="none" class="st0" d="M0,0h842.9v596.4H0V0"/>
	</g>
	<g transform="matrix(0.999751,0,0,0.999751,0,0)">
	</g>
	<g transform="matrix(11.8081,0,0,11.8081,0,0)">
	</g>
	<g transform="matrix(11.8081,0,0,11.8081,0,0)">
	</g>
	<g transform="matrix(11.8081,0,0,11.8081,0,0)">
	</g>
	<g transform="matrix(11.8081,0,0,11.8081,0,0)">
	</g>
	<g transform="matrix(11.8081,0,0,11.8081,0,0)">
	</g>
	<g transform="matrix(11.8081,0,0,11.8081,0,0)">
	</g>
	<g transform="matrix(11.8081,0,0,11.8081,0,0)">
	</g>
	<g transform="matrix(11.8081,0,0,11.8081,0,0)">
		<path vector-effect="none" class="st0" d="M0,0h6.5v7.5H0V0"/>
	</g>
	<g transform="matrix(11.8081,0,0,11.8081,0,0)">
	</g>
	<g transform="matrix(0.999751,0,0,0.999751,0,0)">
	</g>
	<g transform="matrix(11.8081,0,0,11.8081,0,0)">
	</g>
	<g transform="matrix(1.18081,0,0,1.18081,0,0)">
		<text transform="matrix(0.8469 0 0 0.8469 5.2068 23.349)" class="st1 st2">dropout</text>
	</g>
	<g transform="matrix(11.8081,0,0,11.8081,0,0)">
	</g>
	<g transform="matrix(0.999751,0,0,0.999751,23.6162,142.398)">
		<path vector-effect="none" class="st3" d="M-17.5-107.8H2.4v11.3h-19.9V-107.8"/>
	</g>
	<g transform="matrix(11.8081,0,0,11.8081,0,0)">
	</g>
	<g transform="matrix(1.18081,0,0,1.18081,0,0)">
		<text transform="matrix(0.8469 0 0 0.8469 26.8062 37.8162)" class="st1 st2">20 - 30</text>
	</g>
	<g transform="matrix(11.8081,0,0,11.8081,0,0)">
	</g>
	<g transform="matrix(0.999751,0,0,0.999751,23.6162,219.151)">
		<path vector-effect="none" class="st4" d="M-17.5-166.1H2.4v11.3h-19.9V-166.1"/>
	</g>
	<g transform="matrix(11.8081,0,0,11.8081,0,0)">
	</g>
	<g transform="matrix(1.18081,0,0,1.18081,0,0)">
		<text transform="matrix(0.8469 0 0 0.8469 26.8062 53.4164)" class="st1 st2">30 - 40</text>
	</g>
	<g transform="matrix(11.8081,0,0,11.8081,0,0)">
	</g>
	<g transform="matrix(0.999751,0,0,0.999751,23.6162,295.903)">
		<path vector-effect="none" class="st5" d="M-17.5-224.5H2.4v11.3h-19.9V-224.5"/>
	</g>
	<g transform="matrix(11.8081,0,0,11.8081,0,0)">
	</g>
	<g transform="matrix(1.18081,0,0,1.18081,0,0)">
		<text transform="matrix(0.8469 0 0 0.8469 26.8062 69.0166)" class="st1 st2">40 - 61</text>
	</g>
	<g transform="matrix(11.8081,0,0,11.8081,0,0)">
	</g>
	<g transform="matrix(0.999751,0,0,0.999751,0,0)">
	</g>
	<g transform="matrix(11.8081,0,0,11.8081,0,0)">
	</g>
	<g transform="matrix(11.8081,0,0,11.8081,0,0)">
	</g>
	<g transform="matrix(11.8081,0,0,11.8081,0,0)">
	</g>
	<g transform="matrix(11.8081,0,0,11.8081,0,0)">
	</g>
	<g transform="matrix(11.8081,0,0,11.8081,0,0)">
	</g>
	<g transform="matrix(1,0,0,1,0,0)">
	</g>
</g>
</svg>
