<?xml version="1.0" encoding="utf-8"?>
<!-- Generator: Adobe Illustrator 27.2.0, SVG Export Plug-In . SVG Version: 6.00 Build 0)  -->
<svg version="1.1" id="Layer_1" xmlns:cc="http://creativecommons.org/ns#"
	 xmlns="http://www.w3.org/2000/svg" xmlns:xlink="http://www.w3.org/1999/xlink" x="0px" y="0px" viewBox="0 0 125 125"
	 style="enable-background:new 0 0 125 125;" xml:space="preserve">
<style type="text/css">
	.st0{fill-rule:evenodd;clip-rule:evenodd;fill:#FFFFFF;}
	.st1{font-family:'ArialMT';}
	.st2{font-size:11.9025px;}
	
		.st3{fill-rule:evenodd;clip-rule:evenodd;fill:#F5F5F5;stroke:#232323;stroke-width:0.7368;stroke-linecap:square;stroke-linejoin:bevel;stroke-miterlimit:10;}
	
		.st4{fill-rule:evenodd;clip-rule:evenodd;fill:#DFB0D6;stroke:#232323;stroke-width:0.7368;stroke-linecap:square;stroke-linejoin:bevel;stroke-miterlimit:10;}
	
		.st5{fill-rule:evenodd;clip-rule:evenodd;fill:#BE64AC;stroke:#232323;stroke-width:0.7368;stroke-linecap:square;stroke-linejoin:bevel;stroke-miterlimit:10;}
	
		.st6{fill-rule:evenodd;clip-rule:evenodd;fill:#ACE4E4;stroke:#232323;stroke-width:0.7368;stroke-linecap:square;stroke-linejoin:bevel;stroke-miterlimit:10;}
	
		.st7{fill-rule:evenodd;clip-rule:evenodd;fill:#5AC8C8;stroke:#232323;stroke-width:0.7368;stroke-linecap:square;stroke-linejoin:bevel;stroke-miterlimit:10;}
</style>
<g>
	<g transform="matrix(1,0,0,1,0,0)">
	</g>
	<g transform="matrix(1,0,0,1,0,0)">
	</g>
	<g transform="matrix(11.8081,0,0,11.8081,0,0)">
	</g>
	<g transform="matrix(0.999751,0,0,0.999751,0,0)">
	</g>
	<g transform="matrix(0.999751,0,0,0.999751,0,0)">
		<path vector-effect="none" class="st0" d="M0-14.4h842.9V582H0V-14.4"/>
	</g>
	<g transform="matrix(0.999751,0,0,0.999751,0,0)">
	</g>
	<g transform="matrix(11.8081,0,0,11.8081,0,0)">
	</g>
	<g transform="matrix(11.8081,0,0,11.8081,0,0)">
	</g>
	<g transform="matrix(11.8081,0,0,11.8081,0,0)">
	</g>
	<g transform="matrix(11.8081,0,0,11.8081,0,0)">
	</g>
	<g transform="matrix(11.8081,0,0,11.8081,0,0)">
	</g>
	<g transform="matrix(11.8081,0,0,11.8081,0,0)">
	</g>
	<g transform="matrix(11.8081,0,0,11.8081,0,0)">
	</g>
	<g transform="matrix(11.8081,0,0,11.8081,0,0)">
		<path vector-effect="none" class="st0" d="M0-1.2h8.3v13.8H0V-1.2"/>
	</g>
	<g transform="matrix(11.8081,0,0,11.8081,0,0)">
	</g>
	<g transform="matrix(0.999751,0,0,0.999751,0,0)">
	</g>
	<g transform="matrix(11.8081,0,0,11.8081,0,0)">
	</g>
	<g transform="matrix(1.18081,0,0,1.18081,0,0)">
		<text transform="matrix(0.8469 0 0 0.8469 5.2068 11.1234)" class="st1 st2">dropout</text>
	</g>
	<g transform="matrix(11.8081,0,0,11.8081,0,0)">
	</g>
	<g transform="matrix(0.999751,0,0,0.999751,23.6162,142.398)">
		<path vector-effect="none" class="st3" d="M-17.5-122.2H2.4v11.3h-19.9V-122.2"/>
	</g>
	<g transform="matrix(11.8081,0,0,11.8081,0,0)">
	</g>
	<g transform="matrix(1.18081,0,0,1.18081,0,0)">
		<text transform="matrix(0.8469 0 0 0.8469 26.8062 25.5906)" class="st1 st2">20 - 30</text>
	</g>
	<g transform="matrix(11.8081,0,0,11.8081,0,0)">
	</g>
	<g transform="matrix(0.999751,0,0,0.999751,23.6162,219.151)">
		<path vector-effect="none" class="st4" d="M-17.5-180.6H2.4v11.3h-19.9V-180.6"/>
	</g>
	<g transform="matrix(11.8081,0,0,11.8081,0,0)">
	</g>
	<g transform="matrix(1.18081,0,0,1.18081,0,0)">
		<text transform="matrix(0.8469 0 0 0.8469 26.8062 41.1908)" class="st1 st2">30 - 40</text>
	</g>
	<g transform="matrix(11.8081,0,0,11.8081,0,0)">
	</g>
	<g transform="matrix(0.999751,0,0,0.999751,23.6162,295.903)">
		<path vector-effect="none" class="st5" d="M-17.5-238.9H2.4v11.3h-19.9V-238.9"/>
	</g>
	<g transform="matrix(11.8081,0,0,11.8081,0,0)">
	</g>
	<g transform="matrix(1.18081,0,0,1.18081,0,0)">
		<text transform="matrix(0.8469 0 0 0.8469 26.8062 56.791)" class="st1 st2">40 - 61</text>
	</g>
	<g transform="matrix(11.8081,0,0,11.8081,0,0)">
	</g>
	<g transform="matrix(1.18081,0,0,1.18081,0,0)">
		<text transform="matrix(0.8469 0 0 0.8469 5.2068 74.8657)" class="st1 st2">illiteracy</text>
	</g>
	<g transform="matrix(11.8081,0,0,11.8081,0,0)">
	</g>
	<g transform="matrix(0.999751,0,0,0.999751,23.6162,456.013)">
		<path vector-effect="none" class="st3" d="M-17.5-360.6H2.4v11.3h-19.9V-360.6"/>
	</g>
	<g transform="matrix(11.8081,0,0,11.8081,0,0)">
	</g>
	<g transform="matrix(1.18081,0,0,1.18081,0,0)">
		<text transform="matrix(0.8469 0 0 0.8469 26.8062 89.3329)" class="st1 st2">0 - 200</text>
	</g>
	<g transform="matrix(11.8081,0,0,11.8081,0,0)">
	</g>
	<g transform="matrix(0.999751,0,0,0.999751,23.6162,532.766)">
		<path vector-effect="none" class="st6" d="M-17.5-419H2.4v11.3h-19.9V-419"/>
	</g>
	<g transform="matrix(11.8081,0,0,11.8081,0,0)">
	</g>
	<g transform="matrix(1.18081,0,0,1.18081,0,0)">
		<text transform="matrix(0.8469 0 0 0.8469 26.8062 104.9331)" class="st1 st2">200 - 900</text>
	</g>
	<g transform="matrix(11.8081,0,0,11.8081,0,0)">
	</g>
	<g transform="matrix(0.999751,0,0,0.999751,23.6162,609.518)">
		<path vector-effect="none" class="st7" d="M-17.5-477.3H2.4v11.3h-19.9V-477.3"/>
	</g>
	<g transform="matrix(11.8081,0,0,11.8081,0,0)">
	</g>
	<g transform="matrix(1.18081,0,0,1.18081,0,0)">
		<text transform="matrix(0.8469 0 0 0.8469 26.8062 120.5334)" class="st1 st2">900 - 2800</text>
	</g>
	<g transform="matrix(11.8081,0,0,11.8081,0,0)">
	</g>
	<g transform="matrix(0.999751,0,0,0.999751,0,0)">
	</g>
	<g transform="matrix(11.8081,0,0,11.8081,0,0)">
	</g>
	<g transform="matrix(11.8081,0,0,11.8081,0,0)">
	</g>
	<g transform="matrix(11.8081,0,0,11.8081,0,0)">
	</g>
	<g transform="matrix(11.8081,0,0,11.8081,0,0)">
	</g>
	<g transform="matrix(11.8081,0,0,11.8081,0,0)">
	</g>
	<g transform="matrix(1,0,0,1,0,0)">
	</g>
</g>
</svg>
