<?xml version="1.0" encoding="utf-8"?>
<!-- Generator: Adobe Illustrator 26.5.0, SVG Export Plug-In . SVG Version: 6.00 Build 0)  -->
<svg version="1.1" id="Layer_1" xmlns="http://www.w3.org/2000/svg" xmlns:xlink="http://www.w3.org/1999/xlink" x="0px" y="0px"
	 viewBox="0 0 575 190.3" style="enable-background:new 0 0 575 190.3;" xml:space="preserve">
<style type="text/css">
	.st0{enable-background:new    ;}
	.st1{fill:none;stroke:#FFFFFF;stroke-width:8;}
	.st2{fill:#222222;}
	.st3{fill:#555555;}
	.st4{fill:none;stroke:#555555;stroke-linecap:round;stroke-miterlimit:10;stroke-dasharray:2,4;}
	.st5{fill:#85C1C1;}
	.st6{opacity:6.000000e-02;fill:#7B9DAD;enable-background:new    ;}
	.st7{opacity:6.000000e-02;fill:#70799B;enable-background:new    ;}
	.st8{fill:#BBD8D8;}
	.st9{opacity:6.000000e-02;fill:#ADB0C2;enable-background:new    ;}
	.st10{opacity:6.000000e-02;fill:#9E88AD;enable-background:new    ;}
	.st11{fill:#EFEFEF;}
	.st12{opacity:6.000000e-02;fill:#DEC3D7;enable-background:new    ;}
	.st13{opacity:6.000000e-02;fill:#CA96C0;enable-background:new    ;}
	.st14{opacity:6.000000e-02;fill:#85C1C1;enable-background:new    ;}
	.st15{opacity:6.000000e-02;fill:#BBD8D8;enable-background:new    ;}
	.st16{fill:#DEC3D7;}
	.st17{fill:#CA96C0;}
	.st18{fill:#70799B;}
	.st19{fill:#ADB0C2;}
	.st20{fill:none;stroke:#222222;stroke-linecap:round;stroke-miterlimit:10;}
</style>
<g>
	<g class="st0">
		<path d="M5.5,144.3h5.4c0.8,0,1.5,0.3,2.1,0.9s0.9,1.3,0.9,2.2v3H2.5v-3c0-0.9,0.3-1.6,0.9-2.2S4.6,144.3,5.5,144.3z M10.9,145.7
			H5.5c-0.5,0-0.9,0.2-1.2,0.5s-0.5,0.8-0.5,1.2v1.6h8.8v-1.6c0-0.5-0.2-0.9-0.5-1.2C11.8,145.9,11.4,145.7,10.9,145.7z"/>
		<path d="M3.8,142H2.5v-1.5h1.3V142z M13.9,141.9H5.7v-1.3h8.2V141.9z"/>
		<path d="M8.1,133.3v1.3c-0.3,0-0.7,0.1-0.9,0.4c-0.3,0.3-0.4,0.6-0.4,0.9c0,0.3,0.1,0.6,0.3,0.9s0.4,0.4,0.7,0.4
			c0.3,0,0.5-0.1,0.7-0.4s0.4-0.6,0.5-1c0.1-0.4,0.3-0.8,0.5-1.1c0.2-0.4,0.5-0.7,0.8-0.9c0.4-0.3,0.9-0.4,1.5-0.4
			c0.6,0,1.1,0.3,1.6,0.8c0.5,0.5,0.7,1.1,0.7,1.8v0.2c0,0.8-0.3,1.4-0.8,1.9c-0.5,0.5-1.1,0.8-1.8,0.8h-0.2v-1.3h0.2
			c0.4,0,0.7-0.1,1-0.4c0.3-0.3,0.4-0.6,0.4-1v-0.1c0-0.4-0.1-0.7-0.3-0.9c-0.2-0.3-0.5-0.4-0.8-0.4c-0.5,0-1,0.4-1.4,1.4
			c-0.1,0.4-0.3,0.8-0.5,1.1c-0.2,0.4-0.4,0.7-0.8,1s-0.7,0.4-1.2,0.4c-0.7,0-1.2-0.2-1.7-0.7c-0.4-0.5-0.6-1.1-0.6-1.9
			c0-0.7,0.3-1.3,0.8-1.8C6.9,133.5,7.5,133.3,8.1,133.3z"/>
		<path d="M6.9,132H5.7v-1.1H3.4v-1.3h2.3V127h1.2v2.7h5c0.3,0,0.5-0.1,0.7-0.3c0.2-0.2,0.3-0.4,0.3-0.7c0-0.3-0.1-0.5-0.3-0.7
			s-0.4-0.3-0.6-0.3h-0.2v-1.3h0.2c0.6,0,1.1,0.2,1.5,0.7c0.4,0.5,0.6,1,0.6,1.6s-0.2,1.1-0.6,1.6c-0.4,0.4-1,0.7-1.6,0.7H6.9V132z"
			/>
		<path d="M13.9,120.8h-0.5c0.4,0.4,0.7,1,0.7,1.8c0,0.7-0.2,1.4-0.7,1.9c-0.5,0.5-1.1,0.8-1.8,0.8c-0.7,0-1.3-0.3-1.8-0.8
			s-0.8-1.1-0.8-1.9l-0.1-1.8H8.3c-0.4,0-0.8,0.1-1.1,0.4c-0.3,0.3-0.5,0.6-0.5,1c0,0.8,0.4,1.3,1.2,1.4v1.3
			c-0.7-0.1-1.3-0.3-1.7-0.8c-0.4-0.5-0.7-1.1-0.7-1.9c0-0.8,0.2-1.4,0.8-1.9c0.5-0.5,1.1-0.7,1.9-0.7h5.7V120.8z M12.5,123.6
			c0.3-0.3,0.4-0.6,0.4-1.1s-0.1-0.8-0.4-1.2c-0.3-0.3-0.6-0.5-0.9-0.5H9.9l0.1,1.8c0,0.4,0.2,0.7,0.5,1c0.3,0.3,0.6,0.4,1,0.4
			S12.2,123.9,12.5,123.6z"/>
		<path d="M13.9,111.5v1.3H8.4c-0.4,0-0.8,0.2-1.2,0.5c-0.3,0.3-0.5,0.7-0.5,1.1c0,0.4,0.2,0.8,0.5,1.2c0.3,0.4,0.7,0.5,1.1,0.5h5.6
			v1.3H5.7v-1.3h0.5c-0.4-0.5-0.7-1.1-0.7-1.8s0.3-1.4,0.8-1.9c0.5-0.5,1.2-0.8,1.9-0.8H13.9z"/>
		<path d="M8.3,108.2h3c0.4,0,0.8-0.2,1.1-0.5c0.3-0.3,0.5-0.7,0.5-1.1c0-0.4-0.2-0.8-0.5-1.1c-0.3-0.3-0.7-0.5-1.2-0.5v-1.3
			c0.8,0,1.5,0.3,2,0.8c0.5,0.5,0.8,1.2,0.8,2.1c0,0.9-0.3,1.6-0.8,2.1c-0.5,0.5-1.1,0.8-1.9,0.8H8.2c-0.7,0-1.4-0.3-1.9-0.8
			c-0.5-0.5-0.8-1.2-0.8-2.1c0-0.8,0.3-1.5,0.8-2s1.2-0.8,2-0.8v1.3c-0.5,0-0.8,0.1-1.1,0.4c-0.3,0.3-0.4,0.7-0.5,1.1
			c0,0.4,0.2,0.8,0.5,1.2C7.5,108.1,7.9,108.2,8.3,108.2z"/>
		<path d="M11.2,97.5v-1.3c0.9,0,1.5,0.3,2.1,0.8c0.5,0.5,0.8,1.2,0.8,2s-0.3,1.5-0.8,2.1s-1.1,0.8-1.9,0.8H8.2
			c-0.7,0-1.4-0.3-1.9-0.8c-0.5-0.5-0.8-1.2-0.8-2c0-0.8,0.3-1.5,0.8-2c0.5-0.5,1.1-0.8,1.9-0.8h2.1v4.4h1c0.4,0,0.8-0.2,1.1-0.5
			c0.3-0.3,0.5-0.7,0.5-1.1c0-0.4-0.2-0.8-0.5-1.1S11.7,97.5,11.2,97.5z M8.3,100.7h0.8v-3.1H8.3c-0.4,0-0.8,0.2-1.1,0.5
			c-0.3,0.3-0.5,0.7-0.5,1.1c0,0.4,0.2,0.8,0.5,1.1C7.5,100.5,7.9,100.7,8.3,100.7z"/>
	</g>
	<g class="st0">
		<path class="st1" d="M5.5,144.3h5.4c0.8,0,1.5,0.3,2.1,0.9s0.9,1.3,0.9,2.2v3H2.5v-3c0-0.9,0.3-1.6,0.9-2.2S4.6,144.3,5.5,144.3z
			 M10.9,145.7H5.5c-0.5,0-0.9,0.2-1.2,0.5s-0.5,0.8-0.5,1.2v1.6h8.8v-1.6c0-0.5-0.2-0.9-0.5-1.2C11.8,145.9,11.4,145.7,10.9,145.7z
			"/>
		<path class="st1" d="M3.8,142H2.5v-1.5h1.3V142z M13.9,141.9H5.7v-1.3h8.2V141.9z"/>
		<path class="st1" d="M8.1,133.3v1.3c-0.3,0-0.7,0.1-0.9,0.4c-0.3,0.3-0.4,0.6-0.4,0.9c0,0.3,0.1,0.6,0.3,0.9s0.4,0.4,0.7,0.4
			c0.3,0,0.5-0.1,0.7-0.4s0.4-0.6,0.5-1c0.1-0.4,0.3-0.8,0.5-1.1c0.2-0.4,0.5-0.7,0.8-0.9c0.4-0.3,0.9-0.4,1.5-0.4
			c0.6,0,1.1,0.3,1.6,0.8c0.5,0.5,0.7,1.1,0.7,1.8v0.2c0,0.8-0.3,1.4-0.8,1.9c-0.5,0.5-1.1,0.8-1.8,0.8h-0.2v-1.3h0.2
			c0.4,0,0.7-0.1,1-0.4c0.3-0.3,0.4-0.6,0.4-1v-0.1c0-0.4-0.1-0.7-0.3-0.9c-0.2-0.3-0.5-0.4-0.8-0.4c-0.5,0-1,0.4-1.4,1.4
			c-0.1,0.4-0.3,0.8-0.5,1.1c-0.2,0.4-0.4,0.7-0.8,1s-0.7,0.4-1.2,0.4c-0.7,0-1.2-0.2-1.7-0.7c-0.4-0.5-0.6-1.1-0.6-1.9
			c0-0.7,0.3-1.3,0.8-1.8C6.9,133.5,7.5,133.3,8.1,133.3z"/>
		<path class="st1" d="M6.9,132H5.7v-1.1H3.4v-1.3h2.3V127h1.2v2.7h5c0.3,0,0.5-0.1,0.7-0.3c0.2-0.2,0.3-0.4,0.3-0.7
			c0-0.3-0.1-0.5-0.3-0.7s-0.4-0.3-0.6-0.3h-0.2v-1.3h0.2c0.6,0,1.1,0.2,1.5,0.7c0.4,0.5,0.6,1,0.6,1.6s-0.2,1.1-0.6,1.6
			c-0.4,0.4-1,0.7-1.6,0.7H6.9V132z"/>
		<path class="st1" d="M13.9,120.8h-0.5c0.4,0.4,0.7,1,0.7,1.8c0,0.7-0.2,1.4-0.7,1.9c-0.5,0.5-1.1,0.8-1.8,0.8
			c-0.7,0-1.3-0.3-1.8-0.8s-0.8-1.1-0.8-1.9l-0.1-1.8H8.3c-0.4,0-0.8,0.1-1.1,0.4c-0.3,0.3-0.5,0.6-0.5,1c0,0.8,0.4,1.3,1.2,1.4v1.3
			c-0.7-0.1-1.3-0.3-1.7-0.8c-0.4-0.5-0.7-1.1-0.7-1.9c0-0.8,0.2-1.4,0.8-1.9c0.5-0.5,1.1-0.7,1.9-0.7h5.7V120.8z M12.5,123.6
			c0.3-0.3,0.4-0.6,0.4-1.1s-0.1-0.8-0.4-1.2c-0.3-0.3-0.6-0.5-0.9-0.5H9.9l0.1,1.8c0,0.4,0.2,0.7,0.5,1c0.3,0.3,0.6,0.4,1,0.4
			S12.2,123.9,12.5,123.6z"/>
		<path class="st1" d="M13.9,111.5v1.3H8.4c-0.4,0-0.8,0.2-1.2,0.5c-0.3,0.3-0.5,0.7-0.5,1.1c0,0.4,0.2,0.8,0.5,1.2
			c0.3,0.4,0.7,0.5,1.1,0.5h5.6v1.3H5.7v-1.3h0.5c-0.4-0.5-0.7-1.1-0.7-1.8s0.3-1.4,0.8-1.9c0.5-0.5,1.2-0.8,1.9-0.8H13.9z"/>
		<path class="st1" d="M8.3,108.2h3c0.4,0,0.8-0.2,1.1-0.5c0.3-0.3,0.5-0.7,0.5-1.1c0-0.4-0.2-0.8-0.5-1.1c-0.3-0.3-0.7-0.5-1.2-0.5
			v-1.3c0.8,0,1.5,0.3,2,0.8c0.5,0.5,0.8,1.2,0.8,2.1c0,0.9-0.3,1.6-0.8,2.1c-0.5,0.5-1.1,0.8-1.9,0.8H8.2c-0.7,0-1.4-0.3-1.9-0.8
			c-0.5-0.5-0.8-1.2-0.8-2.1c0-0.8,0.3-1.5,0.8-2s1.2-0.8,2-0.8v1.3c-0.5,0-0.8,0.1-1.1,0.4c-0.3,0.3-0.4,0.7-0.5,1.1
			c0,0.4,0.2,0.8,0.5,1.2C7.5,108.1,7.9,108.2,8.3,108.2z"/>
		<path class="st1" d="M11.2,97.5v-1.3c0.9,0,1.5,0.3,2.1,0.8c0.5,0.5,0.8,1.2,0.8,2s-0.3,1.5-0.8,2.1s-1.1,0.8-1.9,0.8H8.2
			c-0.7,0-1.4-0.3-1.9-0.8c-0.5-0.5-0.8-1.2-0.8-2c0-0.8,0.3-1.5,0.8-2c0.5-0.5,1.1-0.8,1.9-0.8h2.1v4.4h1c0.4,0,0.8-0.2,1.1-0.5
			c0.3-0.3,0.5-0.7,0.5-1.1c0-0.4-0.2-0.8-0.5-1.1S11.7,97.5,11.2,97.5z M8.3,100.7h0.8v-3.1H8.3c-0.4,0-0.8,0.2-1.1,0.5
			c-0.3,0.3-0.5,0.7-0.5,1.1c0,0.4,0.2,0.8,0.5,1.1C7.5,100.5,7.9,100.7,8.3,100.7z"/>
	</g>
	<g class="st0">
		<path class="st2" d="M5.5,144.3h5.4c0.8,0,1.5,0.3,2.1,0.9s0.9,1.3,0.9,2.2v3H2.5v-3c0-0.9,0.3-1.6,0.9-2.2S4.6,144.3,5.5,144.3z
			 M10.9,145.7H5.5c-0.5,0-0.9,0.2-1.2,0.5s-0.5,0.8-0.5,1.2v1.6h8.8v-1.6c0-0.5-0.2-0.9-0.5-1.2C11.8,145.9,11.4,145.7,10.9,145.7z
			"/>
		<path class="st2" d="M3.8,142H2.5v-1.5h1.3V142z M13.9,141.9H5.7v-1.3h8.2V141.9z"/>
		<path class="st2" d="M8.1,133.3v1.3c-0.3,0-0.7,0.1-0.9,0.4c-0.3,0.3-0.4,0.6-0.4,0.9c0,0.3,0.1,0.6,0.3,0.9s0.4,0.4,0.7,0.4
			c0.3,0,0.5-0.1,0.7-0.4s0.4-0.6,0.5-1c0.1-0.4,0.3-0.8,0.5-1.1c0.2-0.4,0.5-0.7,0.8-0.9c0.4-0.3,0.9-0.4,1.5-0.4
			c0.6,0,1.1,0.3,1.6,0.8c0.5,0.5,0.7,1.1,0.7,1.8v0.2c0,0.8-0.3,1.4-0.8,1.9c-0.5,0.5-1.1,0.8-1.8,0.8h-0.2v-1.3h0.2
			c0.4,0,0.7-0.1,1-0.4c0.3-0.3,0.4-0.6,0.4-1v-0.1c0-0.4-0.1-0.7-0.3-0.9c-0.2-0.3-0.5-0.4-0.8-0.4c-0.5,0-1,0.4-1.4,1.4
			c-0.1,0.4-0.3,0.8-0.5,1.1c-0.2,0.4-0.4,0.7-0.8,1s-0.7,0.4-1.2,0.4c-0.7,0-1.2-0.2-1.7-0.7c-0.4-0.5-0.6-1.1-0.6-1.9
			c0-0.7,0.3-1.3,0.8-1.8C6.9,133.5,7.5,133.3,8.1,133.3z"/>
		<path class="st2" d="M6.9,132H5.7v-1.1H3.4v-1.3h2.3V127h1.2v2.7h5c0.3,0,0.5-0.1,0.7-0.3c0.2-0.2,0.3-0.4,0.3-0.7
			c0-0.3-0.1-0.5-0.3-0.7s-0.4-0.3-0.6-0.3h-0.2v-1.3h0.2c0.6,0,1.1,0.2,1.5,0.7c0.4,0.5,0.6,1,0.6,1.6s-0.2,1.1-0.6,1.6
			c-0.4,0.4-1,0.7-1.6,0.7H6.9V132z"/>
		<path class="st2" d="M13.9,120.8h-0.5c0.4,0.4,0.7,1,0.7,1.8c0,0.7-0.2,1.4-0.7,1.9c-0.5,0.5-1.1,0.8-1.8,0.8
			c-0.7,0-1.3-0.3-1.8-0.8s-0.8-1.1-0.8-1.9l-0.1-1.8H8.3c-0.4,0-0.8,0.1-1.1,0.4c-0.3,0.3-0.5,0.6-0.5,1c0,0.8,0.4,1.3,1.2,1.4v1.3
			c-0.7-0.1-1.3-0.3-1.7-0.8c-0.4-0.5-0.7-1.1-0.7-1.9c0-0.8,0.2-1.4,0.8-1.9c0.5-0.5,1.1-0.7,1.9-0.7h5.7V120.8z M12.5,123.6
			c0.3-0.3,0.4-0.6,0.4-1.1s-0.1-0.8-0.4-1.2c-0.3-0.3-0.6-0.5-0.9-0.5H9.9l0.1,1.8c0,0.4,0.2,0.7,0.5,1c0.3,0.3,0.6,0.4,1,0.4
			S12.2,123.9,12.5,123.6z"/>
		<path class="st2" d="M13.9,111.5v1.3H8.4c-0.4,0-0.8,0.2-1.2,0.5c-0.3,0.3-0.5,0.7-0.5,1.1c0,0.4,0.2,0.8,0.5,1.2
			c0.3,0.4,0.7,0.5,1.1,0.5h5.6v1.3H5.7v-1.3h0.5c-0.4-0.5-0.7-1.1-0.7-1.8s0.3-1.4,0.8-1.9c0.5-0.5,1.2-0.8,1.9-0.8H13.9z"/>
		<path class="st2" d="M8.3,108.2h3c0.4,0,0.8-0.2,1.1-0.5c0.3-0.3,0.5-0.7,0.5-1.1c0-0.4-0.2-0.8-0.5-1.1c-0.3-0.3-0.7-0.5-1.2-0.5
			v-1.3c0.8,0,1.5,0.3,2,0.8c0.5,0.5,0.8,1.2,0.8,2.1c0,0.9-0.3,1.6-0.8,2.1c-0.5,0.5-1.1,0.8-1.9,0.8H8.2c-0.7,0-1.4-0.3-1.9-0.8
			c-0.5-0.5-0.8-1.2-0.8-2.1c0-0.8,0.3-1.5,0.8-2s1.2-0.8,2-0.8v1.3c-0.5,0-0.8,0.1-1.1,0.4c-0.3,0.3-0.4,0.7-0.5,1.1
			c0,0.4,0.2,0.8,0.5,1.2C7.5,108.1,7.9,108.2,8.3,108.2z"/>
		<path class="st2" d="M11.2,97.5v-1.3c0.9,0,1.5,0.3,2.1,0.8c0.5,0.5,0.8,1.2,0.8,2s-0.3,1.5-0.8,2.1s-1.1,0.8-1.9,0.8H8.2
			c-0.7,0-1.4-0.3-1.9-0.8c-0.5-0.5-0.8-1.2-0.8-2c0-0.8,0.3-1.5,0.8-2c0.5-0.5,1.1-0.8,1.9-0.8h2.1v4.4h1c0.4,0,0.8-0.2,1.1-0.5
			c0.3-0.3,0.5-0.7,0.5-1.1c0-0.4-0.2-0.8-0.5-1.1S11.7,97.5,11.2,97.5z M8.3,100.7h0.8v-3.1H8.3c-0.4,0-0.8,0.2-1.1,0.5
			c-0.3,0.3-0.5,0.7-0.5,1.1c0,0.4,0.2,0.8,0.5,1.1C7.5,100.5,7.9,100.7,8.3,100.7z"/>
	</g>
</g>
<g>
	<g class="st0">
		<path d="M265.7,183v0.3c0,0.8-0.3,1.6-0.9,2.1c-0.6,0.6-1.3,0.9-2.2,0.9h-0.1c-0.9,0-1.6-0.3-2.2-0.9c-0.6-0.6-0.9-1.3-0.9-2.1
			v-5.7c0-0.8,0.3-1.6,0.9-2.1c0.6-0.6,1.3-0.9,2.2-0.9h0.1c0.9,0,1.6,0.3,2.2,0.9c0.6,0.6,0.9,1.3,0.9,2.1h-1.4
			c0-0.5-0.2-0.9-0.5-1.2c-0.3-0.3-0.8-0.5-1.3-0.5c-0.5,0-0.9,0.2-1.2,0.5c-0.3,0.3-0.5,0.7-0.5,1.2v5.7c0,0.5,0.2,0.9,0.5,1.2
			c0.3,0.3,0.8,0.5,1.2,0.5c0.5,0,0.9-0.2,1.3-0.5c0.3-0.3,0.5-0.7,0.5-1.2V183H265.7z"/>
		<path d="M273.5,180.5v3.2c0,0.7-0.3,1.4-0.8,1.9c-0.5,0.5-1.2,0.8-2.1,0.8c-0.9,0-1.6-0.3-2.1-0.8c-0.5-0.5-0.8-1.1-0.8-1.9v-3.2
			c0-0.7,0.3-1.4,0.8-1.9s1.2-0.8,2.1-0.8c0.9,0,1.6,0.3,2.1,0.8S273.5,179.8,273.5,180.5z M272.2,183.6v-3c0-0.4-0.2-0.8-0.5-1.1
			s-0.7-0.5-1.1-0.5c-0.4,0-0.8,0.2-1.1,0.5c-0.3,0.3-0.5,0.7-0.5,1.1v3c0,0.4,0.2,0.8,0.5,1.1s0.7,0.5,1.1,0.5
			c0.4,0,0.8-0.2,1.1-0.5C272,184.4,272.2,184,272.2,183.6z"/>
		<path d="M281.4,186.2h-1.3v-5.5c0-0.4-0.2-0.8-0.5-1.2c-0.3-0.3-0.7-0.5-1.1-0.5c-0.4,0-0.8,0.2-1.2,0.5c-0.4,0.3-0.5,0.7-0.5,1.1
			v5.6h-1.3V178h1.3v0.5c0.5-0.4,1.1-0.7,1.8-0.7s1.4,0.3,1.9,0.8c0.5,0.5,0.8,1.2,0.8,1.9V186.2z"/>
		<path d="M285.1,184.3v-0.5c-0.5-0.2-1-0.5-1.3-0.9c-0.4-0.4-0.5-0.9-0.5-1.5v-1.1c0-0.7,0.3-1.3,0.8-1.7s1.1-0.7,1.8-0.7
			c0.5,0,0.9,0.1,1.3,0.3l0.5-0.7c0.3-0.3,0.7-0.5,1.3-0.5v1.2c-0.3,0-0.5,0.1-0.6,0.2L288,179c0.3,0.4,0.5,0.8,0.5,1.4v1.1
			c0,0.6-0.2,1.1-0.6,1.5s-0.8,0.7-1.4,0.9v0.5c0,0.2,0.1,0.3,0.3,0.4l1.4,0.9c0.7,0.5,1.1,1,1.1,1.6c0,0.5-0.2,0.9-0.5,1.2
			c-0.6,0.6-1.5,0.9-2.7,0.8c-0.8,0-1.5-0.2-2.2-0.5c-0.6-0.4-0.9-0.8-0.9-1.5v-0.4h1.3v0.4c0,0.2,0.2,0.4,0.5,0.6
			c0.3,0.2,0.8,0.2,1.3,0.2c0.5,0,1-0.1,1.4-0.2c0.4-0.1,0.5-0.3,0.5-0.6c0-0.2-0.1-0.4-0.3-0.6l-1.8-1.2c-0.2-0.1-0.3-0.3-0.5-0.5
			C285.2,184.8,285.1,184.5,285.1,184.3z M287.2,181.4v-1.1c0-0.4-0.1-0.7-0.4-0.9c-0.3-0.2-0.6-0.4-0.9-0.4s-0.7,0.1-0.9,0.4
			s-0.4,0.6-0.4,0.9v1.1c0,0.4,0.1,0.7,0.4,0.9c0.3,0.2,0.6,0.4,0.9,0.4s0.7-0.1,0.9-0.4C287,182.1,287.2,181.8,287.2,181.4z"/>
		<path d="M295.1,183.5h1.3c0,0.9-0.3,1.5-0.8,2.1s-1.2,0.8-2,0.8s-1.5-0.3-2.1-0.8c-0.5-0.5-0.8-1.1-0.8-1.9v-3.2
			c0-0.7,0.3-1.4,0.8-1.9s1.2-0.8,2-0.8c0.8,0,1.5,0.3,2,0.8c0.5,0.5,0.8,1.1,0.8,1.9v2.1h-4.4v1c0,0.4,0.2,0.8,0.5,1.1
			c0.3,0.3,0.7,0.5,1.1,0.5c0.4,0,0.8-0.2,1.1-0.5S295.1,184,295.1,183.5z M291.9,180.6v0.8h3.1v-0.8c0-0.4-0.2-0.8-0.5-1.1
			s-0.7-0.5-1.1-0.5c-0.4,0-0.8,0.2-1.1,0.5C292.1,179.8,291.9,180.2,291.9,180.6z"/>
		<path d="M303.4,180.4h-1.3c0-0.3-0.1-0.7-0.4-0.9c-0.3-0.3-0.6-0.4-0.9-0.4c-0.3,0-0.6,0.1-0.9,0.3c-0.2,0.2-0.4,0.4-0.4,0.7
			c0,0.3,0.1,0.5,0.4,0.7c0.3,0.2,0.6,0.4,1,0.5c0.4,0.1,0.8,0.3,1.1,0.5c0.4,0.2,0.7,0.5,0.9,0.8s0.4,0.9,0.4,1.5s-0.3,1.1-0.8,1.6
			s-1.1,0.7-1.8,0.7h-0.2c-0.8,0-1.4-0.3-1.9-0.8c-0.5-0.5-0.8-1.1-0.8-1.8v-0.2h1.3v0.2c0,0.4,0.1,0.7,0.4,1c0.3,0.3,0.6,0.4,1,0.4
			h0.1c0.4,0,0.7-0.1,0.9-0.3c0.3-0.2,0.4-0.5,0.4-0.8c0-0.5-0.4-1-1.4-1.4c-0.4-0.1-0.8-0.3-1.1-0.5s-0.7-0.4-1-0.8
			c-0.3-0.3-0.4-0.7-0.4-1.2c0-0.7,0.2-1.2,0.7-1.7c0.5-0.4,1.1-0.6,1.9-0.6c0.7,0,1.3,0.3,1.8,0.8S303.4,179.8,303.4,180.4z"/>
		<path d="M304.6,179.2V178h1.1v-2.3h1.3v2.3h2.7v1.2h-2.7v5c0,0.3,0.1,0.5,0.3,0.7c0.2,0.2,0.4,0.3,0.7,0.3c0.3,0,0.5-0.1,0.7-0.3
			c0.2-0.2,0.3-0.4,0.3-0.6v-0.2h1.3v0.2c0,0.6-0.2,1.1-0.7,1.5c-0.5,0.4-1,0.6-1.6,0.6c-0.6,0-1.1-0.2-1.6-0.6s-0.7-1-0.7-1.6v-4.9
			H304.6z"/>
		<path d="M311.8,176.1v-1.3h1.5v1.3H311.8z M311.9,186.2V178h1.3v8.2H311.9z"/>
		<path d="M321.2,180.5v3.2c0,0.7-0.3,1.4-0.8,1.9c-0.5,0.5-1.2,0.8-2.1,0.8c-0.9,0-1.6-0.3-2.1-0.8c-0.5-0.5-0.8-1.1-0.8-1.9v-3.2
			c0-0.7,0.3-1.4,0.8-1.9s1.2-0.8,2.1-0.8c0.9,0,1.6,0.3,2.1,0.8S321.2,179.8,321.2,180.5z M319.9,183.6v-3c0-0.4-0.2-0.8-0.5-1.1
			s-0.7-0.5-1.1-0.5c-0.4,0-0.8,0.2-1.1,0.5c-0.3,0.3-0.5,0.7-0.5,1.1v3c0,0.4,0.2,0.8,0.5,1.1s0.7,0.5,1.1,0.5
			c0.4,0,0.8-0.2,1.1-0.5C319.7,184.4,319.9,184,319.9,183.6z"/>
		<path d="M329.1,186.2h-1.3v-5.5c0-0.4-0.2-0.8-0.5-1.2c-0.3-0.3-0.7-0.5-1.1-0.5c-0.4,0-0.8,0.2-1.2,0.5c-0.4,0.3-0.5,0.7-0.5,1.1
			v5.6h-1.3V178h1.3v0.5c0.5-0.4,1.1-0.7,1.8-0.7s1.4,0.3,1.9,0.8c0.5,0.5,0.8,1.2,0.8,1.9V186.2z"/>
	</g>
	<g class="st0">
		<path class="st1" d="M265.7,183v0.3c0,0.8-0.3,1.6-0.9,2.1c-0.6,0.6-1.3,0.9-2.2,0.9h-0.1c-0.9,0-1.6-0.3-2.2-0.9
			c-0.6-0.6-0.9-1.3-0.9-2.1v-5.7c0-0.8,0.3-1.6,0.9-2.1c0.6-0.6,1.3-0.9,2.2-0.9h0.1c0.9,0,1.6,0.3,2.2,0.9
			c0.6,0.6,0.9,1.3,0.9,2.1h-1.4c0-0.5-0.2-0.9-0.5-1.2c-0.3-0.3-0.8-0.5-1.3-0.5c-0.5,0-0.9,0.2-1.2,0.5c-0.3,0.3-0.5,0.7-0.5,1.2
			v5.7c0,0.5,0.2,0.9,0.5,1.2c0.3,0.3,0.8,0.5,1.2,0.5c0.5,0,0.9-0.2,1.3-0.5c0.3-0.3,0.5-0.7,0.5-1.2V183H265.7z"/>
		<path class="st1" d="M273.5,180.5v3.2c0,0.7-0.3,1.4-0.8,1.9c-0.5,0.5-1.2,0.8-2.1,0.8c-0.9,0-1.6-0.3-2.1-0.8
			c-0.5-0.5-0.8-1.1-0.8-1.9v-3.2c0-0.7,0.3-1.4,0.8-1.9s1.2-0.8,2.1-0.8c0.9,0,1.6,0.3,2.1,0.8S273.5,179.8,273.5,180.5z
			 M272.2,183.6v-3c0-0.4-0.2-0.8-0.5-1.1s-0.7-0.5-1.1-0.5c-0.4,0-0.8,0.2-1.1,0.5c-0.3,0.3-0.5,0.7-0.5,1.1v3
			c0,0.4,0.2,0.8,0.5,1.1s0.7,0.5,1.1,0.5c0.4,0,0.8-0.2,1.1-0.5C272,184.4,272.2,184,272.2,183.6z"/>
		<path class="st1" d="M281.4,186.2h-1.3v-5.5c0-0.4-0.2-0.8-0.5-1.2c-0.3-0.3-0.7-0.5-1.1-0.5c-0.4,0-0.8,0.2-1.2,0.5
			c-0.4,0.3-0.5,0.7-0.5,1.1v5.6h-1.3V178h1.3v0.5c0.5-0.4,1.1-0.7,1.8-0.7s1.4,0.3,1.9,0.8c0.5,0.5,0.8,1.2,0.8,1.9V186.2z"/>
		<path class="st1" d="M285.1,184.3v-0.5c-0.5-0.2-1-0.5-1.3-0.9c-0.4-0.4-0.5-0.9-0.5-1.5v-1.1c0-0.7,0.3-1.3,0.8-1.7
			s1.1-0.7,1.8-0.7c0.5,0,0.9,0.1,1.3,0.3l0.5-0.7c0.3-0.3,0.7-0.5,1.3-0.5v1.2c-0.3,0-0.5,0.1-0.6,0.2L288,179
			c0.3,0.4,0.5,0.8,0.5,1.4v1.1c0,0.6-0.2,1.1-0.6,1.5s-0.8,0.7-1.4,0.9v0.5c0,0.2,0.1,0.3,0.3,0.4l1.4,0.9c0.7,0.5,1.1,1,1.1,1.6
			c0,0.5-0.2,0.9-0.5,1.2c-0.6,0.6-1.5,0.9-2.7,0.8c-0.8,0-1.5-0.2-2.2-0.5c-0.6-0.4-0.9-0.8-0.9-1.5v-0.4h1.3v0.4
			c0,0.2,0.2,0.4,0.5,0.6c0.3,0.2,0.8,0.2,1.3,0.2c0.5,0,1-0.1,1.4-0.2c0.4-0.1,0.5-0.3,0.5-0.6c0-0.2-0.1-0.4-0.3-0.6l-1.8-1.2
			c-0.2-0.1-0.3-0.3-0.5-0.5C285.2,184.8,285.1,184.5,285.1,184.3z M287.2,181.4v-1.1c0-0.4-0.1-0.7-0.4-0.9
			c-0.3-0.2-0.6-0.4-0.9-0.4s-0.7,0.1-0.9,0.4s-0.4,0.6-0.4,0.9v1.1c0,0.4,0.1,0.7,0.4,0.9c0.3,0.2,0.6,0.4,0.9,0.4s0.7-0.1,0.9-0.4
			C287,182.1,287.2,181.8,287.2,181.4z"/>
		<path class="st1" d="M295.1,183.5h1.3c0,0.9-0.3,1.5-0.8,2.1s-1.2,0.8-2,0.8s-1.5-0.3-2.1-0.8c-0.5-0.5-0.8-1.1-0.8-1.9v-3.2
			c0-0.7,0.3-1.4,0.8-1.9s1.2-0.8,2-0.8c0.8,0,1.5,0.3,2,0.8c0.5,0.5,0.8,1.1,0.8,1.9v2.1h-4.4v1c0,0.4,0.2,0.8,0.5,1.1
			c0.3,0.3,0.7,0.5,1.1,0.5c0.4,0,0.8-0.2,1.1-0.5S295.1,184,295.1,183.5z M291.9,180.6v0.8h3.1v-0.8c0-0.4-0.2-0.8-0.5-1.1
			s-0.7-0.5-1.1-0.5c-0.4,0-0.8,0.2-1.1,0.5C292.1,179.8,291.9,180.2,291.9,180.6z"/>
		<path class="st1" d="M303.4,180.4h-1.3c0-0.3-0.1-0.7-0.4-0.9c-0.3-0.3-0.6-0.4-0.9-0.4c-0.3,0-0.6,0.1-0.9,0.3
			c-0.2,0.2-0.4,0.4-0.4,0.7c0,0.3,0.1,0.5,0.4,0.7c0.3,0.2,0.6,0.4,1,0.5c0.4,0.1,0.8,0.3,1.1,0.5c0.4,0.2,0.7,0.5,0.9,0.8
			s0.4,0.9,0.4,1.5s-0.3,1.1-0.8,1.6s-1.1,0.7-1.8,0.7h-0.2c-0.8,0-1.4-0.3-1.9-0.8c-0.5-0.5-0.8-1.1-0.8-1.8v-0.2h1.3v0.2
			c0,0.4,0.1,0.7,0.4,1c0.3,0.3,0.6,0.4,1,0.4h0.1c0.4,0,0.7-0.1,0.9-0.3c0.3-0.2,0.4-0.5,0.4-0.8c0-0.5-0.4-1-1.4-1.4
			c-0.4-0.1-0.8-0.3-1.1-0.5s-0.7-0.4-1-0.8c-0.3-0.3-0.4-0.7-0.4-1.2c0-0.7,0.2-1.2,0.7-1.7c0.5-0.4,1.1-0.6,1.9-0.6
			c0.7,0,1.3,0.3,1.8,0.8S303.4,179.8,303.4,180.4z"/>
		<path class="st1" d="M304.6,179.2V178h1.1v-2.3h1.3v2.3h2.7v1.2h-2.7v5c0,0.3,0.1,0.5,0.3,0.7c0.2,0.2,0.4,0.3,0.7,0.3
			c0.3,0,0.5-0.1,0.7-0.3c0.2-0.2,0.3-0.4,0.3-0.6v-0.2h1.3v0.2c0,0.6-0.2,1.1-0.7,1.5c-0.5,0.4-1,0.6-1.6,0.6
			c-0.6,0-1.1-0.2-1.6-0.6s-0.7-1-0.7-1.6v-4.9H304.6z"/>
		<path class="st1" d="M311.8,176.1v-1.3h1.5v1.3H311.8z M311.9,186.2V178h1.3v8.2H311.9z"/>
		<path class="st1" d="M321.2,180.5v3.2c0,0.7-0.3,1.4-0.8,1.9c-0.5,0.5-1.2,0.8-2.1,0.8c-0.9,0-1.6-0.3-2.1-0.8
			c-0.5-0.5-0.8-1.1-0.8-1.9v-3.2c0-0.7,0.3-1.4,0.8-1.9s1.2-0.8,2.1-0.8c0.9,0,1.6,0.3,2.1,0.8S321.2,179.8,321.2,180.5z
			 M319.9,183.6v-3c0-0.4-0.2-0.8-0.5-1.1s-0.7-0.5-1.1-0.5c-0.4,0-0.8,0.2-1.1,0.5c-0.3,0.3-0.5,0.7-0.5,1.1v3
			c0,0.4,0.2,0.8,0.5,1.1s0.7,0.5,1.1,0.5c0.4,0,0.8-0.2,1.1-0.5C319.7,184.4,319.9,184,319.9,183.6z"/>
		<path class="st1" d="M329.1,186.2h-1.3v-5.5c0-0.4-0.2-0.8-0.5-1.2c-0.3-0.3-0.7-0.5-1.1-0.5c-0.4,0-0.8,0.2-1.2,0.5
			c-0.4,0.3-0.5,0.7-0.5,1.1v5.6h-1.3V178h1.3v0.5c0.5-0.4,1.1-0.7,1.8-0.7s1.4,0.3,1.9,0.8c0.5,0.5,0.8,1.2,0.8,1.9V186.2z"/>
	</g>
	<g class="st0">
		<path class="st2" d="M265.7,183v0.3c0,0.8-0.3,1.6-0.9,2.1c-0.6,0.6-1.3,0.9-2.2,0.9h-0.1c-0.9,0-1.6-0.3-2.2-0.9
			c-0.6-0.6-0.9-1.3-0.9-2.1v-5.7c0-0.8,0.3-1.6,0.9-2.1c0.6-0.6,1.3-0.9,2.2-0.9h0.1c0.9,0,1.6,0.3,2.2,0.9
			c0.6,0.6,0.9,1.3,0.9,2.1h-1.4c0-0.5-0.2-0.9-0.5-1.2c-0.3-0.3-0.8-0.5-1.3-0.5c-0.5,0-0.9,0.2-1.2,0.5c-0.3,0.3-0.5,0.7-0.5,1.2
			v5.7c0,0.5,0.2,0.9,0.5,1.2c0.3,0.3,0.8,0.5,1.2,0.5c0.5,0,0.9-0.2,1.3-0.5c0.3-0.3,0.5-0.7,0.5-1.2V183H265.7z"/>
		<path class="st2" d="M273.5,180.5v3.2c0,0.7-0.3,1.4-0.8,1.9c-0.5,0.5-1.2,0.8-2.1,0.8c-0.9,0-1.6-0.3-2.1-0.8
			c-0.5-0.5-0.8-1.1-0.8-1.9v-3.2c0-0.7,0.3-1.4,0.8-1.9s1.2-0.8,2.1-0.8c0.9,0,1.6,0.3,2.1,0.8S273.5,179.8,273.5,180.5z
			 M272.2,183.6v-3c0-0.4-0.2-0.8-0.5-1.1s-0.7-0.5-1.1-0.5c-0.4,0-0.8,0.2-1.1,0.5c-0.3,0.3-0.5,0.7-0.5,1.1v3
			c0,0.4,0.2,0.8,0.5,1.1s0.7,0.5,1.1,0.5c0.4,0,0.8-0.2,1.1-0.5C272,184.4,272.2,184,272.2,183.6z"/>
		<path class="st2" d="M281.4,186.2h-1.3v-5.5c0-0.4-0.2-0.8-0.5-1.2c-0.3-0.3-0.7-0.5-1.1-0.5c-0.4,0-0.8,0.2-1.2,0.5
			c-0.4,0.3-0.5,0.7-0.5,1.1v5.6h-1.3V178h1.3v0.5c0.5-0.4,1.1-0.7,1.8-0.7s1.4,0.3,1.9,0.8c0.5,0.5,0.8,1.2,0.8,1.9V186.2z"/>
		<path class="st2" d="M285.1,184.3v-0.5c-0.5-0.2-1-0.5-1.3-0.9c-0.4-0.4-0.5-0.9-0.5-1.5v-1.1c0-0.7,0.3-1.3,0.8-1.7
			s1.1-0.7,1.8-0.7c0.5,0,0.9,0.1,1.3,0.3l0.5-0.7c0.3-0.3,0.7-0.5,1.3-0.5v1.2c-0.3,0-0.5,0.1-0.6,0.2L288,179
			c0.3,0.4,0.5,0.8,0.5,1.4v1.1c0,0.6-0.2,1.1-0.6,1.5s-0.8,0.7-1.4,0.9v0.5c0,0.2,0.1,0.3,0.3,0.4l1.4,0.9c0.7,0.5,1.1,1,1.1,1.6
			c0,0.5-0.2,0.9-0.5,1.2c-0.6,0.6-1.5,0.9-2.7,0.8c-0.8,0-1.5-0.2-2.2-0.5c-0.6-0.4-0.9-0.8-0.9-1.5v-0.4h1.3v0.4
			c0,0.2,0.2,0.4,0.5,0.6c0.3,0.2,0.8,0.2,1.3,0.2c0.5,0,1-0.1,1.4-0.2c0.4-0.1,0.5-0.3,0.5-0.6c0-0.2-0.1-0.4-0.3-0.6l-1.8-1.2
			c-0.2-0.1-0.3-0.3-0.5-0.5C285.2,184.8,285.1,184.5,285.1,184.3z M287.2,181.4v-1.1c0-0.4-0.1-0.7-0.4-0.9
			c-0.3-0.2-0.6-0.4-0.9-0.4s-0.7,0.1-0.9,0.4s-0.4,0.6-0.4,0.9v1.1c0,0.4,0.1,0.7,0.4,0.9c0.3,0.2,0.6,0.4,0.9,0.4s0.7-0.1,0.9-0.4
			C287,182.1,287.2,181.8,287.2,181.4z"/>
		<path class="st2" d="M295.1,183.5h1.3c0,0.9-0.3,1.5-0.8,2.1s-1.2,0.8-2,0.8s-1.5-0.3-2.1-0.8c-0.5-0.5-0.8-1.1-0.8-1.9v-3.2
			c0-0.7,0.3-1.4,0.8-1.9s1.2-0.8,2-0.8c0.8,0,1.5,0.3,2,0.8c0.5,0.5,0.8,1.1,0.8,1.9v2.1h-4.4v1c0,0.4,0.2,0.8,0.5,1.1
			c0.3,0.3,0.7,0.5,1.1,0.5c0.4,0,0.8-0.2,1.1-0.5S295.1,184,295.1,183.5z M291.9,180.6v0.8h3.1v-0.8c0-0.4-0.2-0.8-0.5-1.1
			s-0.7-0.5-1.1-0.5c-0.4,0-0.8,0.2-1.1,0.5C292.1,179.8,291.9,180.2,291.9,180.6z"/>
		<path class="st2" d="M303.4,180.4h-1.3c0-0.3-0.1-0.7-0.4-0.9c-0.3-0.3-0.6-0.4-0.9-0.4c-0.3,0-0.6,0.1-0.9,0.3
			c-0.2,0.2-0.4,0.4-0.4,0.7c0,0.3,0.1,0.5,0.4,0.7c0.3,0.2,0.6,0.4,1,0.5c0.4,0.1,0.8,0.3,1.1,0.5c0.4,0.2,0.7,0.5,0.9,0.8
			s0.4,0.9,0.4,1.5s-0.3,1.1-0.8,1.6s-1.1,0.7-1.8,0.7h-0.2c-0.8,0-1.4-0.3-1.9-0.8c-0.5-0.5-0.8-1.1-0.8-1.8v-0.2h1.3v0.2
			c0,0.4,0.1,0.7,0.4,1c0.3,0.3,0.6,0.4,1,0.4h0.1c0.4,0,0.7-0.1,0.9-0.3c0.3-0.2,0.4-0.5,0.4-0.8c0-0.5-0.4-1-1.4-1.4
			c-0.4-0.1-0.8-0.3-1.1-0.5s-0.7-0.4-1-0.8c-0.3-0.3-0.4-0.7-0.4-1.2c0-0.7,0.2-1.2,0.7-1.7c0.5-0.4,1.1-0.6,1.9-0.6
			c0.7,0,1.3,0.3,1.8,0.8S303.4,179.8,303.4,180.4z"/>
		<path class="st2" d="M304.6,179.2V178h1.1v-2.3h1.3v2.3h2.7v1.2h-2.7v5c0,0.3,0.1,0.5,0.3,0.7c0.2,0.2,0.4,0.3,0.7,0.3
			c0.3,0,0.5-0.1,0.7-0.3c0.2-0.2,0.3-0.4,0.3-0.6v-0.2h1.3v0.2c0,0.6-0.2,1.1-0.7,1.5c-0.5,0.4-1,0.6-1.6,0.6
			c-0.6,0-1.1-0.2-1.6-0.6s-0.7-1-0.7-1.6v-4.9H304.6z"/>
		<path class="st2" d="M311.8,176.1v-1.3h1.5v1.3H311.8z M311.9,186.2V178h1.3v8.2H311.9z"/>
		<path class="st2" d="M321.2,180.5v3.2c0,0.7-0.3,1.4-0.8,1.9c-0.5,0.5-1.2,0.8-2.1,0.8c-0.9,0-1.6-0.3-2.1-0.8
			c-0.5-0.5-0.8-1.1-0.8-1.9v-3.2c0-0.7,0.3-1.4,0.8-1.9s1.2-0.8,2.1-0.8c0.9,0,1.6,0.3,2.1,0.8S321.2,179.8,321.2,180.5z
			 M319.9,183.6v-3c0-0.4-0.2-0.8-0.5-1.1s-0.7-0.5-1.1-0.5c-0.4,0-0.8,0.2-1.1,0.5c-0.3,0.3-0.5,0.7-0.5,1.1v3
			c0,0.4,0.2,0.8,0.5,1.1s0.7,0.5,1.1,0.5c0.4,0,0.8-0.2,1.1-0.5C319.7,184.4,319.9,184,319.9,183.6z"/>
		<path class="st2" d="M329.1,186.2h-1.3v-5.5c0-0.4-0.2-0.8-0.5-1.2c-0.3-0.3-0.7-0.5-1.1-0.5c-0.4,0-0.8,0.2-1.2,0.5
			c-0.4,0.3-0.5,0.7-0.5,1.1v5.6h-1.3V178h1.3v0.5c0.5-0.4,1.1-0.7,1.8-0.7s1.4,0.3,1.9,0.8c0.5,0.5,0.8,1.2,0.8,1.9V186.2z"/>
	</g>
</g>
<g>
	<g class="st0">
		<path d="M26.4,149.9v-0.8c0-0.1,0-0.2,0.1-0.3c0.1-0.1,0.2-0.1,0.3-0.1H34v-3.3c0-0.1,0-0.2,0.1-0.3c0.1-0.1,0.2-0.1,0.3-0.1h0.7
			c0.1,0,0.2,0,0.3,0.1c0.1,0.1,0.1,0.2,0.1,0.3v4.5c0,0.1,0,0.2-0.1,0.3c-0.1,0.1-0.2,0.1-0.3,0.1h-8.4c-0.1,0-0.2,0-0.3-0.1
			S26.4,150,26.4,149.9z"/>
		<path d="M28.8,137.4h4.3c0.7,0,1.3,0.3,1.8,0.8c0.5,0.5,0.8,1.2,0.8,1.9c0,0.8-0.3,1.4-0.8,1.9c-0.5,0.5-1.1,0.8-1.8,0.8h-4.3
			c-0.7,0-1.3-0.3-1.8-0.8c-0.5-0.5-0.8-1.2-0.8-1.9c0-0.8,0.2-1.4,0.8-1.9C27.5,137.6,28.1,137.4,28.8,137.4z M33.2,138.9h-4.4
			c-0.3,0-0.5,0.1-0.7,0.3s-0.3,0.5-0.3,0.8c0,0.3,0.1,0.6,0.3,0.8s0.4,0.3,0.7,0.3h4.4c0.3,0,0.5-0.1,0.7-0.3
			c0.2-0.2,0.3-0.5,0.3-0.8c0-0.3-0.1-0.6-0.3-0.8C33.7,139,33.4,138.9,33.2,138.9z"/>
		<path d="M30.8,131.4l3.1-0.5v-0.2l-3.7-0.2h-3.4c-0.1,0-0.2,0-0.3-0.1c-0.1-0.1-0.1-0.2-0.1-0.3v-0.7c0-0.1,0-0.2,0.1-0.3
			c0.1-0.1,0.2-0.1,0.3-0.1H30c0.1,0,0.3,0,0.5,0l4.6,0.4c0.1,0,0.2,0.1,0.3,0.1s0.1,0.2,0.1,0.3v1.3c0,0.1,0,0.2-0.1,0.3
			c-0.1,0.1-0.2,0.1-0.3,0.1l-3.4,0.5v0.2l3.4,0.5c0.1,0,0.2,0.1,0.3,0.1c0.1,0.1,0.1,0.2,0.1,0.3v1.3c0,0.1,0,0.2-0.1,0.3
			c-0.1,0.1-0.2,0.1-0.3,0.1l-4.6,0.4c-0.3,0-0.4,0-0.5,0h-3.3c-0.1,0-0.2,0-0.3-0.1s-0.1-0.2-0.1-0.3v-0.7c0-0.1,0-0.2,0.1-0.3
			c0.1-0.1,0.2-0.1,0.3-0.1h3.4l3.7-0.2v-0.2l-3.1-0.5c-0.3,0-0.4-0.2-0.4-0.4v-0.9C30.4,131.6,30.5,131.4,30.8,131.4z"/>
	</g>
	<g class="st0">
		<path class="st1" d="M26.4,149.9v-0.8c0-0.1,0-0.2,0.1-0.3c0.1-0.1,0.2-0.1,0.3-0.1H34v-3.3c0-0.1,0-0.2,0.1-0.3
			c0.1-0.1,0.2-0.1,0.3-0.1h0.7c0.1,0,0.2,0,0.3,0.1c0.1,0.1,0.1,0.2,0.1,0.3v4.5c0,0.1,0,0.2-0.1,0.3c-0.1,0.1-0.2,0.1-0.3,0.1
			h-8.4c-0.1,0-0.2,0-0.3-0.1S26.4,150,26.4,149.9z"/>
		<path class="st1" d="M28.8,137.4h4.3c0.7,0,1.3,0.3,1.8,0.8c0.5,0.5,0.8,1.2,0.8,1.9c0,0.8-0.3,1.4-0.8,1.9
			c-0.5,0.5-1.1,0.8-1.8,0.8h-4.3c-0.7,0-1.3-0.3-1.8-0.8c-0.5-0.5-0.8-1.2-0.8-1.9c0-0.8,0.2-1.4,0.8-1.9
			C27.5,137.6,28.1,137.4,28.8,137.4z M33.2,138.9h-4.4c-0.3,0-0.5,0.1-0.7,0.3s-0.3,0.5-0.3,0.8c0,0.3,0.1,0.6,0.3,0.8
			s0.4,0.3,0.7,0.3h4.4c0.3,0,0.5-0.1,0.7-0.3c0.2-0.2,0.3-0.5,0.3-0.8c0-0.3-0.1-0.6-0.3-0.8C33.7,139,33.4,138.9,33.2,138.9z"/>
		<path class="st1" d="M30.8,131.4l3.1-0.5v-0.2l-3.7-0.2h-3.4c-0.1,0-0.2,0-0.3-0.1c-0.1-0.1-0.1-0.2-0.1-0.3v-0.7
			c0-0.1,0-0.2,0.1-0.3c0.1-0.1,0.2-0.1,0.3-0.1H30c0.1,0,0.3,0,0.5,0l4.6,0.4c0.1,0,0.2,0.1,0.3,0.1s0.1,0.2,0.1,0.3v1.3
			c0,0.1,0,0.2-0.1,0.3c-0.1,0.1-0.2,0.1-0.3,0.1l-3.4,0.5v0.2l3.4,0.5c0.1,0,0.2,0.1,0.3,0.1c0.1,0.1,0.1,0.2,0.1,0.3v1.3
			c0,0.1,0,0.2-0.1,0.3c-0.1,0.1-0.2,0.1-0.3,0.1l-4.6,0.4c-0.3,0-0.4,0-0.5,0h-3.3c-0.1,0-0.2,0-0.3-0.1s-0.1-0.2-0.1-0.3v-0.7
			c0-0.1,0-0.2,0.1-0.3c0.1-0.1,0.2-0.1,0.3-0.1h3.4l3.7-0.2v-0.2l-3.1-0.5c-0.3,0-0.4-0.2-0.4-0.4v-0.9
			C30.4,131.6,30.5,131.4,30.8,131.4z"/>
	</g>
	<g class="st0">
		<path class="st3" d="M26.4,149.9v-0.8c0-0.1,0-0.2,0.1-0.3c0.1-0.1,0.2-0.1,0.3-0.1H34v-3.3c0-0.1,0-0.2,0.1-0.3
			c0.1-0.1,0.2-0.1,0.3-0.1h0.7c0.1,0,0.2,0,0.3,0.1c0.1,0.1,0.1,0.2,0.1,0.3v4.5c0,0.1,0,0.2-0.1,0.3c-0.1,0.1-0.2,0.1-0.3,0.1
			h-8.4c-0.1,0-0.2,0-0.3-0.1S26.4,150,26.4,149.9z"/>
		<path class="st3" d="M28.8,137.4h4.3c0.7,0,1.3,0.3,1.8,0.8c0.5,0.5,0.8,1.2,0.8,1.9c0,0.8-0.3,1.4-0.8,1.9
			c-0.5,0.5-1.1,0.8-1.8,0.8h-4.3c-0.7,0-1.3-0.3-1.8-0.8c-0.5-0.5-0.8-1.2-0.8-1.9c0-0.8,0.2-1.4,0.8-1.9
			C27.5,137.6,28.1,137.4,28.8,137.4z M33.2,138.9h-4.4c-0.3,0-0.5,0.1-0.7,0.3s-0.3,0.5-0.3,0.8c0,0.3,0.1,0.6,0.3,0.8
			s0.4,0.3,0.7,0.3h4.4c0.3,0,0.5-0.1,0.7-0.3c0.2-0.2,0.3-0.5,0.3-0.8c0-0.3-0.1-0.6-0.3-0.8C33.7,139,33.4,138.9,33.2,138.9z"/>
		<path class="st3" d="M30.8,131.4l3.1-0.5v-0.2l-3.7-0.2h-3.4c-0.1,0-0.2,0-0.3-0.1c-0.1-0.1-0.1-0.2-0.1-0.3v-0.7
			c0-0.1,0-0.2,0.1-0.3c0.1-0.1,0.2-0.1,0.3-0.1H30c0.1,0,0.3,0,0.5,0l4.6,0.4c0.1,0,0.2,0.1,0.3,0.1s0.1,0.2,0.1,0.3v1.3
			c0,0.1,0,0.2-0.1,0.3c-0.1,0.1-0.2,0.1-0.3,0.1l-3.4,0.5v0.2l3.4,0.5c0.1,0,0.2,0.1,0.3,0.1c0.1,0.1,0.1,0.2,0.1,0.3v1.3
			c0,0.1,0,0.2-0.1,0.3c-0.1,0.1-0.2,0.1-0.3,0.1l-4.6,0.4c-0.3,0-0.4,0-0.5,0h-3.3c-0.1,0-0.2,0-0.3-0.1s-0.1-0.2-0.1-0.3v-0.7
			c0-0.1,0-0.2,0.1-0.3c0.1-0.1,0.2-0.1,0.3-0.1h3.4l3.7-0.2v-0.2l-3.1-0.5c-0.3,0-0.4-0.2-0.4-0.4v-0.9
			C30.4,131.6,30.5,131.4,30.8,131.4z"/>
	</g>
</g>
<g>
	<g class="st0">
		<path d="M26.8,72.6h8.4c0.1,0,0.2,0,0.3,0.1c0.1,0.1,0.1,0.2,0.1,0.3v0.8c0,0.1,0,0.2-0.1,0.3c-0.1,0.1-0.2,0.1-0.3,0.1h-3.6v2.2
			h3.6c0.1,0,0.2,0,0.3,0.1c0.1,0.1,0.1,0.2,0.1,0.3v0.8c0,0.1,0,0.2-0.1,0.3c-0.1,0.1-0.2,0.1-0.3,0.1h-8.4c-0.1,0-0.2,0-0.3-0.1
			c-0.1-0.1-0.1-0.2-0.1-0.3v-0.8c0-0.1,0-0.2,0.1-0.3c0.1-0.1,0.2-0.1,0.3-0.1h3.2v-2.2h-3.2c-0.1,0-0.2,0-0.3-0.1
			c-0.1-0.1-0.1-0.2-0.1-0.3V73c0-0.1,0-0.2,0.1-0.3S26.6,72.6,26.8,72.6z"/>
		<path d="M34.3,64.8h0.9c0.2,0,0.3,0.1,0.3,0.3v4.6c0,0.1,0,0.2-0.1,0.2C35.4,70,35.3,70,35.2,70h-0.9c-0.1,0-0.2,0-0.2-0.1
			C34,69.8,34,69.8,34,69.7v-1.5h-6.1v1.5c0,0.1,0,0.2-0.1,0.2C27.7,70,27.6,70,27.6,70h-0.9c-0.1,0-0.2,0-0.2-0.1s-0.1-0.1-0.1-0.2
			v-4.6c0-0.2,0.1-0.3,0.3-0.3h0.9c0.2,0,0.3,0.1,0.3,0.3v1.5H34v-1.5C34,64.9,34.1,64.8,34.3,64.8z"/>
		<path d="M30.6,59.2v-2c0-0.1,0-0.2,0.1-0.3c0.1-0.1,0.2-0.1,0.3-0.1h2.1c0.7,0,1.3,0.3,1.8,0.8s0.8,1.2,0.8,1.9
			c0,0.7-0.3,1.4-0.8,1.9c-0.5,0.5-1.1,0.8-1.8,0.8h-4.3c-0.7,0-1.3-0.3-1.8-0.8c-0.5-0.5-0.8-1.2-0.8-1.9c0-0.5,0.1-1,0.4-1.4
			s0.6-0.7,0.9-0.9c0.3-0.2,0.7-0.3,1-0.3c0.1,0,0.2,0,0.3,0.1c0.1,0.1,0.1,0.2,0.1,0.3v0.8c0,0.2-0.1,0.4-0.4,0.4
			c-0.2,0-0.4,0.1-0.6,0.3c-0.2,0.2-0.3,0.4-0.3,0.7c0,0.3,0.1,0.5,0.3,0.8c0.2,0.2,0.4,0.3,0.7,0.3h4.4c0.3,0,0.5-0.1,0.7-0.3
			s0.3-0.5,0.3-0.8c0-0.3-0.1-0.5-0.3-0.8c-0.2-0.2-0.4-0.4-0.7-0.4l-1.1,0v0.8c0,0.1,0,0.2-0.1,0.2c-0.1,0.1-0.1,0.1-0.2,0.1h-0.8
			c-0.1,0-0.2,0-0.2-0.1C30.6,59.4,30.6,59.3,30.6,59.2z"/>
		<path d="M26.8,49.1h8.4c0.1,0,0.2,0,0.3,0.1c0.1,0.1,0.1,0.2,0.1,0.3v0.8c0,0.1,0,0.2-0.1,0.3c-0.1,0.1-0.2,0.1-0.3,0.1h-3.6v2.2
			h3.6c0.1,0,0.2,0,0.3,0.1c0.1,0.1,0.1,0.2,0.1,0.3V54c0,0.1,0,0.2-0.1,0.3c-0.1,0.1-0.2,0.1-0.3,0.1h-8.4c-0.1,0-0.2,0-0.3-0.1
			c-0.1-0.1-0.1-0.2-0.1-0.3v-0.8c0-0.1,0-0.2,0.1-0.3c0.1-0.1,0.2-0.1,0.3-0.1h3.2v-2.2h-3.2c-0.1,0-0.2,0-0.3-0.1
			c-0.1-0.1-0.1-0.2-0.1-0.3v-0.8c0-0.1,0-0.2,0.1-0.3S26.6,49.1,26.8,49.1z"/>
	</g>
	<g class="st0">
		<path class="st1" d="M26.8,72.6h8.4c0.1,0,0.2,0,0.3,0.1c0.1,0.1,0.1,0.2,0.1,0.3v0.8c0,0.1,0,0.2-0.1,0.3
			c-0.1,0.1-0.2,0.1-0.3,0.1h-3.6v2.2h3.6c0.1,0,0.2,0,0.3,0.1c0.1,0.1,0.1,0.2,0.1,0.3v0.8c0,0.1,0,0.2-0.1,0.3
			c-0.1,0.1-0.2,0.1-0.3,0.1h-8.4c-0.1,0-0.2,0-0.3-0.1c-0.1-0.1-0.1-0.2-0.1-0.3v-0.8c0-0.1,0-0.2,0.1-0.3c0.1-0.1,0.2-0.1,0.3-0.1
			h3.2v-2.2h-3.2c-0.1,0-0.2,0-0.3-0.1c-0.1-0.1-0.1-0.2-0.1-0.3V73c0-0.1,0-0.2,0.1-0.3S26.6,72.6,26.8,72.6z"/>
		<path class="st1" d="M34.3,64.8h0.9c0.2,0,0.3,0.1,0.3,0.3v4.6c0,0.1,0,0.2-0.1,0.2C35.4,70,35.3,70,35.2,70h-0.9
			c-0.1,0-0.2,0-0.2-0.1C34,69.8,34,69.8,34,69.7v-1.5h-6.1v1.5c0,0.1,0,0.2-0.1,0.2C27.7,70,27.6,70,27.6,70h-0.9
			c-0.1,0-0.2,0-0.2-0.1s-0.1-0.1-0.1-0.2v-4.6c0-0.2,0.1-0.3,0.3-0.3h0.9c0.2,0,0.3,0.1,0.3,0.3v1.5H34v-1.5
			C34,64.9,34.1,64.8,34.3,64.8z"/>
		<path class="st1" d="M30.6,59.2v-2c0-0.1,0-0.2,0.1-0.3c0.1-0.1,0.2-0.1,0.3-0.1h2.1c0.7,0,1.3,0.3,1.8,0.8s0.8,1.2,0.8,1.9
			c0,0.7-0.3,1.4-0.8,1.9c-0.5,0.5-1.1,0.8-1.8,0.8h-4.3c-0.7,0-1.3-0.3-1.8-0.8c-0.5-0.5-0.8-1.2-0.8-1.9c0-0.5,0.1-1,0.4-1.4
			s0.6-0.7,0.9-0.9c0.3-0.2,0.7-0.3,1-0.3c0.1,0,0.2,0,0.3,0.1c0.1,0.1,0.1,0.2,0.1,0.3v0.8c0,0.2-0.1,0.4-0.4,0.4
			c-0.2,0-0.4,0.1-0.6,0.3c-0.2,0.2-0.3,0.4-0.3,0.7c0,0.3,0.1,0.5,0.3,0.8c0.2,0.2,0.4,0.3,0.7,0.3h4.4c0.3,0,0.5-0.1,0.7-0.3
			s0.3-0.5,0.3-0.8c0-0.3-0.1-0.5-0.3-0.8c-0.2-0.2-0.4-0.4-0.7-0.4l-1.1,0v0.8c0,0.1,0,0.2-0.1,0.2c-0.1,0.1-0.1,0.1-0.2,0.1h-0.8
			c-0.1,0-0.2,0-0.2-0.1C30.6,59.4,30.6,59.3,30.6,59.2z"/>
		<path class="st1" d="M26.8,49.1h8.4c0.1,0,0.2,0,0.3,0.1c0.1,0.1,0.1,0.2,0.1,0.3v0.8c0,0.1,0,0.2-0.1,0.3
			c-0.1,0.1-0.2,0.1-0.3,0.1h-3.6v2.2h3.6c0.1,0,0.2,0,0.3,0.1c0.1,0.1,0.1,0.2,0.1,0.3V54c0,0.1,0,0.2-0.1,0.3
			c-0.1,0.1-0.2,0.1-0.3,0.1h-8.4c-0.1,0-0.2,0-0.3-0.1c-0.1-0.1-0.1-0.2-0.1-0.3v-0.8c0-0.1,0-0.2,0.1-0.3c0.1-0.1,0.2-0.1,0.3-0.1
			h3.2v-2.2h-3.2c-0.1,0-0.2,0-0.3-0.1c-0.1-0.1-0.1-0.2-0.1-0.3v-0.8c0-0.1,0-0.2,0.1-0.3S26.6,49.1,26.8,49.1z"/>
	</g>
	<g class="st0">
		<path class="st3" d="M26.8,72.6h8.4c0.1,0,0.2,0,0.3,0.1c0.1,0.1,0.1,0.2,0.1,0.3v0.8c0,0.1,0,0.2-0.1,0.3
			c-0.1,0.1-0.2,0.1-0.3,0.1h-3.6v2.2h3.6c0.1,0,0.2,0,0.3,0.1c0.1,0.1,0.1,0.2,0.1,0.3v0.8c0,0.1,0,0.2-0.1,0.3
			c-0.1,0.1-0.2,0.1-0.3,0.1h-8.4c-0.1,0-0.2,0-0.3-0.1c-0.1-0.1-0.1-0.2-0.1-0.3v-0.8c0-0.1,0-0.2,0.1-0.3c0.1-0.1,0.2-0.1,0.3-0.1
			h3.2v-2.2h-3.2c-0.1,0-0.2,0-0.3-0.1c-0.1-0.1-0.1-0.2-0.1-0.3V73c0-0.1,0-0.2,0.1-0.3S26.6,72.6,26.8,72.6z"/>
		<path class="st3" d="M34.3,64.8h0.9c0.2,0,0.3,0.1,0.3,0.3v4.6c0,0.1,0,0.2-0.1,0.2C35.4,70,35.3,70,35.2,70h-0.9
			c-0.1,0-0.2,0-0.2-0.1C34,69.8,34,69.8,34,69.7v-1.5h-6.1v1.5c0,0.1,0,0.2-0.1,0.2C27.7,70,27.6,70,27.6,70h-0.9
			c-0.1,0-0.2,0-0.2-0.1s-0.1-0.1-0.1-0.2v-4.6c0-0.2,0.1-0.3,0.3-0.3h0.9c0.2,0,0.3,0.1,0.3,0.3v1.5H34v-1.5
			C34,64.9,34.1,64.8,34.3,64.8z"/>
		<path class="st3" d="M30.6,59.2v-2c0-0.1,0-0.2,0.1-0.3c0.1-0.1,0.2-0.1,0.3-0.1h2.1c0.7,0,1.3,0.3,1.8,0.8s0.8,1.2,0.8,1.9
			c0,0.7-0.3,1.4-0.8,1.9c-0.5,0.5-1.1,0.8-1.8,0.8h-4.3c-0.7,0-1.3-0.3-1.8-0.8c-0.5-0.5-0.8-1.2-0.8-1.9c0-0.5,0.1-1,0.4-1.4
			s0.6-0.7,0.9-0.9c0.3-0.2,0.7-0.3,1-0.3c0.1,0,0.2,0,0.3,0.1c0.1,0.1,0.1,0.2,0.1,0.3v0.8c0,0.2-0.1,0.4-0.4,0.4
			c-0.2,0-0.4,0.1-0.6,0.3c-0.2,0.2-0.3,0.4-0.3,0.7c0,0.3,0.1,0.5,0.3,0.8c0.2,0.2,0.4,0.3,0.7,0.3h4.4c0.3,0,0.5-0.1,0.7-0.3
			s0.3-0.5,0.3-0.8c0-0.3-0.1-0.5-0.3-0.8c-0.2-0.2-0.4-0.4-0.7-0.4l-1.1,0v0.8c0,0.1,0,0.2-0.1,0.2c-0.1,0.1-0.1,0.1-0.2,0.1h-0.8
			c-0.1,0-0.2,0-0.2-0.1C30.6,59.4,30.6,59.3,30.6,59.2z"/>
		<path class="st3" d="M26.8,49.1h8.4c0.1,0,0.2,0,0.3,0.1c0.1,0.1,0.1,0.2,0.1,0.3v0.8c0,0.1,0,0.2-0.1,0.3
			c-0.1,0.1-0.2,0.1-0.3,0.1h-3.6v2.2h3.6c0.1,0,0.2,0,0.3,0.1c0.1,0.1,0.1,0.2,0.1,0.3V54c0,0.1,0,0.2-0.1,0.3
			c-0.1,0.1-0.2,0.1-0.3,0.1h-8.4c-0.1,0-0.2,0-0.3-0.1c-0.1-0.1-0.1-0.2-0.1-0.3v-0.8c0-0.1,0-0.2,0.1-0.3c0.1-0.1,0.2-0.1,0.3-0.1
			h3.2v-2.2h-3.2c-0.1,0-0.2,0-0.3-0.1c-0.1-0.1-0.1-0.2-0.1-0.3v-0.8c0-0.1,0-0.2,0.1-0.3S26.6,49.1,26.8,49.1z"/>
	</g>
</g>
<g>
	<g class="st0">
		<path d="M259.8,158.8h0.8c0.1,0,0.2,0,0.3,0.1s0.1,0.2,0.1,0.3v7.2h3.3c0.1,0,0.2,0,0.3,0.1s0.1,0.2,0.1,0.3v0.7
			c0,0.1,0,0.2-0.1,0.3s-0.2,0.1-0.3,0.1h-4.5c-0.1,0-0.2,0-0.3-0.1c-0.1-0.1-0.1-0.2-0.1-0.3v-8.4c0-0.1,0-0.2,0.1-0.3
			C259.6,158.9,259.7,158.8,259.8,158.8z"/>
		<path d="M272.3,161.3v4.3c0,0.7-0.3,1.3-0.8,1.8c-0.5,0.5-1.2,0.8-1.9,0.8c-0.8,0-1.4-0.3-1.9-0.8c-0.5-0.5-0.8-1.1-0.8-1.8v-4.3
			c0-0.7,0.3-1.3,0.8-1.8c0.5-0.5,1.2-0.8,1.9-0.8c0.8,0,1.4,0.2,1.9,0.8C272.1,159.9,272.3,160.5,272.3,161.3z M270.8,165.6v-4.4
			c0-0.3-0.1-0.5-0.3-0.7c-0.2-0.2-0.5-0.3-0.8-0.3s-0.6,0.1-0.8,0.3c-0.2,0.2-0.3,0.4-0.3,0.7v4.4c0,0.3,0.1,0.5,0.3,0.7
			c0.2,0.2,0.5,0.3,0.8,0.3s0.6-0.1,0.8-0.3S270.8,165.9,270.8,165.6z"/>
		<path d="M278.3,163.2l0.5,3.1h0.2l0.2-3.7v-3.4c0-0.1,0-0.2,0.1-0.3s0.2-0.1,0.3-0.1h0.7c0.1,0,0.2,0,0.3,0.1s0.1,0.2,0.1,0.3v3.3
			c0,0.1,0,0.3,0,0.5l-0.4,4.6c0,0.1-0.1,0.2-0.1,0.3c-0.1,0.1-0.2,0.1-0.3,0.1h-1.3c-0.1,0-0.2,0-0.3-0.1c-0.1-0.1-0.1-0.2-0.1-0.3
			l-0.5-3.4h-0.2l-0.5,3.4c0,0.1-0.1,0.2-0.1,0.3c-0.1,0.1-0.2,0.1-0.3,0.1h-1.3c-0.1,0-0.2,0-0.3-0.1c-0.1-0.1-0.1-0.2-0.1-0.3
			l-0.4-4.6c0-0.3,0-0.4,0-0.5v-3.3c0-0.1,0-0.2,0.1-0.3s0.2-0.1,0.3-0.1h0.7c0.1,0,0.2,0,0.3,0.1c0.1,0.1,0.1,0.2,0.1,0.3v3.4
			l0.2,3.7h0.2l0.5-3.1c0-0.3,0.2-0.4,0.4-0.4h0.9C278.1,162.8,278.3,163,278.3,163.2z"/>
	</g>
	<g class="st0">
		<path class="st1" d="M259.8,158.8h0.8c0.1,0,0.2,0,0.3,0.1s0.1,0.2,0.1,0.3v7.2h3.3c0.1,0,0.2,0,0.3,0.1s0.1,0.2,0.1,0.3v0.7
			c0,0.1,0,0.2-0.1,0.3s-0.2,0.1-0.3,0.1h-4.5c-0.1,0-0.2,0-0.3-0.1c-0.1-0.1-0.1-0.2-0.1-0.3v-8.4c0-0.1,0-0.2,0.1-0.3
			C259.6,158.9,259.7,158.8,259.8,158.8z"/>
		<path class="st1" d="M272.3,161.3v4.3c0,0.7-0.3,1.3-0.8,1.8c-0.5,0.5-1.2,0.8-1.9,0.8c-0.8,0-1.4-0.3-1.9-0.8
			c-0.5-0.5-0.8-1.1-0.8-1.8v-4.3c0-0.7,0.3-1.3,0.8-1.8c0.5-0.5,1.2-0.8,1.9-0.8c0.8,0,1.4,0.2,1.9,0.8
			C272.1,159.9,272.3,160.5,272.3,161.3z M270.8,165.6v-4.4c0-0.3-0.1-0.5-0.3-0.7c-0.2-0.2-0.5-0.3-0.8-0.3s-0.6,0.1-0.8,0.3
			c-0.2,0.2-0.3,0.4-0.3,0.7v4.4c0,0.3,0.1,0.5,0.3,0.7c0.2,0.2,0.5,0.3,0.8,0.3s0.6-0.1,0.8-0.3S270.8,165.9,270.8,165.6z"/>
		<path class="st1" d="M278.3,163.2l0.5,3.1h0.2l0.2-3.7v-3.4c0-0.1,0-0.2,0.1-0.3s0.2-0.1,0.3-0.1h0.7c0.1,0,0.2,0,0.3,0.1
			s0.1,0.2,0.1,0.3v3.3c0,0.1,0,0.3,0,0.5l-0.4,4.6c0,0.1-0.1,0.2-0.1,0.3c-0.1,0.1-0.2,0.1-0.3,0.1h-1.3c-0.1,0-0.2,0-0.3-0.1
			c-0.1-0.1-0.1-0.2-0.1-0.3l-0.5-3.4h-0.2l-0.5,3.4c0,0.1-0.1,0.2-0.1,0.3c-0.1,0.1-0.2,0.1-0.3,0.1h-1.3c-0.1,0-0.2,0-0.3-0.1
			c-0.1-0.1-0.1-0.2-0.1-0.3l-0.4-4.6c0-0.3,0-0.4,0-0.5v-3.3c0-0.1,0-0.2,0.1-0.3s0.2-0.1,0.3-0.1h0.7c0.1,0,0.2,0,0.3,0.1
			c0.1,0.1,0.1,0.2,0.1,0.3v3.4l0.2,3.7h0.2l0.5-3.1c0-0.3,0.2-0.4,0.4-0.4h0.9C278.1,162.8,278.3,163,278.3,163.2z"/>
	</g>
	<g class="st0">
		<path class="st3" d="M259.8,158.8h0.8c0.1,0,0.2,0,0.3,0.1s0.1,0.2,0.1,0.3v7.2h3.3c0.1,0,0.2,0,0.3,0.1s0.1,0.2,0.1,0.3v0.7
			c0,0.1,0,0.2-0.1,0.3s-0.2,0.1-0.3,0.1h-4.5c-0.1,0-0.2,0-0.3-0.1c-0.1-0.1-0.1-0.2-0.1-0.3v-8.4c0-0.1,0-0.2,0.1-0.3
			C259.6,158.9,259.7,158.8,259.8,158.8z"/>
		<path class="st3" d="M272.3,161.3v4.3c0,0.7-0.3,1.3-0.8,1.8c-0.5,0.5-1.2,0.8-1.9,0.8c-0.8,0-1.4-0.3-1.9-0.8
			c-0.5-0.5-0.8-1.1-0.8-1.8v-4.3c0-0.7,0.3-1.3,0.8-1.8c0.5-0.5,1.2-0.8,1.9-0.8c0.8,0,1.4,0.2,1.9,0.8
			C272.1,159.9,272.3,160.5,272.3,161.3z M270.8,165.6v-4.4c0-0.3-0.1-0.5-0.3-0.7c-0.2-0.2-0.5-0.3-0.8-0.3s-0.6,0.1-0.8,0.3
			c-0.2,0.2-0.3,0.4-0.3,0.7v4.4c0,0.3,0.1,0.5,0.3,0.7c0.2,0.2,0.5,0.3,0.8,0.3s0.6-0.1,0.8-0.3S270.8,165.9,270.8,165.6z"/>
		<path class="st3" d="M278.3,163.2l0.5,3.1h0.2l0.2-3.7v-3.4c0-0.1,0-0.2,0.1-0.3s0.2-0.1,0.3-0.1h0.7c0.1,0,0.2,0,0.3,0.1
			s0.1,0.2,0.1,0.3v3.3c0,0.1,0,0.3,0,0.5l-0.4,4.6c0,0.1-0.1,0.2-0.1,0.3c-0.1,0.1-0.2,0.1-0.3,0.1h-1.3c-0.1,0-0.2,0-0.3-0.1
			c-0.1-0.1-0.1-0.2-0.1-0.3l-0.5-3.4h-0.2l-0.5,3.4c0,0.1-0.1,0.2-0.1,0.3c-0.1,0.1-0.2,0.1-0.3,0.1h-1.3c-0.1,0-0.2,0-0.3-0.1
			c-0.1-0.1-0.1-0.2-0.1-0.3l-0.4-4.6c0-0.3,0-0.4,0-0.5v-3.3c0-0.1,0-0.2,0.1-0.3s0.2-0.1,0.3-0.1h0.7c0.1,0,0.2,0,0.3,0.1
			c0.1,0.1,0.1,0.2,0.1,0.3v3.4l0.2,3.7h0.2l0.5-3.1c0-0.3,0.2-0.4,0.4-0.4h0.9C278.1,162.8,278.3,163,278.3,163.2z"/>
	</g>
</g>
<g>
	<g class="st0">
		<path d="M340.1,159.2v8.4c0,0.1,0,0.2-0.1,0.3s-0.2,0.1-0.3,0.1h-0.8c-0.1,0-0.2,0-0.3-0.1c-0.1-0.1-0.1-0.2-0.1-0.3V164h-2.2v3.6
			c0,0.1,0,0.2-0.1,0.3c-0.1,0.1-0.2,0.1-0.3,0.1h-0.8c-0.1,0-0.2,0-0.3-0.1s-0.1-0.2-0.1-0.3v-8.4c0-0.1,0-0.2,0.1-0.3
			s0.2-0.1,0.3-0.1h0.8c0.1,0,0.2,0,0.3,0.1c0.1,0.1,0.1,0.2,0.1,0.3v3.2h2.2v-3.2c0-0.1,0-0.2,0.1-0.3c0.1-0.1,0.2-0.1,0.3-0.1h0.8
			c0.1,0,0.2,0,0.3,0.1S340.1,159.1,340.1,159.2z"/>
		<path d="M347.9,166.8v0.9c0,0.2-0.1,0.3-0.3,0.3H343c-0.1,0-0.2,0-0.2-0.1c-0.1-0.1-0.1-0.1-0.1-0.2v-0.9c0-0.1,0-0.2,0.1-0.2
			c0.1-0.1,0.1-0.1,0.2-0.1h1.5v-6.1H343c-0.1,0-0.2,0-0.2-0.1c-0.1-0.1-0.1-0.1-0.1-0.2v-0.9c0-0.1,0-0.2,0.1-0.2
			c0.1-0.1,0.1-0.1,0.2-0.1h4.6c0.2,0,0.3,0.1,0.3,0.3v0.9c0,0.2-0.1,0.3-0.3,0.3h-1.5v6.1h1.5C347.8,166.5,347.9,166.6,347.9,166.8
			z"/>
		<path d="M353.5,163h2c0.1,0,0.2,0,0.3,0.1c0.1,0.1,0.1,0.2,0.1,0.3v2.1c0,0.7-0.3,1.3-0.8,1.8c-0.5,0.5-1.2,0.8-1.9,0.8
			c-0.7,0-1.4-0.3-1.9-0.8c-0.5-0.5-0.8-1.1-0.8-1.8v-4.3c0-0.7,0.3-1.3,0.8-1.8c0.5-0.5,1.2-0.8,1.9-0.8c0.5,0,1,0.1,1.4,0.4
			c0.4,0.3,0.7,0.6,0.9,0.9s0.3,0.7,0.3,1c0,0.1,0,0.2-0.1,0.3c-0.1,0.1-0.2,0.1-0.3,0.1h-0.8c-0.2,0-0.4-0.1-0.4-0.4
			c0-0.2-0.1-0.4-0.3-0.6c-0.2-0.2-0.4-0.3-0.7-0.3c-0.3,0-0.5,0.1-0.8,0.3c-0.2,0.2-0.3,0.4-0.3,0.7v4.4c0,0.3,0.1,0.5,0.3,0.7
			c0.2,0.2,0.5,0.3,0.8,0.3c0.3,0,0.5-0.1,0.8-0.3c0.2-0.2,0.4-0.4,0.4-0.7l0-1.1h-0.8c-0.1,0-0.2,0-0.2-0.1
			c-0.1-0.1-0.1-0.1-0.1-0.2v-0.8c0-0.1,0-0.2,0.1-0.2C353.3,163.1,353.4,163,353.5,163z"/>
		<path d="M363.6,159.2v8.4c0,0.1,0,0.2-0.1,0.3s-0.2,0.1-0.3,0.1h-0.8c-0.1,0-0.2,0-0.3-0.1s-0.1-0.2-0.1-0.3V164h-2.2v3.6
			c0,0.1,0,0.2-0.1,0.3s-0.2,0.1-0.3,0.1h-0.8c-0.1,0-0.2,0-0.3-0.1c-0.1-0.1-0.1-0.2-0.1-0.3v-8.4c0-0.1,0-0.2,0.1-0.3
			c0.1-0.1,0.2-0.1,0.3-0.1h0.8c0.1,0,0.2,0,0.3,0.1s0.1,0.2,0.1,0.3v3.2h2.2v-3.2c0-0.1,0-0.2,0.1-0.3s0.2-0.1,0.3-0.1h0.8
			c0.1,0,0.2,0,0.3,0.1S363.6,159.1,363.6,159.2z"/>
	</g>
	<g class="st0">
		<path class="st1" d="M340.1,159.2v8.4c0,0.1,0,0.2-0.1,0.3s-0.2,0.1-0.3,0.1h-0.8c-0.1,0-0.2,0-0.3-0.1c-0.1-0.1-0.1-0.2-0.1-0.3
			V164h-2.2v3.6c0,0.1,0,0.2-0.1,0.3c-0.1,0.1-0.2,0.1-0.3,0.1h-0.8c-0.1,0-0.2,0-0.3-0.1s-0.1-0.2-0.1-0.3v-8.4
			c0-0.1,0-0.2,0.1-0.3s0.2-0.1,0.3-0.1h0.8c0.1,0,0.2,0,0.3,0.1c0.1,0.1,0.1,0.2,0.1,0.3v3.2h2.2v-3.2c0-0.1,0-0.2,0.1-0.3
			c0.1-0.1,0.2-0.1,0.3-0.1h0.8c0.1,0,0.2,0,0.3,0.1S340.1,159.1,340.1,159.2z"/>
		<path class="st1" d="M347.9,166.8v0.9c0,0.2-0.1,0.3-0.3,0.3H343c-0.1,0-0.2,0-0.2-0.1c-0.1-0.1-0.1-0.1-0.1-0.2v-0.9
			c0-0.1,0-0.2,0.1-0.2c0.1-0.1,0.1-0.1,0.2-0.1h1.5v-6.1H343c-0.1,0-0.2,0-0.2-0.1c-0.1-0.1-0.1-0.1-0.1-0.2v-0.9
			c0-0.1,0-0.2,0.1-0.2c0.1-0.1,0.1-0.1,0.2-0.1h4.6c0.2,0,0.3,0.1,0.3,0.3v0.9c0,0.2-0.1,0.3-0.3,0.3h-1.5v6.1h1.5
			C347.8,166.5,347.9,166.6,347.9,166.8z"/>
		<path class="st1" d="M353.5,163h2c0.1,0,0.2,0,0.3,0.1c0.1,0.1,0.1,0.2,0.1,0.3v2.1c0,0.7-0.3,1.3-0.8,1.8
			c-0.5,0.5-1.2,0.8-1.9,0.8c-0.7,0-1.4-0.3-1.9-0.8c-0.5-0.5-0.8-1.1-0.8-1.8v-4.3c0-0.7,0.3-1.3,0.8-1.8c0.5-0.5,1.2-0.8,1.9-0.8
			c0.5,0,1,0.1,1.4,0.4c0.4,0.3,0.7,0.6,0.9,0.9s0.3,0.7,0.3,1c0,0.1,0,0.2-0.1,0.3c-0.1,0.1-0.2,0.1-0.3,0.1h-0.8
			c-0.2,0-0.4-0.1-0.4-0.4c0-0.2-0.1-0.4-0.3-0.6c-0.2-0.2-0.4-0.3-0.7-0.3c-0.3,0-0.5,0.1-0.8,0.3c-0.2,0.2-0.3,0.4-0.3,0.7v4.4
			c0,0.3,0.1,0.5,0.3,0.7c0.2,0.2,0.5,0.3,0.8,0.3c0.3,0,0.5-0.1,0.8-0.3c0.2-0.2,0.4-0.4,0.4-0.7l0-1.1h-0.8c-0.1,0-0.2,0-0.2-0.1
			c-0.1-0.1-0.1-0.1-0.1-0.2v-0.8c0-0.1,0-0.2,0.1-0.2C353.3,163.1,353.4,163,353.5,163z"/>
		<path class="st1" d="M363.6,159.2v8.4c0,0.1,0,0.2-0.1,0.3s-0.2,0.1-0.3,0.1h-0.8c-0.1,0-0.2,0-0.3-0.1s-0.1-0.2-0.1-0.3V164h-2.2
			v3.6c0,0.1,0,0.2-0.1,0.3s-0.2,0.1-0.3,0.1h-0.8c-0.1,0-0.2,0-0.3-0.1c-0.1-0.1-0.1-0.2-0.1-0.3v-8.4c0-0.1,0-0.2,0.1-0.3
			c0.1-0.1,0.2-0.1,0.3-0.1h0.8c0.1,0,0.2,0,0.3,0.1s0.1,0.2,0.1,0.3v3.2h2.2v-3.2c0-0.1,0-0.2,0.1-0.3s0.2-0.1,0.3-0.1h0.8
			c0.1,0,0.2,0,0.3,0.1S363.6,159.1,363.6,159.2z"/>
	</g>
	<g class="st0">
		<path class="st3" d="M340.1,159.2v8.4c0,0.1,0,0.2-0.1,0.3s-0.2,0.1-0.3,0.1h-0.8c-0.1,0-0.2,0-0.3-0.1c-0.1-0.1-0.1-0.2-0.1-0.3
			V164h-2.2v3.6c0,0.1,0,0.2-0.1,0.3c-0.1,0.1-0.2,0.1-0.3,0.1h-0.8c-0.1,0-0.2,0-0.3-0.1s-0.1-0.2-0.1-0.3v-8.4
			c0-0.1,0-0.2,0.1-0.3s0.2-0.1,0.3-0.1h0.8c0.1,0,0.2,0,0.3,0.1c0.1,0.1,0.1,0.2,0.1,0.3v3.2h2.2v-3.2c0-0.1,0-0.2,0.1-0.3
			c0.1-0.1,0.2-0.1,0.3-0.1h0.8c0.1,0,0.2,0,0.3,0.1S340.1,159.1,340.1,159.2z"/>
		<path class="st3" d="M347.9,166.8v0.9c0,0.2-0.1,0.3-0.3,0.3H343c-0.1,0-0.2,0-0.2-0.1c-0.1-0.1-0.1-0.1-0.1-0.2v-0.9
			c0-0.1,0-0.2,0.1-0.2c0.1-0.1,0.1-0.1,0.2-0.1h1.5v-6.1H343c-0.1,0-0.2,0-0.2-0.1c-0.1-0.1-0.1-0.1-0.1-0.2v-0.9
			c0-0.1,0-0.2,0.1-0.2c0.1-0.1,0.1-0.1,0.2-0.1h4.6c0.2,0,0.3,0.1,0.3,0.3v0.9c0,0.2-0.1,0.3-0.3,0.3h-1.5v6.1h1.5
			C347.8,166.5,347.9,166.6,347.9,166.8z"/>
		<path class="st3" d="M353.5,163h2c0.1,0,0.2,0,0.3,0.1c0.1,0.1,0.1,0.2,0.1,0.3v2.1c0,0.7-0.3,1.3-0.8,1.8
			c-0.5,0.5-1.2,0.8-1.9,0.8c-0.7,0-1.4-0.3-1.9-0.8c-0.5-0.5-0.8-1.1-0.8-1.8v-4.3c0-0.7,0.3-1.3,0.8-1.8c0.5-0.5,1.2-0.8,1.9-0.8
			c0.5,0,1,0.1,1.4,0.4c0.4,0.3,0.7,0.6,0.9,0.9s0.3,0.7,0.3,1c0,0.1,0,0.2-0.1,0.3c-0.1,0.1-0.2,0.1-0.3,0.1h-0.8
			c-0.2,0-0.4-0.1-0.4-0.4c0-0.2-0.1-0.4-0.3-0.6c-0.2-0.2-0.4-0.3-0.7-0.3c-0.3,0-0.5,0.1-0.8,0.3c-0.2,0.2-0.3,0.4-0.3,0.7v4.4
			c0,0.3,0.1,0.5,0.3,0.7c0.2,0.2,0.5,0.3,0.8,0.3c0.3,0,0.5-0.1,0.8-0.3c0.2-0.2,0.4-0.4,0.4-0.7l0-1.1h-0.8c-0.1,0-0.2,0-0.2-0.1
			c-0.1-0.1-0.1-0.1-0.1-0.2v-0.8c0-0.1,0-0.2,0.1-0.2C353.3,163.1,353.4,163,353.5,163z"/>
		<path class="st3" d="M363.6,159.2v8.4c0,0.1,0,0.2-0.1,0.3s-0.2,0.1-0.3,0.1h-0.8c-0.1,0-0.2,0-0.3-0.1s-0.1-0.2-0.1-0.3V164h-2.2
			v3.6c0,0.1,0,0.2-0.1,0.3s-0.2,0.1-0.3,0.1h-0.8c-0.1,0-0.2,0-0.3-0.1c-0.1-0.1-0.1-0.2-0.1-0.3v-8.4c0-0.1,0-0.2,0.1-0.3
			c0.1-0.1,0.2-0.1,0.3-0.1h0.8c0.1,0,0.2,0,0.3,0.1s0.1,0.2,0.1,0.3v3.2h2.2v-3.2c0-0.1,0-0.2,0.1-0.3s0.2-0.1,0.3-0.1h0.8
			c0.1,0,0.2,0,0.3,0.1S363.6,159.1,363.6,159.2z"/>
	</g>
</g>
<g>
	<g class="st0">
		<path d="M441.1,150.6v-0.8c0-0.1,0-0.2,0.1-0.3c0.1-0.1,0.2-0.1,0.3-0.1h7.2v-3.3c0-0.1,0-0.2,0.1-0.3c0.1-0.1,0.2-0.1,0.3-0.1
			h0.7c0.1,0,0.2,0,0.3,0.1c0.1,0.1,0.1,0.2,0.1,0.3v4.5c0,0.1,0,0.2-0.1,0.3c-0.1,0.1-0.2,0.1-0.3,0.1h-8.4c-0.1,0-0.2,0-0.3-0.1
			S441.1,150.7,441.1,150.6z"/>
		<path d="M443.6,138.1h4.3c0.7,0,1.3,0.3,1.8,0.8c0.5,0.5,0.8,1.2,0.8,1.9c0,0.8-0.3,1.4-0.8,1.9c-0.5,0.5-1.1,0.8-1.8,0.8h-4.3
			c-0.7,0-1.3-0.3-1.8-0.8c-0.5-0.5-0.8-1.2-0.8-1.9c0-0.8,0.2-1.4,0.8-1.9C442.2,138.3,442.9,138.1,443.6,138.1z M447.9,139.6h-4.4
			c-0.3,0-0.5,0.1-0.7,0.3s-0.3,0.5-0.3,0.8c0,0.3,0.1,0.6,0.3,0.8s0.4,0.3,0.7,0.3h4.4c0.3,0,0.5-0.1,0.7-0.3
			c0.2-0.2,0.3-0.5,0.3-0.8c0-0.3-0.1-0.6-0.3-0.8C448.4,139.8,448.2,139.6,447.9,139.6z"/>
		<path d="M445.5,132.1l3.1-0.5v-0.2l-3.7-0.2h-3.4c-0.1,0-0.2,0-0.3-0.1c-0.1-0.1-0.1-0.2-0.1-0.3v-0.7c0-0.1,0-0.2,0.1-0.3
			c0.1-0.1,0.2-0.1,0.3-0.1h3.3c0.1,0,0.3,0,0.5,0l4.6,0.4c0.1,0,0.2,0.1,0.3,0.1s0.1,0.2,0.1,0.3v1.3c0,0.1,0,0.2-0.1,0.3
			c-0.1,0.1-0.2,0.1-0.3,0.1l-3.4,0.5v0.2l3.4,0.5c0.1,0,0.2,0.1,0.3,0.1c0.1,0.1,0.1,0.2,0.1,0.3v1.3c0,0.1,0,0.2-0.1,0.3
			c-0.1,0.1-0.2,0.1-0.3,0.1l-4.6,0.4c-0.3,0-0.4,0-0.5,0h-3.3c-0.1,0-0.2,0-0.3-0.1s-0.1-0.2-0.1-0.3V135c0-0.1,0-0.2,0.1-0.3
			c0.1-0.1,0.2-0.1,0.3-0.1h3.4l3.7-0.2v-0.2l-3.1-0.5c-0.3,0-0.4-0.2-0.4-0.4v-0.9C445.2,132.3,445.3,132.2,445.5,132.1z"/>
	</g>
	<g class="st0">
		<path class="st1" d="M441.1,150.6v-0.8c0-0.1,0-0.2,0.1-0.3c0.1-0.1,0.2-0.1,0.3-0.1h7.2v-3.3c0-0.1,0-0.2,0.1-0.3
			c0.1-0.1,0.2-0.1,0.3-0.1h0.7c0.1,0,0.2,0,0.3,0.1c0.1,0.1,0.1,0.2,0.1,0.3v4.5c0,0.1,0,0.2-0.1,0.3c-0.1,0.1-0.2,0.1-0.3,0.1
			h-8.4c-0.1,0-0.2,0-0.3-0.1S441.1,150.7,441.1,150.6z"/>
		<path class="st1" d="M443.6,138.1h4.3c0.7,0,1.3,0.3,1.8,0.8c0.5,0.5,0.8,1.2,0.8,1.9c0,0.8-0.3,1.4-0.8,1.9
			c-0.5,0.5-1.1,0.8-1.8,0.8h-4.3c-0.7,0-1.3-0.3-1.8-0.8c-0.5-0.5-0.8-1.2-0.8-1.9c0-0.8,0.2-1.4,0.8-1.9
			C442.2,138.3,442.9,138.1,443.6,138.1z M447.9,139.6h-4.4c-0.3,0-0.5,0.1-0.7,0.3s-0.3,0.5-0.3,0.8c0,0.3,0.1,0.6,0.3,0.8
			s0.4,0.3,0.7,0.3h4.4c0.3,0,0.5-0.1,0.7-0.3c0.2-0.2,0.3-0.5,0.3-0.8c0-0.3-0.1-0.6-0.3-0.8C448.4,139.8,448.2,139.6,447.9,139.6z
			"/>
		<path class="st1" d="M445.5,132.1l3.1-0.5v-0.2l-3.7-0.2h-3.4c-0.1,0-0.2,0-0.3-0.1c-0.1-0.1-0.1-0.2-0.1-0.3v-0.7
			c0-0.1,0-0.2,0.1-0.3c0.1-0.1,0.2-0.1,0.3-0.1h3.3c0.1,0,0.3,0,0.5,0l4.6,0.4c0.1,0,0.2,0.1,0.3,0.1s0.1,0.2,0.1,0.3v1.3
			c0,0.1,0,0.2-0.1,0.3c-0.1,0.1-0.2,0.1-0.3,0.1l-3.4,0.5v0.2l3.4,0.5c0.1,0,0.2,0.1,0.3,0.1c0.1,0.1,0.1,0.2,0.1,0.3v1.3
			c0,0.1,0,0.2-0.1,0.3c-0.1,0.1-0.2,0.1-0.3,0.1l-4.6,0.4c-0.3,0-0.4,0-0.5,0h-3.3c-0.1,0-0.2,0-0.3-0.1s-0.1-0.2-0.1-0.3V135
			c0-0.1,0-0.2,0.1-0.3c0.1-0.1,0.2-0.1,0.3-0.1h3.4l3.7-0.2v-0.2l-3.1-0.5c-0.3,0-0.4-0.2-0.4-0.4v-0.9
			C445.2,132.3,445.3,132.2,445.5,132.1z"/>
	</g>
	<g class="st0">
		<path class="st3" d="M441.1,150.6v-0.8c0-0.1,0-0.2,0.1-0.3c0.1-0.1,0.2-0.1,0.3-0.1h7.2v-3.3c0-0.1,0-0.2,0.1-0.3
			c0.1-0.1,0.2-0.1,0.3-0.1h0.7c0.1,0,0.2,0,0.3,0.1c0.1,0.1,0.1,0.2,0.1,0.3v4.5c0,0.1,0,0.2-0.1,0.3c-0.1,0.1-0.2,0.1-0.3,0.1
			h-8.4c-0.1,0-0.2,0-0.3-0.1S441.1,150.7,441.1,150.6z"/>
		<path class="st3" d="M443.6,138.1h4.3c0.7,0,1.3,0.3,1.8,0.8c0.5,0.5,0.8,1.2,0.8,1.9c0,0.8-0.3,1.4-0.8,1.9
			c-0.5,0.5-1.1,0.8-1.8,0.8h-4.3c-0.7,0-1.3-0.3-1.8-0.8c-0.5-0.5-0.8-1.2-0.8-1.9c0-0.8,0.2-1.4,0.8-1.9
			C442.2,138.3,442.9,138.1,443.6,138.1z M447.9,139.6h-4.4c-0.3,0-0.5,0.1-0.7,0.3s-0.3,0.5-0.3,0.8c0,0.3,0.1,0.6,0.3,0.8
			s0.4,0.3,0.7,0.3h4.4c0.3,0,0.5-0.1,0.7-0.3c0.2-0.2,0.3-0.5,0.3-0.8c0-0.3-0.1-0.6-0.3-0.8C448.4,139.8,448.2,139.6,447.9,139.6z
			"/>
		<path class="st3" d="M445.5,132.1l3.1-0.5v-0.2l-3.7-0.2h-3.4c-0.1,0-0.2,0-0.3-0.1c-0.1-0.1-0.1-0.2-0.1-0.3v-0.7
			c0-0.1,0-0.2,0.1-0.3c0.1-0.1,0.2-0.1,0.3-0.1h3.3c0.1,0,0.3,0,0.5,0l4.6,0.4c0.1,0,0.2,0.1,0.3,0.1s0.1,0.2,0.1,0.3v1.3
			c0,0.1,0,0.2-0.1,0.3c-0.1,0.1-0.2,0.1-0.3,0.1l-3.4,0.5v0.2l3.4,0.5c0.1,0,0.2,0.1,0.3,0.1c0.1,0.1,0.1,0.2,0.1,0.3v1.3
			c0,0.1,0,0.2-0.1,0.3c-0.1,0.1-0.2,0.1-0.3,0.1l-4.6,0.4c-0.3,0-0.4,0-0.5,0h-3.3c-0.1,0-0.2,0-0.3-0.1s-0.1-0.2-0.1-0.3V135
			c0-0.1,0-0.2,0.1-0.3c0.1-0.1,0.2-0.1,0.3-0.1h3.4l3.7-0.2v-0.2l-3.1-0.5c-0.3,0-0.4-0.2-0.4-0.4v-0.9
			C445.2,132.3,445.3,132.2,445.5,132.1z"/>
	</g>
</g>
<g>
	<g>
		<line class="st4" x1="444.8" y1="124.4" x2="444.8" y2="88.4"/>
		<g>
			<polygon class="st3" points="448.9,91.8 448.1,92.4 444.8,88.8 441.4,92.4 440.7,91.8 444.8,87.4 			"/>
		</g>
	</g>
</g>
<g>
	<g class="st0">
		<path d="M441.5,73.3h8.4c0.1,0,0.2,0,0.3,0.1c0.1,0.1,0.1,0.2,0.1,0.3v0.8c0,0.1,0,0.2-0.1,0.3c-0.1,0.1-0.2,0.1-0.3,0.1h-3.6V77
			h3.6c0.1,0,0.2,0,0.3,0.1c0.1,0.1,0.1,0.2,0.1,0.3v0.8c0,0.1,0,0.2-0.1,0.3c-0.1,0.1-0.2,0.1-0.3,0.1h-8.4c-0.1,0-0.2,0-0.3-0.1
			c-0.1-0.1-0.1-0.2-0.1-0.3v-0.8c0-0.1,0-0.2,0.1-0.3c0.1-0.1,0.2-0.1,0.3-0.1h3.2v-2.2h-3.2c-0.1,0-0.2,0-0.3-0.1
			c-0.1-0.1-0.1-0.2-0.1-0.3v-0.8c0-0.1,0-0.2,0.1-0.3S441.4,73.3,441.5,73.3z"/>
		<path d="M449.1,65.5h0.9c0.2,0,0.3,0.1,0.3,0.3v4.6c0,0.1,0,0.2-0.1,0.2c-0.1,0.1-0.1,0.1-0.2,0.1h-0.9c-0.1,0-0.2,0-0.2-0.1
			c-0.1-0.1-0.1-0.1-0.1-0.2v-1.5h-6.1v1.5c0,0.1,0,0.2-0.1,0.2c-0.1,0.1-0.1,0.1-0.2,0.1h-0.9c-0.1,0-0.2,0-0.2-0.1
			s-0.1-0.1-0.1-0.2v-4.6c0-0.2,0.1-0.3,0.3-0.3h0.9c0.2,0,0.3,0.1,0.3,0.3v1.5h6.1v-1.5C448.8,65.6,448.9,65.5,449.1,65.5z"/>
		<path d="M445.3,59.9v-2c0-0.1,0-0.2,0.1-0.3c0.1-0.1,0.2-0.1,0.3-0.1h2.1c0.7,0,1.3,0.3,1.8,0.8s0.8,1.2,0.8,1.9
			c0,0.7-0.3,1.4-0.8,1.9c-0.5,0.5-1.1,0.8-1.8,0.8h-4.3c-0.7,0-1.3-0.3-1.8-0.8c-0.5-0.5-0.8-1.2-0.8-1.9c0-0.5,0.1-1,0.4-1.4
			s0.6-0.7,0.9-0.9c0.3-0.2,0.7-0.3,1-0.3c0.1,0,0.2,0,0.3,0.1c0.1,0.1,0.1,0.2,0.1,0.3v0.8c0,0.2-0.1,0.4-0.4,0.4
			c-0.2,0-0.4,0.1-0.6,0.3c-0.2,0.2-0.3,0.4-0.3,0.7c0,0.3,0.1,0.5,0.3,0.8c0.2,0.2,0.4,0.3,0.7,0.3h4.4c0.3,0,0.5-0.1,0.7-0.3
			s0.3-0.5,0.3-0.8c0-0.3-0.1-0.5-0.3-0.8c-0.2-0.2-0.4-0.4-0.7-0.4l-1.1,0v0.8c0,0.1,0,0.2-0.1,0.2c-0.1,0.1-0.1,0.1-0.2,0.1h-0.8
			c-0.1,0-0.2,0-0.2-0.1C445.4,60.1,445.3,60,445.3,59.9z"/>
		<path d="M441.5,49.8h8.4c0.1,0,0.2,0,0.3,0.1c0.1,0.1,0.1,0.2,0.1,0.3v0.8c0,0.1,0,0.2-0.1,0.3c-0.1,0.1-0.2,0.1-0.3,0.1h-3.6v2.2
			h3.6c0.1,0,0.2,0,0.3,0.1c0.1,0.1,0.1,0.2,0.1,0.3v0.8c0,0.1,0,0.2-0.1,0.3c-0.1,0.1-0.2,0.1-0.3,0.1h-8.4c-0.1,0-0.2,0-0.3-0.1
			c-0.1-0.1-0.1-0.2-0.1-0.3v-0.8c0-0.1,0-0.2,0.1-0.3c0.1-0.1,0.2-0.1,0.3-0.1h3.2v-2.2h-3.2c-0.1,0-0.2,0-0.3-0.1
			c-0.1-0.1-0.1-0.2-0.1-0.3v-0.8c0-0.1,0-0.2,0.1-0.3S441.4,49.8,441.5,49.8z"/>
	</g>
	<g class="st0">
		<path class="st1" d="M441.5,73.3h8.4c0.1,0,0.2,0,0.3,0.1c0.1,0.1,0.1,0.2,0.1,0.3v0.8c0,0.1,0,0.2-0.1,0.3
			c-0.1,0.1-0.2,0.1-0.3,0.1h-3.6V77h3.6c0.1,0,0.2,0,0.3,0.1c0.1,0.1,0.1,0.2,0.1,0.3v0.8c0,0.1,0,0.2-0.1,0.3
			c-0.1,0.1-0.2,0.1-0.3,0.1h-8.4c-0.1,0-0.2,0-0.3-0.1c-0.1-0.1-0.1-0.2-0.1-0.3v-0.8c0-0.1,0-0.2,0.1-0.3c0.1-0.1,0.2-0.1,0.3-0.1
			h3.2v-2.2h-3.2c-0.1,0-0.2,0-0.3-0.1c-0.1-0.1-0.1-0.2-0.1-0.3v-0.8c0-0.1,0-0.2,0.1-0.3S441.4,73.3,441.5,73.3z"/>
		<path class="st1" d="M449.1,65.5h0.9c0.2,0,0.3,0.1,0.3,0.3v4.6c0,0.1,0,0.2-0.1,0.2c-0.1,0.1-0.1,0.1-0.2,0.1h-0.9
			c-0.1,0-0.2,0-0.2-0.1c-0.1-0.1-0.1-0.1-0.1-0.2v-1.5h-6.1v1.5c0,0.1,0,0.2-0.1,0.2c-0.1,0.1-0.1,0.1-0.2,0.1h-0.9
			c-0.1,0-0.2,0-0.2-0.1s-0.1-0.1-0.1-0.2v-4.6c0-0.2,0.1-0.3,0.3-0.3h0.9c0.2,0,0.3,0.1,0.3,0.3v1.5h6.1v-1.5
			C448.8,65.6,448.9,65.5,449.1,65.5z"/>
		<path class="st1" d="M445.3,59.9v-2c0-0.1,0-0.2,0.1-0.3c0.1-0.1,0.2-0.1,0.3-0.1h2.1c0.7,0,1.3,0.3,1.8,0.8s0.8,1.2,0.8,1.9
			c0,0.7-0.3,1.4-0.8,1.9c-0.5,0.5-1.1,0.8-1.8,0.8h-4.3c-0.7,0-1.3-0.3-1.8-0.8c-0.5-0.5-0.8-1.2-0.8-1.9c0-0.5,0.1-1,0.4-1.4
			s0.6-0.7,0.9-0.9c0.3-0.2,0.7-0.3,1-0.3c0.1,0,0.2,0,0.3,0.1c0.1,0.1,0.1,0.2,0.1,0.3v0.8c0,0.2-0.1,0.4-0.4,0.4
			c-0.2,0-0.4,0.1-0.6,0.3c-0.2,0.2-0.3,0.4-0.3,0.7c0,0.3,0.1,0.5,0.3,0.8c0.2,0.2,0.4,0.3,0.7,0.3h4.4c0.3,0,0.5-0.1,0.7-0.3
			s0.3-0.5,0.3-0.8c0-0.3-0.1-0.5-0.3-0.8c-0.2-0.2-0.4-0.4-0.7-0.4l-1.1,0v0.8c0,0.1,0,0.2-0.1,0.2c-0.1,0.1-0.1,0.1-0.2,0.1h-0.8
			c-0.1,0-0.2,0-0.2-0.1C445.4,60.1,445.3,60,445.3,59.9z"/>
		<path class="st1" d="M441.5,49.8h8.4c0.1,0,0.2,0,0.3,0.1c0.1,0.1,0.1,0.2,0.1,0.3v0.8c0,0.1,0,0.2-0.1,0.3
			c-0.1,0.1-0.2,0.1-0.3,0.1h-3.6v2.2h3.6c0.1,0,0.2,0,0.3,0.1c0.1,0.1,0.1,0.2,0.1,0.3v0.8c0,0.1,0,0.2-0.1,0.3
			c-0.1,0.1-0.2,0.1-0.3,0.1h-8.4c-0.1,0-0.2,0-0.3-0.1c-0.1-0.1-0.1-0.2-0.1-0.3v-0.8c0-0.1,0-0.2,0.1-0.3c0.1-0.1,0.2-0.1,0.3-0.1
			h3.2v-2.2h-3.2c-0.1,0-0.2,0-0.3-0.1c-0.1-0.1-0.1-0.2-0.1-0.3v-0.8c0-0.1,0-0.2,0.1-0.3S441.4,49.8,441.5,49.8z"/>
	</g>
	<g class="st0">
		<path class="st3" d="M441.5,73.3h8.4c0.1,0,0.2,0,0.3,0.1c0.1,0.1,0.1,0.2,0.1,0.3v0.8c0,0.1,0,0.2-0.1,0.3
			c-0.1,0.1-0.2,0.1-0.3,0.1h-3.6V77h3.6c0.1,0,0.2,0,0.3,0.1c0.1,0.1,0.1,0.2,0.1,0.3v0.8c0,0.1,0,0.2-0.1,0.3
			c-0.1,0.1-0.2,0.1-0.3,0.1h-8.4c-0.1,0-0.2,0-0.3-0.1c-0.1-0.1-0.1-0.2-0.1-0.3v-0.8c0-0.1,0-0.2,0.1-0.3c0.1-0.1,0.2-0.1,0.3-0.1
			h3.2v-2.2h-3.2c-0.1,0-0.2,0-0.3-0.1c-0.1-0.1-0.1-0.2-0.1-0.3v-0.8c0-0.1,0-0.2,0.1-0.3S441.4,73.3,441.5,73.3z"/>
		<path class="st3" d="M449.1,65.5h0.9c0.2,0,0.3,0.1,0.3,0.3v4.6c0,0.1,0,0.2-0.1,0.2c-0.1,0.1-0.1,0.1-0.2,0.1h-0.9
			c-0.1,0-0.2,0-0.2-0.1c-0.1-0.1-0.1-0.1-0.1-0.2v-1.5h-6.1v1.5c0,0.1,0,0.2-0.1,0.2c-0.1,0.1-0.1,0.1-0.2,0.1h-0.9
			c-0.1,0-0.2,0-0.2-0.1s-0.1-0.1-0.1-0.2v-4.6c0-0.2,0.1-0.3,0.3-0.3h0.9c0.2,0,0.3,0.1,0.3,0.3v1.5h6.1v-1.5
			C448.8,65.6,448.9,65.5,449.1,65.5z"/>
		<path class="st3" d="M445.3,59.9v-2c0-0.1,0-0.2,0.1-0.3c0.1-0.1,0.2-0.1,0.3-0.1h2.1c0.7,0,1.3,0.3,1.8,0.8s0.8,1.2,0.8,1.9
			c0,0.7-0.3,1.4-0.8,1.9c-0.5,0.5-1.1,0.8-1.8,0.8h-4.3c-0.7,0-1.3-0.3-1.8-0.8c-0.5-0.5-0.8-1.2-0.8-1.9c0-0.5,0.1-1,0.4-1.4
			s0.6-0.7,0.9-0.9c0.3-0.2,0.7-0.3,1-0.3c0.1,0,0.2,0,0.3,0.1c0.1,0.1,0.1,0.2,0.1,0.3v0.8c0,0.2-0.1,0.4-0.4,0.4
			c-0.2,0-0.4,0.1-0.6,0.3c-0.2,0.2-0.3,0.4-0.3,0.7c0,0.3,0.1,0.5,0.3,0.8c0.2,0.2,0.4,0.3,0.7,0.3h4.4c0.3,0,0.5-0.1,0.7-0.3
			s0.3-0.5,0.3-0.8c0-0.3-0.1-0.5-0.3-0.8c-0.2-0.2-0.4-0.4-0.7-0.4l-1.1,0v0.8c0,0.1,0,0.2-0.1,0.2c-0.1,0.1-0.1,0.1-0.2,0.1h-0.8
			c-0.1,0-0.2,0-0.2-0.1C445.4,60.1,445.3,60,445.3,59.9z"/>
		<path class="st3" d="M441.5,49.8h8.4c0.1,0,0.2,0,0.3,0.1c0.1,0.1,0.1,0.2,0.1,0.3v0.8c0,0.1,0,0.2-0.1,0.3
			c-0.1,0.1-0.2,0.1-0.3,0.1h-3.6v2.2h3.6c0.1,0,0.2,0,0.3,0.1c0.1,0.1,0.1,0.2,0.1,0.3v0.8c0,0.1,0,0.2-0.1,0.3
			c-0.1,0.1-0.2,0.1-0.3,0.1h-8.4c-0.1,0-0.2,0-0.3-0.1c-0.1-0.1-0.1-0.2-0.1-0.3v-0.8c0-0.1,0-0.2,0.1-0.3c0.1-0.1,0.2-0.1,0.3-0.1
			h3.2v-2.2h-3.2c-0.1,0-0.2,0-0.3-0.1c-0.1-0.1-0.1-0.2-0.1-0.3v-0.8c0-0.1,0-0.2,0.1-0.3S441.4,49.8,441.5,49.8z"/>
	</g>
</g>
<g>
	<g class="st0">
		<path d="M460.3,159h0.8c0.1,0,0.2,0,0.3,0.1c0.1,0.1,0.1,0.2,0.1,0.3v7.2h3.3c0.1,0,0.2,0,0.3,0.1c0.1,0.1,0.1,0.2,0.1,0.3v0.7
			c0,0.1,0,0.2-0.1,0.3c-0.1,0.1-0.2,0.1-0.3,0.1h-4.5c-0.1,0-0.2,0-0.3-0.1c-0.1-0.1-0.1-0.2-0.1-0.3v-8.4c0-0.1,0-0.2,0.1-0.3
			S460.2,159,460.3,159z"/>
		<path d="M472.8,161.4v4.3c0,0.7-0.3,1.3-0.8,1.8c-0.5,0.5-1.2,0.8-1.9,0.8s-1.4-0.3-1.9-0.8s-0.8-1.1-0.8-1.8v-4.3
			c0-0.7,0.3-1.3,0.8-1.8s1.2-0.8,1.9-0.8s1.4,0.2,1.9,0.8C472.6,160.1,472.8,160.7,472.8,161.4z M471.3,165.8v-4.4
			c0-0.3-0.1-0.5-0.3-0.7c-0.2-0.2-0.5-0.3-0.8-0.3s-0.6,0.1-0.8,0.3s-0.3,0.4-0.3,0.7v4.4c0,0.3,0.1,0.5,0.3,0.7
			c0.2,0.2,0.5,0.3,0.8,0.3s0.6-0.1,0.8-0.3C471.2,166.3,471.3,166.1,471.3,165.8z"/>
		<path d="M478.8,163.4l0.5,3.1h0.2l0.2-3.7v-3.4c0-0.1,0-0.2,0.1-0.3c0.1-0.1,0.2-0.1,0.3-0.1h0.7c0.1,0,0.2,0,0.3,0.1
			c0.1,0.1,0.1,0.2,0.1,0.3v3.3c0,0.1,0,0.3,0,0.5l-0.4,4.6c0,0.1-0.1,0.2-0.1,0.3s-0.2,0.1-0.3,0.1H479c-0.1,0-0.2,0-0.3-0.1
			c-0.1-0.1-0.1-0.2-0.1-0.3l-0.5-3.4h-0.2l-0.5,3.4c0,0.1-0.1,0.2-0.1,0.3s-0.2,0.1-0.3,0.1h-1.3c-0.1,0-0.2,0-0.3-0.1
			s-0.1-0.2-0.1-0.3l-0.4-4.6c0-0.3,0-0.4,0-0.5v-3.3c0-0.1,0-0.2,0.1-0.3c0.1-0.1,0.2-0.1,0.3-0.1h0.7c0.1,0,0.2,0,0.3,0.1
			s0.1,0.2,0.1,0.3v3.4l0.2,3.7h0.2l0.5-3.1c0-0.3,0.2-0.4,0.4-0.4h0.9C478.6,163,478.8,163.2,478.8,163.4z"/>
	</g>
	<g class="st0">
		<path class="st1" d="M460.3,159h0.8c0.1,0,0.2,0,0.3,0.1c0.1,0.1,0.1,0.2,0.1,0.3v7.2h3.3c0.1,0,0.2,0,0.3,0.1
			c0.1,0.1,0.1,0.2,0.1,0.3v0.7c0,0.1,0,0.2-0.1,0.3c-0.1,0.1-0.2,0.1-0.3,0.1h-4.5c-0.1,0-0.2,0-0.3-0.1c-0.1-0.1-0.1-0.2-0.1-0.3
			v-8.4c0-0.1,0-0.2,0.1-0.3S460.2,159,460.3,159z"/>
		<path class="st1" d="M472.8,161.4v4.3c0,0.7-0.3,1.3-0.8,1.8c-0.5,0.5-1.2,0.8-1.9,0.8s-1.4-0.3-1.9-0.8s-0.8-1.1-0.8-1.8v-4.3
			c0-0.7,0.3-1.3,0.8-1.8s1.2-0.8,1.9-0.8s1.4,0.2,1.9,0.8C472.6,160.1,472.8,160.7,472.8,161.4z M471.3,165.8v-4.4
			c0-0.3-0.1-0.5-0.3-0.7c-0.2-0.2-0.5-0.3-0.8-0.3s-0.6,0.1-0.8,0.3s-0.3,0.4-0.3,0.7v4.4c0,0.3,0.1,0.5,0.3,0.7
			c0.2,0.2,0.5,0.3,0.8,0.3s0.6-0.1,0.8-0.3C471.2,166.3,471.3,166.1,471.3,165.8z"/>
		<path class="st1" d="M478.8,163.4l0.5,3.1h0.2l0.2-3.7v-3.4c0-0.1,0-0.2,0.1-0.3c0.1-0.1,0.2-0.1,0.3-0.1h0.7c0.1,0,0.2,0,0.3,0.1
			c0.1,0.1,0.1,0.2,0.1,0.3v3.3c0,0.1,0,0.3,0,0.5l-0.4,4.6c0,0.1-0.1,0.2-0.1,0.3s-0.2,0.1-0.3,0.1H479c-0.1,0-0.2,0-0.3-0.1
			c-0.1-0.1-0.1-0.2-0.1-0.3l-0.5-3.4h-0.2l-0.5,3.4c0,0.1-0.1,0.2-0.1,0.3s-0.2,0.1-0.3,0.1h-1.3c-0.1,0-0.2,0-0.3-0.1
			s-0.1-0.2-0.1-0.3l-0.4-4.6c0-0.3,0-0.4,0-0.5v-3.3c0-0.1,0-0.2,0.1-0.3c0.1-0.1,0.2-0.1,0.3-0.1h0.7c0.1,0,0.2,0,0.3,0.1
			s0.1,0.2,0.1,0.3v3.4l0.2,3.7h0.2l0.5-3.1c0-0.3,0.2-0.4,0.4-0.4h0.9C478.6,163,478.8,163.2,478.8,163.4z"/>
	</g>
	<g class="st0">
		<path class="st3" d="M460.3,159h0.8c0.1,0,0.2,0,0.3,0.1c0.1,0.1,0.1,0.2,0.1,0.3v7.2h3.3c0.1,0,0.2,0,0.3,0.1
			c0.1,0.1,0.1,0.2,0.1,0.3v0.7c0,0.1,0,0.2-0.1,0.3c-0.1,0.1-0.2,0.1-0.3,0.1h-4.5c-0.1,0-0.2,0-0.3-0.1c-0.1-0.1-0.1-0.2-0.1-0.3
			v-8.4c0-0.1,0-0.2,0.1-0.3S460.2,159,460.3,159z"/>
		<path class="st3" d="M472.8,161.4v4.3c0,0.7-0.3,1.3-0.8,1.8c-0.5,0.5-1.2,0.8-1.9,0.8s-1.4-0.3-1.9-0.8s-0.8-1.1-0.8-1.8v-4.3
			c0-0.7,0.3-1.3,0.8-1.8s1.2-0.8,1.9-0.8s1.4,0.2,1.9,0.8C472.6,160.1,472.8,160.7,472.8,161.4z M471.3,165.8v-4.4
			c0-0.3-0.1-0.5-0.3-0.7c-0.2-0.2-0.5-0.3-0.8-0.3s-0.6,0.1-0.8,0.3s-0.3,0.4-0.3,0.7v4.4c0,0.3,0.1,0.5,0.3,0.7
			c0.2,0.2,0.5,0.3,0.8,0.3s0.6-0.1,0.8-0.3C471.2,166.3,471.3,166.1,471.3,165.8z"/>
		<path class="st3" d="M478.8,163.4l0.5,3.1h0.2l0.2-3.7v-3.4c0-0.1,0-0.2,0.1-0.3c0.1-0.1,0.2-0.1,0.3-0.1h0.7c0.1,0,0.2,0,0.3,0.1
			c0.1,0.1,0.1,0.2,0.1,0.3v3.3c0,0.1,0,0.3,0,0.5l-0.4,4.6c0,0.1-0.1,0.2-0.1,0.3s-0.2,0.1-0.3,0.1H479c-0.1,0-0.2,0-0.3-0.1
			c-0.1-0.1-0.1-0.2-0.1-0.3l-0.5-3.4h-0.2l-0.5,3.4c0,0.1-0.1,0.2-0.1,0.3s-0.2,0.1-0.3,0.1h-1.3c-0.1,0-0.2,0-0.3-0.1
			s-0.1-0.2-0.1-0.3l-0.4-4.6c0-0.3,0-0.4,0-0.5v-3.3c0-0.1,0-0.2,0.1-0.3c0.1-0.1,0.2-0.1,0.3-0.1h0.7c0.1,0,0.2,0,0.3,0.1
			s0.1,0.2,0.1,0.3v3.4l0.2,3.7h0.2l0.5-3.1c0-0.3,0.2-0.4,0.4-0.4h0.9C478.6,163,478.8,163.2,478.8,163.4z"/>
	</g>
</g>
<g>
	<g class="st0">
		<path d="M540.6,159.4v8.4c0,0.1,0,0.2-0.1,0.3c-0.1,0.1-0.2,0.1-0.3,0.1h-0.8c-0.1,0-0.2,0-0.3-0.1c-0.1-0.1-0.1-0.2-0.1-0.3v-3.6
			h-2.2v3.6c0,0.1,0,0.2-0.1,0.3c-0.1,0.1-0.2,0.1-0.3,0.1h-0.8c-0.1,0-0.2,0-0.3-0.1c-0.1-0.1-0.1-0.2-0.1-0.3v-8.4
			c0-0.1,0-0.2,0.1-0.3c0.1-0.1,0.2-0.1,0.3-0.1h0.8c0.1,0,0.2,0,0.3,0.1s0.1,0.2,0.1,0.3v3.2h2.2v-3.2c0-0.1,0-0.2,0.1-0.3
			s0.2-0.1,0.3-0.1h0.8c0.1,0,0.2,0,0.3,0.1S540.6,159.3,540.6,159.4z"/>
		<path d="M548.4,166.9v0.9c0,0.2-0.1,0.3-0.3,0.3h-4.6c-0.1,0-0.2,0-0.2-0.1c-0.1-0.1-0.1-0.1-0.1-0.2v-0.9c0-0.1,0-0.2,0.1-0.2
			c0.1-0.1,0.1-0.1,0.2-0.1h1.5v-6.1h-1.5c-0.1,0-0.2,0-0.2-0.1c-0.1-0.1-0.1-0.1-0.1-0.2v-0.9c0-0.1,0-0.2,0.1-0.2
			c0.1-0.1,0.1-0.1,0.2-0.1h4.6c0.2,0,0.3,0.1,0.3,0.3v0.9c0,0.2-0.1,0.3-0.3,0.3h-1.5v6.1h1.5C548.3,166.6,548.4,166.7,548.4,166.9
			z"/>
		<path d="M554,163.2h2c0.1,0,0.2,0,0.3,0.1s0.1,0.2,0.1,0.3v2.1c0,0.7-0.3,1.3-0.8,1.8c-0.5,0.5-1.2,0.8-1.9,0.8
			c-0.7,0-1.4-0.3-1.9-0.8c-0.5-0.5-0.8-1.1-0.8-1.8v-4.3c0-0.7,0.3-1.3,0.8-1.8c0.5-0.5,1.2-0.8,1.9-0.8c0.5,0,1,0.1,1.4,0.4
			s0.7,0.6,0.9,0.9c0.2,0.3,0.3,0.7,0.3,1c0,0.1,0,0.2-0.1,0.3s-0.2,0.1-0.3,0.1h-0.8c-0.2,0-0.4-0.1-0.4-0.4c0-0.2-0.1-0.4-0.3-0.6
			c-0.2-0.2-0.4-0.3-0.7-0.3c-0.3,0-0.5,0.1-0.8,0.3c-0.2,0.2-0.3,0.4-0.3,0.7v4.4c0,0.3,0.1,0.5,0.3,0.7c0.2,0.2,0.5,0.3,0.8,0.3
			c0.3,0,0.5-0.1,0.8-0.3c0.2-0.2,0.4-0.4,0.4-0.7l0-1.1H554c-0.1,0-0.2,0-0.2-0.1s-0.1-0.1-0.1-0.2v-0.8c0-0.1,0-0.2,0.1-0.2
			C553.8,163.2,553.9,163.2,554,163.2z"/>
		<path d="M564.1,159.4v8.4c0,0.1,0,0.2-0.1,0.3c-0.1,0.1-0.2,0.1-0.3,0.1H563c-0.1,0-0.2,0-0.3-0.1c-0.1-0.1-0.1-0.2-0.1-0.3v-3.6
			h-2.2v3.6c0,0.1,0,0.2-0.1,0.3c-0.1,0.1-0.2,0.1-0.3,0.1h-0.8c-0.1,0-0.2,0-0.3-0.1c-0.1-0.1-0.1-0.2-0.1-0.3v-8.4
			c0-0.1,0-0.2,0.1-0.3s0.2-0.1,0.3-0.1h0.8c0.1,0,0.2,0,0.3,0.1c0.1,0.1,0.1,0.2,0.1,0.3v3.2h2.2v-3.2c0-0.1,0-0.2,0.1-0.3
			c0.1-0.1,0.2-0.1,0.3-0.1h0.8c0.1,0,0.2,0,0.3,0.1S564.1,159.3,564.1,159.4z"/>
	</g>
	<g class="st0">
		<path class="st1" d="M540.6,159.4v8.4c0,0.1,0,0.2-0.1,0.3c-0.1,0.1-0.2,0.1-0.3,0.1h-0.8c-0.1,0-0.2,0-0.3-0.1
			c-0.1-0.1-0.1-0.2-0.1-0.3v-3.6h-2.2v3.6c0,0.1,0,0.2-0.1,0.3c-0.1,0.1-0.2,0.1-0.3,0.1h-0.8c-0.1,0-0.2,0-0.3-0.1
			c-0.1-0.1-0.1-0.2-0.1-0.3v-8.4c0-0.1,0-0.2,0.1-0.3c0.1-0.1,0.2-0.1,0.3-0.1h0.8c0.1,0,0.2,0,0.3,0.1s0.1,0.2,0.1,0.3v3.2h2.2
			v-3.2c0-0.1,0-0.2,0.1-0.3s0.2-0.1,0.3-0.1h0.8c0.1,0,0.2,0,0.3,0.1S540.6,159.3,540.6,159.4z"/>
		<path class="st1" d="M548.4,166.9v0.9c0,0.2-0.1,0.3-0.3,0.3h-4.6c-0.1,0-0.2,0-0.2-0.1c-0.1-0.1-0.1-0.1-0.1-0.2v-0.9
			c0-0.1,0-0.2,0.1-0.2c0.1-0.1,0.1-0.1,0.2-0.1h1.5v-6.1h-1.5c-0.1,0-0.2,0-0.2-0.1c-0.1-0.1-0.1-0.1-0.1-0.2v-0.9
			c0-0.1,0-0.2,0.1-0.2c0.1-0.1,0.1-0.1,0.2-0.1h4.6c0.2,0,0.3,0.1,0.3,0.3v0.9c0,0.2-0.1,0.3-0.3,0.3h-1.5v6.1h1.5
			C548.3,166.6,548.4,166.7,548.4,166.9z"/>
		<path class="st1" d="M554,163.2h2c0.1,0,0.2,0,0.3,0.1s0.1,0.2,0.1,0.3v2.1c0,0.7-0.3,1.3-0.8,1.8c-0.5,0.5-1.2,0.8-1.9,0.8
			c-0.7,0-1.4-0.3-1.9-0.8c-0.5-0.5-0.8-1.1-0.8-1.8v-4.3c0-0.7,0.3-1.3,0.8-1.8c0.5-0.5,1.2-0.8,1.9-0.8c0.5,0,1,0.1,1.4,0.4
			s0.7,0.6,0.9,0.9c0.2,0.3,0.3,0.7,0.3,1c0,0.1,0,0.2-0.1,0.3s-0.2,0.1-0.3,0.1h-0.8c-0.2,0-0.4-0.1-0.4-0.4c0-0.2-0.1-0.4-0.3-0.6
			c-0.2-0.2-0.4-0.3-0.7-0.3c-0.3,0-0.5,0.1-0.8,0.3c-0.2,0.2-0.3,0.4-0.3,0.7v4.4c0,0.3,0.1,0.5,0.3,0.7c0.2,0.2,0.5,0.3,0.8,0.3
			c0.3,0,0.5-0.1,0.8-0.3c0.2-0.2,0.4-0.4,0.4-0.7l0-1.1H554c-0.1,0-0.2,0-0.2-0.1s-0.1-0.1-0.1-0.2v-0.8c0-0.1,0-0.2,0.1-0.2
			C553.8,163.2,553.9,163.2,554,163.2z"/>
		<path class="st1" d="M564.1,159.4v8.4c0,0.1,0,0.2-0.1,0.3c-0.1,0.1-0.2,0.1-0.3,0.1H563c-0.1,0-0.2,0-0.3-0.1
			c-0.1-0.1-0.1-0.2-0.1-0.3v-3.6h-2.2v3.6c0,0.1,0,0.2-0.1,0.3c-0.1,0.1-0.2,0.1-0.3,0.1h-0.8c-0.1,0-0.2,0-0.3-0.1
			c-0.1-0.1-0.1-0.2-0.1-0.3v-8.4c0-0.1,0-0.2,0.1-0.3s0.2-0.1,0.3-0.1h0.8c0.1,0,0.2,0,0.3,0.1c0.1,0.1,0.1,0.2,0.1,0.3v3.2h2.2
			v-3.2c0-0.1,0-0.2,0.1-0.3c0.1-0.1,0.2-0.1,0.3-0.1h0.8c0.1,0,0.2,0,0.3,0.1S564.1,159.3,564.1,159.4z"/>
	</g>
	<g class="st0">
		<path class="st3" d="M540.6,159.4v8.4c0,0.1,0,0.2-0.1,0.3c-0.1,0.1-0.2,0.1-0.3,0.1h-0.8c-0.1,0-0.2,0-0.3-0.1
			c-0.1-0.1-0.1-0.2-0.1-0.3v-3.6h-2.2v3.6c0,0.1,0,0.2-0.1,0.3c-0.1,0.1-0.2,0.1-0.3,0.1h-0.8c-0.1,0-0.2,0-0.3-0.1
			c-0.1-0.1-0.1-0.2-0.1-0.3v-8.4c0-0.1,0-0.2,0.1-0.3c0.1-0.1,0.2-0.1,0.3-0.1h0.8c0.1,0,0.2,0,0.3,0.1s0.1,0.2,0.1,0.3v3.2h2.2
			v-3.2c0-0.1,0-0.2,0.1-0.3s0.2-0.1,0.3-0.1h0.8c0.1,0,0.2,0,0.3,0.1S540.6,159.3,540.6,159.4z"/>
		<path class="st3" d="M548.4,166.9v0.9c0,0.2-0.1,0.3-0.3,0.3h-4.6c-0.1,0-0.2,0-0.2-0.1c-0.1-0.1-0.1-0.1-0.1-0.2v-0.9
			c0-0.1,0-0.2,0.1-0.2c0.1-0.1,0.1-0.1,0.2-0.1h1.5v-6.1h-1.5c-0.1,0-0.2,0-0.2-0.1c-0.1-0.1-0.1-0.1-0.1-0.2v-0.9
			c0-0.1,0-0.2,0.1-0.2c0.1-0.1,0.1-0.1,0.2-0.1h4.6c0.2,0,0.3,0.1,0.3,0.3v0.9c0,0.2-0.1,0.3-0.3,0.3h-1.5v6.1h1.5
			C548.3,166.6,548.4,166.7,548.4,166.9z"/>
		<path class="st3" d="M554,163.2h2c0.1,0,0.2,0,0.3,0.1s0.1,0.2,0.1,0.3v2.1c0,0.7-0.3,1.3-0.8,1.8c-0.5,0.5-1.2,0.8-1.9,0.8
			c-0.7,0-1.4-0.3-1.9-0.8c-0.5-0.5-0.8-1.1-0.8-1.8v-4.3c0-0.7,0.3-1.3,0.8-1.8c0.5-0.5,1.2-0.8,1.9-0.8c0.5,0,1,0.1,1.4,0.4
			s0.7,0.6,0.9,0.9c0.2,0.3,0.3,0.7,0.3,1c0,0.1,0,0.2-0.1,0.3s-0.2,0.1-0.3,0.1h-0.8c-0.2,0-0.4-0.1-0.4-0.4c0-0.2-0.1-0.4-0.3-0.6
			c-0.2-0.2-0.4-0.3-0.7-0.3c-0.3,0-0.5,0.1-0.8,0.3c-0.2,0.2-0.3,0.4-0.3,0.7v4.4c0,0.3,0.1,0.5,0.3,0.7c0.2,0.2,0.5,0.3,0.8,0.3
			c0.3,0,0.5-0.1,0.8-0.3c0.2-0.2,0.4-0.4,0.4-0.7l0-1.1H554c-0.1,0-0.2,0-0.2-0.1s-0.1-0.1-0.1-0.2v-0.8c0-0.1,0-0.2,0.1-0.2
			C553.8,163.2,553.9,163.2,554,163.2z"/>
		<path class="st3" d="M564.1,159.4v8.4c0,0.1,0,0.2-0.1,0.3c-0.1,0.1-0.2,0.1-0.3,0.1H563c-0.1,0-0.2,0-0.3-0.1
			c-0.1-0.1-0.1-0.2-0.1-0.3v-3.6h-2.2v3.6c0,0.1,0,0.2-0.1,0.3c-0.1,0.1-0.2,0.1-0.3,0.1h-0.8c-0.1,0-0.2,0-0.3-0.1
			c-0.1-0.1-0.1-0.2-0.1-0.3v-8.4c0-0.1,0-0.2,0.1-0.3s0.2-0.1,0.3-0.1h0.8c0.1,0,0.2,0,0.3,0.1c0.1,0.1,0.1,0.2,0.1,0.3v3.2h2.2
			v-3.2c0-0.1,0-0.2,0.1-0.3c0.1-0.1,0.2-0.1,0.3-0.1h0.8c0.1,0,0.2,0,0.3,0.1S564.1,159.3,564.1,159.4z"/>
	</g>
</g>
<g id="guides">
</g>
<defs  xmlns="http://www.w3.org/1999/xhtml">
	<style  type="text/css">
		<![CDATA[// FONTS //

@font-face {
  font-family: DecimaMonoPro;
  src: url('https://s0.wp.com/wp-content/themes/vip/espn-fivethirtyeight/assets/fonts/decimamonopro-bold-webfont.woff2') format('woff2'), /* Firefox, Chrome, Opera */
       url('https://s0.wp.com/wp-content/themes/vip/espn-fivethirtyeight/assets/fonts/decimamonopro-bold-webfont.woff') format('woff'); /* Other browsers */

  font-style: normal;
  font-weight: 700;
}

@font-face {
  font-family: DecimaMonoPro;
  src: url('https://s0.wp.com/wp-content/themes/vip/espn-fivethirtyeight/assets/fonts/decimamonopro-webfont.woff2') format('woff2'), /* Firefox, Chrome, Opera */
       url('https://s0.wp.com/wp-content/themes/vip/espn-fivethirtyeight/assets/fonts/decimamonopro-webfont.woff') format('woff'); /* Other browsers */

  font-style: normal;
  font-weight: 400;
}

@font-face {
  font-family: Decima;
  src: url('https://s0.wp.com/wp-content/themes/vip/espn-fivethirtyeight/assets/fonts/2F4FDA_0_0.woff2') format('woff2'), /* Firefox, Chrome, Opera */
       url('https://s0.wp.com/wp-content/themes/vip/espn-fivethirtyeight/assets/fonts/2F4FDA_0_0.woff') format('woff'); /* Other browsers */

  font-style: normal;
  font-weight: 400;
}

@font-face {
  font-family: AtlasGrotesk;
  src: url('https://s0.wp.com/wp-content/themes/vip/espn-fivethirtyeight/assets/fonts/AtlasGrotesk-Bold-Web.woff2') format('woff2'), /* Firefox, Chrome, Opera */
       url('https://s0.wp.com/wp-content/themes/vip/espn-fivethirtyeight/assets/fonts/AtlasGrotesk-Bold-Web.woff') format('woff'); /* Other browsers */

  font-style: normal;
  font-weight: 700;
}


@font-face {
  font-family: AtlasGrotesk;
  src: url('https://s0.wp.com/wp-content/themes/vip/espn-fivethirtyeight/assets/fonts/AtlasGrotesk-Regular-Web.woff2') format('woff2'), /* Firefox, Chrome, Opera */
       url('https://s0.wp.com/wp-content/themes/vip/espn-fivethirtyeight/assets/fonts/AtlasGrotesk-Regular-Web.woff') format('woff'); /* Other browsers */

  font-style: normal;
  font-weight: 400;
}

@font-face {
  font-family: ArnhemPro;
  src: url('https://s0.wp.com/wp-content/themes/vip/espn-fivethirtyeight/assets/fonts/ArnhemPro-Normal.woff2') format('woff2'), /* Firefox, Chrome, Opera */
       url('https://s0.wp.com/wp-content/themes/vip/espn-fivethirtyeight/assets/fonts/ArnhemPro-Normal.woff') format('woff'); /* Other browsers */

  font-style: normal;
  font-weight: 400;
}

@font-face {
  font-family: ArnhemPro;
  src: url('https://s0.wp.com/wp-content/themes/vip/espn-fivethirtyeight/assets/fonts/ArnhemPro-Black.woff2') format('woff2'), /* Firefox, Chrome, Opera */
       url('https://s0.wp.com/wp-content/themes/vip/espn-fivethirtyeight/assets/fonts/ArnhemPro-Black.woff') format('woff'); /* Other browsers */

  font-style: normal;
  font-weight: 700;
}

				
			]]>
	</style>
</defs>
<rect x="44.2" y="42.9" class="st5" width="36.3" height="36.3"/>
<rect x="80.5" y="42.9" class="st6" width="36.3" height="36.3"/>
<rect x="116.7" y="42.9" class="st7" width="36.3" height="36.3"/>
<rect x="44.2" y="79.1" class="st8" width="36.3" height="36.3"/>
<rect x="80.5" y="79.1" class="st9" width="36.3" height="36.3"/>
<rect x="116.7" y="79.1" class="st10" width="36.3" height="36.3"/>
<rect x="44.2" y="115.4" class="st11" width="36.3" height="36.3"/>
<rect x="80.5" y="115.4" class="st12" width="36.3" height="36.3"/>
<rect x="116.7" y="115.4" class="st13" width="36.3" height="36.3"/>
<rect x="44.2" y="42.9" class="st5" width="36.3" height="36.3"/>
<rect x="258.3" y="42.9" class="st14" width="36.3" height="36.3"/>
<rect x="294.6" y="42.9" class="st6" width="36.3" height="36.3"/>
<rect x="330.8" y="42.9" class="st7" width="36.3" height="36.3"/>
<rect x="258.3" y="79.1" class="st15" width="36.3" height="36.3"/>
<rect x="294.6" y="79.1" class="st9" width="36.3" height="36.3"/>
<rect x="330.8" y="79.1" class="st10" width="36.3" height="36.3"/>
<rect x="258.3" y="115.4" class="st11" width="36.3" height="36.3"/>
<rect x="294.6" y="115.4" class="st16" width="36.3" height="36.3"/>
<rect x="330.8" y="115.4" class="st17" width="36.3" height="36.3"/>
<rect x="258.3" y="42.9" class="st14" width="36.3" height="36.3"/>
<rect x="458.2" y="42.9" class="st14" width="36.3" height="36.3"/>
<rect x="494.4" y="42.9" class="st6" width="36.3" height="36.3"/>
<rect x="530.7" y="42.9" class="st18" width="36.3" height="36.3"/>
<rect x="458.2" y="79.1" class="st15" width="36.3" height="36.3"/>
<rect x="494.4" y="79.1" class="st19" width="36.3" height="36.3"/>
<rect x="530.7" y="79.1" class="st10" width="36.3" height="36.3"/>
<rect x="458.2" y="115.4" class="st11" width="36.3" height="36.3"/>
<rect x="494.4" y="115.4" class="st12" width="36.3" height="36.3"/>
<rect x="530.7" y="115.4" class="st13" width="36.3" height="36.3"/>
<g>
	<g>
		<line class="st20" x1="336.3" y1="182" x2="362.9" y2="182"/>
		<g>
			<polygon class="st2" points="359.6,186.1 359,185.4 362.6,182 359,178.7 359.6,177.9 364,182 			"/>
		</g>
	</g>
</g>
<g>
	<g>
		<line class="st20" x1="10.4" y1="89.4" x2="10.4" y2="62.7"/>
		<g>
			<polygon class="st2" points="14.5,66 13.7,66.7 10.4,63.1 7,66.7 6.3,66 10.4,61.6 			"/>
		</g>
	</g>
</g>
<g>
	<g>
		<line class="st4" x1="160.4" y1="259.1" x2="160.4" y2="223.1"/>
		<g>
			<polygon class="st3" points="164.5,226.5 163.7,227.1 160.4,223.5 157,227.1 156.3,226.5 160.4,222.1 			"/>
		</g>
	</g>
</g>
<g>
	<g>
		<line class="st4" x1="288.9" y1="162.6" x2="324.9" y2="162.6"/>
		<g>
			<polygon class="st3" points="321.6,166.7 320.9,166 324.6,162.6 320.9,159.3 321.6,158.5 326,162.6 			"/>
		</g>
	</g>
</g>
<g>
	<g>
		<line class="st4" x1="489" y1="162.6" x2="525" y2="162.6"/>
		<g>
			<polygon class="st3" points="521.7,166.7 521,166 524.7,162.6 521,159.3 521.7,158.5 526.1,162.6 			"/>
		</g>
	</g>
</g>
<g>
	<g>
		<line class="st4" x1="30.9" y1="122" x2="30.9" y2="86"/>
		<g>
			<polygon class="st3" points="35,89.4 34.2,90 30.9,86.4 27.5,90 26.8,89.4 30.9,85 			"/>
		</g>
	</g>
</g>
<g class="st0">
	<path class="st2" d="M34,21.8V10.3h3.5c1.7,0,3,0.4,4,1.3c1,0.9,1.5,2.3,1.5,4.2c0,2-0.5,3.4-1.5,4.4c-1,1-2.3,1.5-3.9,1.5H34z
		 M35.4,20.6h2.1c2.7,0,4.1-1.5,4.1-4.6c0-1.5-0.4-2.7-1.1-3.4c-0.7-0.7-1.7-1.1-2.9-1.1h-2.2V20.6z"/>
	<path class="st2" d="M45.5,12.1v-1.5h1.4v1.5H45.5z M45.5,21.8v-7.9h1.4v7.9H45.5z"/>
	<path class="st2" d="M54.9,15.9h-1.3c0-0.4-0.2-0.6-0.5-0.8s-0.6-0.3-1.1-0.3s-0.8,0.1-1.1,0.4c-0.3,0.2-0.4,0.5-0.4,0.9
		c0,0.3,0.1,0.6,0.3,0.7s0.5,0.3,0.9,0.4l1.2,0.2c0.8,0.1,1.4,0.4,1.7,0.7c0.3,0.4,0.5,0.9,0.5,1.6c0,0.8-0.3,1.4-0.8,1.8
		C53.7,21.8,53,22,52,22c-0.9,0-1.6-0.2-2.2-0.6c-0.6-0.4-0.9-1-0.9-1.8h1.3c0.1,0.9,0.7,1.4,1.8,1.4c0.5,0,1-0.1,1.3-0.4
		s0.5-0.6,0.5-1c0-0.3-0.1-0.6-0.2-0.8s-0.5-0.3-1-0.4l-1.2-0.2c-0.7-0.1-1.3-0.3-1.6-0.7s-0.5-0.8-0.5-1.5c0-0.7,0.3-1.3,0.8-1.7
		c0.5-0.4,1.2-0.7,2.1-0.7c0.9,0,1.5,0.2,2,0.6S54.8,15.2,54.9,15.9z"/>
	<path class="st2" d="M57.7,11.6h1.2v2.3h1.9v1h-1.9v4.7c0,0.4,0.1,0.7,0.3,0.9c0.2,0.2,0.5,0.3,0.9,0.3l0.9-0.1v1.1
		c-0.4,0.1-0.8,0.1-1.2,0.1c-0.8,0-1.3-0.2-1.6-0.5c-0.3-0.4-0.5-0.9-0.5-1.6v-4.9h-1.4v-1h0.2c0.5,0,0.9-0.1,1.1-0.3
		s0.2-0.7,0.2-1.4V11.6z"/>
	<path class="st2" d="M64.3,16.1H63c0-0.7,0.3-1.3,0.8-1.7s1.2-0.6,2.2-0.6c1,0,1.7,0.2,2.2,0.7c0.5,0.5,0.7,1.2,0.7,2.2v3.2
		c0,0.3,0,0.6,0.1,0.7s0.3,0.2,0.6,0.2v1.1h-0.2c-0.6,0-1-0.1-1.3-0.3c-0.3-0.2-0.4-0.6-0.5-1.1h0c-0.2,0.5-0.5,0.8-1,1.1
		c-0.4,0.3-1,0.4-1.6,0.4c-0.8,0-1.4-0.2-1.8-0.6c-0.4-0.4-0.7-1-0.7-1.7c0-0.9,0.4-1.6,1.2-2c0.7-0.4,2-0.6,3.8-0.6v-0.3
		c0-0.7-0.1-1.2-0.4-1.5c-0.3-0.3-0.7-0.5-1.3-0.5c-0.5,0-0.9,0.1-1.2,0.4C64.4,15.4,64.3,15.7,64.3,16.1z M65.3,20.8
		c0.6,0,1.1-0.2,1.6-0.6c0.5-0.4,0.7-1.1,0.7-2V18c-1.7,0.1-2.8,0.3-3.2,0.6c-0.3,0.2-0.4,0.5-0.4,1c0,0.4,0.1,0.7,0.4,0.9
		S64.9,20.8,65.3,20.8z"/>
	<path class="st2" d="M76.6,21.8v-4.9c0-0.8-0.1-1.3-0.3-1.6c-0.2-0.3-0.7-0.5-1.2-0.5c-0.7,0-1.2,0.2-1.6,0.6
		c-0.4,0.4-0.5,0.9-0.5,1.6v4.7h-1.3v-7.9h1.3v1.3h0c0.2-0.4,0.5-0.8,1-1.1c0.5-0.3,1-0.4,1.6-0.4c1.7,0,2.5,0.9,2.5,2.6v5.5H76.6z"
		/>
	<path class="st2" d="M86.7,16.3h-1.3c-0.1-0.4-0.2-0.8-0.5-1.1s-0.7-0.4-1.3-0.4c-0.7,0-1.2,0.3-1.6,0.8c-0.4,0.6-0.6,1.3-0.6,2.2
		c0,2.1,0.7,3.1,2.1,3.1c0.7,0,1.1-0.2,1.4-0.5c0.3-0.4,0.5-0.8,0.5-1.2h1.3c-0.1,0.9-0.4,1.6-1,2c-0.6,0.5-1.3,0.7-2.2,0.7
		c-1.1,0-2-0.4-2.6-1.1c-0.6-0.7-0.9-1.7-0.9-3c0-1.2,0.3-2.2,1-3c0.6-0.8,1.5-1.2,2.6-1.2c0.9,0,1.6,0.2,2.2,0.6
		S86.6,15.4,86.7,16.3z"/>
	<path class="st2" d="M94.8,19.7c-0.1,0.7-0.5,1.2-1,1.7S92.5,22,91.7,22c-1.2,0-2-0.4-2.7-1.1c-0.6-0.8-0.9-1.7-0.9-3
		c0-1.2,0.3-2.2,0.9-3s1.5-1.2,2.6-1.2c1.1,0,1.9,0.4,2.5,1.1c0.5,0.7,0.8,1.6,0.8,2.7v0.7h-5.4c0.1,1.8,0.8,2.7,2.2,2.7
		c1,0,1.6-0.4,1.8-1.2H94.8z M93.5,17.1L93.5,17.1c0-1.6-0.7-2.4-1.9-2.4c-0.6,0-1.1,0.2-1.4,0.7c-0.4,0.4-0.6,1-0.7,1.8H93.5z"/>
	<path class="st2" d="M101.1,12.1v-1.5h1.4v1.5H101.1z M101.1,21.8v-7.9h1.4v7.9H101.1z"/>
	<path class="st2" d="M110.3,21.8v-4.9c0-0.8-0.1-1.3-0.3-1.6c-0.2-0.3-0.7-0.5-1.2-0.5c-0.7,0-1.2,0.2-1.6,0.6
		c-0.4,0.4-0.5,0.9-0.5,1.6v4.7h-1.3v-7.9h1.3v1.3h0c0.2-0.4,0.5-0.8,1-1.1c0.5-0.3,1-0.4,1.6-0.4c1.7,0,2.5,0.9,2.5,2.6v5.5H110.3z
		"/>
	<path class="st2" d="M120.4,16.3h-1.3c-0.1-0.4-0.2-0.8-0.5-1.1s-0.7-0.4-1.3-0.4c-0.7,0-1.2,0.3-1.6,0.8c-0.4,0.6-0.6,1.3-0.6,2.2
		c0,2.1,0.7,3.1,2.1,3.1c0.7,0,1.1-0.2,1.4-0.5c0.3-0.4,0.5-0.8,0.5-1.2h1.3c-0.1,0.9-0.4,1.6-1,2c-0.6,0.5-1.3,0.7-2.2,0.7
		c-1.1,0-2-0.4-2.6-1.1c-0.6-0.7-0.9-1.7-0.9-3c0-1.2,0.3-2.2,1-3c0.6-0.8,1.5-1.2,2.6-1.2c0.9,0,1.6,0.2,2.2,0.6
		S120.3,15.4,120.4,16.3z"/>
	<path class="st2" d="M122.5,21.8v-7.9h1.3v1.5h0c0.2-0.4,0.5-0.8,1-1.1c0.5-0.3,1-0.5,1.5-0.5h0.1v1.4h-0.3c-0.7,0-1.3,0.2-1.7,0.6
		c-0.4,0.4-0.6,1-0.6,1.7v4.3H122.5z"/>
	<path class="st2" d="M134.2,19.7c-0.1,0.7-0.5,1.2-1,1.7s-1.3,0.6-2.1,0.6c-1.2,0-2-0.4-2.7-1.1c-0.6-0.8-0.9-1.7-0.9-3
		c0-1.2,0.3-2.2,0.9-3s1.5-1.2,2.6-1.2c1.1,0,1.9,0.4,2.5,1.1c0.5,0.7,0.8,1.6,0.8,2.7v0.7h-5.4c0.1,1.8,0.8,2.7,2.2,2.7
		c1,0,1.6-0.4,1.8-1.2H134.2z M132.9,17.1L132.9,17.1c0-1.6-0.7-2.4-1.9-2.4c-0.6,0-1.1,0.2-1.4,0.7c-0.4,0.4-0.6,1-0.7,1.8H132.9z"
		/>
	<path class="st2" d="M137.4,16.1h-1.3c0-0.7,0.3-1.3,0.8-1.7s1.2-0.6,2.2-0.6c1,0,1.7,0.2,2.2,0.7c0.5,0.5,0.7,1.2,0.7,2.2v3.2
		c0,0.3,0,0.6,0.1,0.7s0.3,0.2,0.6,0.2v1.1h-0.2c-0.6,0-1-0.1-1.3-0.3c-0.3-0.2-0.4-0.6-0.5-1.1h0c-0.2,0.5-0.5,0.8-1,1.1
		c-0.4,0.3-1,0.4-1.6,0.4c-0.8,0-1.4-0.2-1.8-0.6c-0.4-0.4-0.7-1-0.7-1.7c0-0.9,0.4-1.6,1.2-2c0.7-0.4,2-0.6,3.8-0.6v-0.3
		c0-0.7-0.1-1.2-0.4-1.5c-0.3-0.3-0.7-0.5-1.3-0.5c-0.5,0-0.9,0.1-1.2,0.4C137.6,15.4,137.5,15.7,137.4,16.1z M138.5,20.8
		c0.6,0,1.1-0.2,1.6-0.6c0.5-0.4,0.7-1.1,0.7-2V18c-1.7,0.1-2.8,0.3-3.2,0.6c-0.3,0.2-0.4,0.5-0.4,1c0,0.4,0.1,0.7,0.4,0.9
		S138.1,20.8,138.5,20.8z"/>
	<path class="st2" d="M150,15.9h-1.3c0-0.4-0.2-0.6-0.5-0.8s-0.6-0.3-1.1-0.3s-0.8,0.1-1.1,0.4c-0.3,0.2-0.4,0.5-0.4,0.9
		c0,0.3,0.1,0.6,0.3,0.7s0.5,0.3,0.9,0.4l1.2,0.2c0.8,0.1,1.4,0.4,1.7,0.7c0.3,0.4,0.5,0.9,0.5,1.6c0,0.8-0.3,1.4-0.8,1.8
		c-0.6,0.4-1.3,0.6-2.2,0.6c-0.9,0-1.6-0.2-2.2-0.6c-0.6-0.4-0.9-1-0.9-1.8h1.3c0.1,0.9,0.7,1.4,1.8,1.4c0.5,0,1-0.1,1.3-0.4
		s0.5-0.6,0.5-1c0-0.3-0.1-0.6-0.2-0.8s-0.5-0.3-1-0.4l-1.2-0.2c-0.7-0.1-1.3-0.3-1.6-0.7s-0.5-0.8-0.5-1.5c0-0.7,0.3-1.3,0.8-1.7
		c0.5-0.4,1.2-0.7,2.1-0.7c0.9,0,1.5,0.2,2,0.6S149.9,15.2,150,15.9z"/>
	<path class="st2" d="M158.4,19.7c-0.1,0.7-0.5,1.2-1,1.7s-1.3,0.6-2.1,0.6c-1.2,0-2-0.4-2.7-1.1c-0.6-0.8-0.9-1.7-0.9-3
		c0-1.2,0.3-2.2,0.9-3s1.5-1.2,2.6-1.2c1.1,0,1.9,0.4,2.5,1.1c0.5,0.7,0.8,1.6,0.8,2.7v0.7h-5.4c0.1,1.8,0.8,2.7,2.2,2.7
		c1,0,1.6-0.4,1.8-1.2H158.4z M157.2,17.1L157.2,17.1c0-1.6-0.7-2.4-1.9-2.4c-0.6,0-1.1,0.2-1.4,0.7c-0.4,0.4-0.6,1-0.7,1.8H157.2z"
		/>
	<path class="st2" d="M165.9,15.9h-1.3c0-0.4-0.2-0.6-0.5-0.8s-0.6-0.3-1.1-0.3s-0.8,0.1-1.1,0.4c-0.3,0.2-0.4,0.5-0.4,0.9
		c0,0.3,0.1,0.6,0.3,0.7s0.5,0.3,0.9,0.4l1.2,0.2c0.8,0.1,1.4,0.4,1.7,0.7c0.3,0.4,0.5,0.9,0.5,1.6c0,0.8-0.3,1.4-0.8,1.8
		c-0.6,0.4-1.3,0.6-2.2,0.6c-0.9,0-1.6-0.2-2.2-0.6c-0.6-0.4-0.9-1-0.9-1.8h1.3c0.1,0.9,0.7,1.4,1.8,1.4c0.5,0,1-0.1,1.3-0.4
		s0.5-0.6,0.5-1c0-0.3-0.1-0.6-0.2-0.8s-0.5-0.3-1-0.4l-1.2-0.2c-0.7-0.1-1.3-0.3-1.6-0.7s-0.5-0.8-0.5-1.5c0-0.7,0.3-1.3,0.8-1.7
		c0.5-0.4,1.2-0.7,2.1-0.7c0.9,0,1.5,0.2,2,0.6S165.8,15.2,165.9,15.9z"/>
</g>
<g class="st0">
	<path class="st2" d="M245.4,11.3c-1.2,0-2.1,0.4-2.7,1.3c-0.6,0.9-1,2-1,3.5c0,1.5,0.3,2.7,1,3.5c0.6,0.9,1.5,1.3,2.7,1.3
		c0.9,0,1.7-0.3,2.1-0.8c0.5-0.5,0.8-1.1,0.9-1.9h1.4c-0.1,1.1-0.5,2-1.3,2.7c-0.8,0.7-1.8,1.1-3.1,1.1c-1.6,0-2.8-0.5-3.7-1.5
		c-0.9-1-1.4-2.5-1.4-4.4c0-1.8,0.5-3.3,1.4-4.3c1-1.1,2.2-1.6,3.7-1.6c0.7,0,1.3,0.1,2,0.4c0.6,0.2,1.2,0.6,1.6,1.2
		c0.5,0.6,0.7,1.2,0.8,2.1h-1.5c-0.1-0.7-0.4-1.2-0.9-1.7C247,11.5,246.3,11.3,245.4,11.3z"/>
	<path class="st2" d="M255.1,22c-1.1,0-2-0.4-2.6-1.1s-0.9-1.8-0.9-3c0-1.2,0.3-2.2,1-3c0.6-0.8,1.5-1.1,2.6-1.1
		c1.1,0,2,0.4,2.6,1.1c0.6,0.8,0.9,1.8,0.9,3c0,1.2-0.3,2.3-1,3C257,21.6,256.2,22,255.1,22z M255.1,14.7c-0.7,0-1.2,0.3-1.6,0.8
		c-0.4,0.5-0.5,1.3-0.5,2.3c0,2.1,0.7,3.1,2.2,3.1c1.4,0,2.1-1,2.1-3.1S256.5,14.7,255.1,14.7z"/>
	<path class="st2" d="M265.8,21.8v-4.9c0-0.8-0.1-1.3-0.3-1.6c-0.2-0.3-0.7-0.5-1.2-0.5c-0.7,0-1.2,0.2-1.6,0.6
		c-0.4,0.4-0.5,0.9-0.5,1.6v4.7h-1.3v-7.9h1.3v1.3h0c0.2-0.4,0.5-0.8,1-1.1c0.5-0.3,1-0.4,1.6-0.4c1.7,0,2.5,0.9,2.5,2.6v5.5H265.8z
		"/>
	<path class="st2" d="M272.6,24.8c-0.5,0-1-0.1-1.5-0.2s-0.8-0.4-1.2-0.7c-0.3-0.3-0.5-0.8-0.6-1.3h1.3c0.2,0.7,0.8,1.1,1.9,1.1
		c0.8,0,1.4-0.2,1.7-0.5c0.4-0.3,0.5-0.9,0.5-1.8v-1.2h0c-0.2,0.4-0.6,0.8-1,1c-0.4,0.3-1,0.4-1.5,0.4c-0.9,0-1.7-0.3-2.3-1
		c-0.6-0.6-0.9-1.6-0.9-3c0-1.3,0.3-2.3,0.9-3c0.6-0.7,1.4-1.1,2.4-1.1c0.6,0,1.1,0.1,1.5,0.4c0.4,0.3,0.7,0.6,0.9,1h0v-1.2h1.3v7.7
		c0,1.1-0.3,1.9-1,2.4C274.6,24.5,273.7,24.8,272.6,24.8z M274.9,18.2v-0.8c0-0.8-0.2-1.4-0.6-1.9s-1-0.7-1.6-0.7
		c-0.7,0-1.2,0.3-1.6,0.8c-0.4,0.5-0.5,1.3-0.5,2.2c0,0.9,0.2,1.7,0.5,2.2c0.3,0.5,0.9,0.8,1.7,0.8c0.6,0,1.2-0.2,1.6-0.7
		C274.7,19.5,274.9,18.9,274.9,18.2z"/>
	<path class="st2" d="M285,19.7c-0.1,0.7-0.5,1.2-1,1.7s-1.3,0.6-2.1,0.6c-1.2,0-2-0.4-2.7-1.1c-0.6-0.8-0.9-1.7-0.9-3
		c0-1.2,0.3-2.2,0.9-3s1.5-1.2,2.6-1.2c1.1,0,1.9,0.4,2.5,1.1c0.5,0.7,0.8,1.6,0.8,2.7v0.7h-5.4c0.1,1.8,0.8,2.7,2.2,2.7
		c1,0,1.6-0.4,1.8-1.2H285z M283.7,17.1L283.7,17.1c0-1.6-0.7-2.4-1.9-2.4c-0.6,0-1.1,0.2-1.4,0.7c-0.4,0.4-0.6,1-0.7,1.8H283.7z"/>
	<path class="st2" d="M292.4,15.9h-1.3c0-0.4-0.2-0.6-0.5-0.8s-0.6-0.3-1.1-0.3s-0.8,0.1-1.1,0.4c-0.3,0.2-0.4,0.5-0.4,0.9
		c0,0.3,0.1,0.6,0.3,0.7s0.5,0.3,0.9,0.4l1.2,0.2c0.8,0.1,1.4,0.4,1.7,0.7c0.3,0.4,0.5,0.9,0.5,1.6c0,0.8-0.3,1.4-0.8,1.8
		c-0.6,0.4-1.3,0.6-2.2,0.6c-0.9,0-1.6-0.2-2.2-0.6c-0.6-0.4-0.9-1-0.9-1.8h1.3c0.1,0.9,0.7,1.4,1.8,1.4c0.5,0,1-0.1,1.3-0.4
		s0.5-0.6,0.5-1c0-0.3-0.1-0.6-0.2-0.8s-0.5-0.3-1-0.4l-1.2-0.2c-0.7-0.1-1.3-0.3-1.6-0.7s-0.5-0.8-0.5-1.5c0-0.7,0.3-1.3,0.8-1.7
		c0.5-0.4,1.2-0.7,2.1-0.7c0.9,0,1.5,0.2,2,0.6S292.4,15.2,292.4,15.9z"/>
	<path class="st2" d="M295.2,11.6h1.2v2.3h1.9v1h-1.9v4.7c0,0.4,0.1,0.7,0.3,0.9c0.2,0.2,0.5,0.3,0.9,0.3l0.9-0.1v1.1
		c-0.4,0.1-0.8,0.1-1.2,0.1c-0.8,0-1.3-0.2-1.6-0.5c-0.3-0.4-0.5-0.9-0.5-1.6v-4.9h-1.4v-1h0.2c0.5,0,0.9-0.1,1.1-0.3
		s0.2-0.7,0.2-1.4V11.6z"/>
	<path class="st2" d="M300.4,12.1v-1.5h1.4v1.5H300.4z M300.4,21.8v-7.9h1.4v7.9H300.4z"/>
	<path class="st2" d="M307.4,22c-1.1,0-2-0.4-2.6-1.1c-0.6-0.8-0.9-1.8-0.9-3c0-1.2,0.3-2.2,1-3c0.6-0.8,1.5-1.1,2.6-1.1
		c1.1,0,2,0.4,2.6,1.1s0.9,1.8,0.9,3c0,1.2-0.3,2.3-1,3C309.4,21.6,308.5,22,307.4,22z M307.4,14.7c-0.7,0-1.2,0.3-1.6,0.8
		s-0.5,1.3-0.5,2.3c0,2.1,0.7,3.1,2.2,3.1c1.4,0,2.1-1,2.1-3.1S308.8,14.7,307.4,14.7z"/>
	<path class="st2" d="M318.1,21.8v-4.9c0-0.8-0.1-1.3-0.3-1.6c-0.2-0.3-0.7-0.5-1.2-0.5c-0.7,0-1.2,0.2-1.6,0.6
		c-0.4,0.4-0.5,0.9-0.5,1.6v4.7h-1.3v-7.9h1.3v1.3h0c0.2-0.4,0.5-0.8,1-1.1c0.5-0.3,1-0.4,1.6-0.4c1.7,0,2.5,0.9,2.5,2.6v5.5H318.1z
		"/>
	<path class="st2" d="M326.3,12.1v-1.5h1.4v1.5H326.3z M326.3,21.8v-7.9h1.4v7.9H326.3z"/>
	<path class="st2" d="M335.5,21.8v-4.9c0-0.8-0.1-1.3-0.3-1.6c-0.2-0.3-0.7-0.5-1.2-0.5c-0.7,0-1.2,0.2-1.6,0.6
		c-0.4,0.4-0.5,0.9-0.5,1.6v4.7h-1.3v-7.9h1.3v1.3h0c0.2-0.4,0.5-0.8,1-1.1c0.5-0.3,1-0.4,1.6-0.4c1.7,0,2.5,0.9,2.5,2.6v5.5H335.5z
		"/>
	<path class="st2" d="M345.6,16.3h-1.3c-0.1-0.4-0.2-0.8-0.5-1.1c-0.3-0.3-0.7-0.4-1.3-0.4c-0.7,0-1.2,0.3-1.6,0.8
		c-0.4,0.6-0.6,1.3-0.6,2.2c0,2.1,0.7,3.1,2.1,3.1c0.7,0,1.1-0.2,1.4-0.5c0.3-0.4,0.5-0.8,0.5-1.2h1.3c-0.1,0.9-0.4,1.6-1,2
		c-0.6,0.5-1.3,0.7-2.2,0.7c-1.1,0-2-0.4-2.6-1.1c-0.6-0.7-0.9-1.7-0.9-3c0-1.2,0.3-2.2,1-3c0.6-0.8,1.5-1.2,2.6-1.2
		c0.9,0,1.6,0.2,2.2,0.6S345.5,15.4,345.6,16.3z"/>
	<path class="st2" d="M347.6,21.8v-7.9h1.3v1.5h0c0.2-0.4,0.5-0.8,1-1.1c0.5-0.3,1-0.5,1.5-0.5h0.1v1.4h-0.3c-0.7,0-1.3,0.2-1.7,0.6
		c-0.4,0.4-0.6,1-0.6,1.7v4.3H347.6z"/>
	<path class="st2" d="M359.4,19.7c-0.1,0.7-0.5,1.2-1,1.7c-0.6,0.4-1.3,0.6-2.1,0.6c-1.2,0-2-0.4-2.7-1.1s-0.9-1.7-0.9-3
		c0-1.2,0.3-2.2,0.9-3s1.5-1.2,2.6-1.2c1.1,0,1.9,0.4,2.5,1.1c0.5,0.7,0.8,1.6,0.8,2.7v0.7H354c0.1,1.8,0.8,2.7,2.2,2.7
		c1,0,1.6-0.4,1.8-1.2H359.4z M358.1,17.1L358.1,17.1c0-1.6-0.7-2.4-1.9-2.4c-0.6,0-1.1,0.2-1.4,0.7c-0.4,0.4-0.6,1-0.7,1.8H358.1z"
		/>
	<path class="st2" d="M362.6,16.1h-1.3c0-0.7,0.3-1.3,0.8-1.7c0.5-0.4,1.2-0.6,2.2-0.6c1,0,1.7,0.2,2.2,0.7s0.7,1.2,0.7,2.2v3.2
		c0,0.3,0,0.6,0.1,0.7c0.1,0.1,0.3,0.2,0.6,0.2v1.1h-0.2c-0.6,0-1-0.1-1.3-0.3c-0.3-0.2-0.4-0.6-0.5-1.1h0c-0.2,0.5-0.5,0.8-1,1.1
		c-0.4,0.3-1,0.4-1.6,0.4c-0.8,0-1.4-0.2-1.8-0.6c-0.4-0.4-0.7-1-0.7-1.7c0-0.9,0.4-1.6,1.2-2c0.7-0.4,2-0.6,3.8-0.6v-0.3
		c0-0.7-0.1-1.2-0.4-1.5s-0.7-0.5-1.3-0.5c-0.5,0-0.9,0.1-1.2,0.4S362.6,15.7,362.6,16.1z M363.6,20.8c0.6,0,1.1-0.2,1.6-0.6
		c0.5-0.4,0.7-1.1,0.7-2V18c-1.7,0.1-2.8,0.3-3.2,0.6c-0.3,0.2-0.4,0.5-0.4,1c0,0.4,0.1,0.7,0.4,0.9S363.2,20.8,363.6,20.8z"/>
	<path class="st2" d="M375.2,15.9h-1.3c0-0.4-0.2-0.6-0.5-0.8c-0.3-0.2-0.6-0.3-1.1-0.3s-0.8,0.1-1.1,0.4c-0.3,0.2-0.4,0.5-0.4,0.9
		c0,0.3,0.1,0.6,0.3,0.7c0.2,0.2,0.5,0.3,0.9,0.4l1.2,0.2c0.8,0.1,1.4,0.4,1.7,0.7c0.3,0.4,0.5,0.9,0.5,1.6c0,0.8-0.3,1.4-0.8,1.8
		c-0.6,0.4-1.3,0.6-2.2,0.6c-0.9,0-1.6-0.2-2.2-0.6c-0.6-0.4-0.9-1-0.9-1.8h1.3c0.1,0.9,0.7,1.4,1.8,1.4c0.5,0,1-0.1,1.3-0.4
		c0.3-0.2,0.5-0.6,0.5-1c0-0.3-0.1-0.6-0.2-0.8s-0.5-0.3-1-0.4l-1.2-0.2c-0.7-0.1-1.3-0.3-1.6-0.7c-0.4-0.3-0.5-0.8-0.5-1.5
		c0-0.7,0.3-1.3,0.8-1.7c0.5-0.4,1.2-0.7,2.1-0.7c0.9,0,1.5,0.2,2,0.6C374.8,14.6,375.1,15.2,375.2,15.9z"/>
	<path class="st2" d="M383.6,19.7c-0.1,0.7-0.5,1.2-1,1.7c-0.6,0.4-1.3,0.6-2.1,0.6c-1.2,0-2-0.4-2.7-1.1s-0.9-1.7-0.9-3
		c0-1.2,0.3-2.2,0.9-3s1.5-1.2,2.6-1.2c1.1,0,1.9,0.4,2.5,1.1c0.5,0.7,0.8,1.6,0.8,2.7v0.7h-5.4c0.1,1.8,0.8,2.7,2.2,2.7
		c1,0,1.6-0.4,1.8-1.2H383.6z M382.3,17.1L382.3,17.1c0-1.6-0.7-2.4-1.9-2.4c-0.6,0-1.1,0.2-1.4,0.7c-0.4,0.4-0.6,1-0.7,1.8H382.3z"
		/>
	<path class="st2" d="M391,15.9h-1.3c0-0.4-0.2-0.6-0.5-0.8c-0.3-0.2-0.6-0.3-1.1-0.3s-0.8,0.1-1.1,0.4c-0.3,0.2-0.4,0.5-0.4,0.9
		c0,0.3,0.1,0.6,0.3,0.7c0.2,0.2,0.5,0.3,0.9,0.4l1.2,0.2c0.8,0.1,1.4,0.4,1.7,0.7s0.5,0.9,0.5,1.6c0,0.8-0.3,1.4-0.8,1.8
		c-0.6,0.4-1.3,0.6-2.2,0.6c-0.9,0-1.6-0.2-2.2-0.6c-0.6-0.4-0.9-1-0.9-1.8h1.3c0.1,0.9,0.7,1.4,1.8,1.4c0.5,0,1-0.1,1.3-0.4
		c0.3-0.2,0.5-0.6,0.5-1c0-0.3-0.1-0.6-0.2-0.8s-0.5-0.3-1-0.4l-1.2-0.2c-0.7-0.1-1.3-0.3-1.6-0.7c-0.4-0.3-0.5-0.8-0.5-1.5
		c0-0.7,0.3-1.3,0.8-1.7c0.5-0.4,1.2-0.7,2.1-0.7c0.8,0,1.5,0.2,2,0.6C390.7,14.6,391,15.2,391,15.9z"/>
</g>
<g class="st0">
	<path class="st2" d="M472,13.2h-4.2V1.8h4.5c1,0,1.9,0.2,2.5,0.7c0.7,0.5,1,1.2,1,2.1c0,0.7-0.2,1.3-0.5,1.7
		c-0.4,0.4-0.9,0.7-1.6,0.9v0c0.7,0.1,1.3,0.4,1.8,1c0.5,0.5,0.7,1.1,0.7,1.8C476.2,12.1,474.8,13.2,472,13.2z M469.2,6.6h2.9
		c0.7,0,1.3-0.1,1.7-0.4c0.4-0.3,0.7-0.8,0.7-1.5c0-0.6-0.2-1-0.6-1.4c-0.4-0.3-0.9-0.4-1.6-0.4h-3V6.6z M469.2,12.1h2.8
		c0.9,0,1.6-0.2,2.1-0.5c0.5-0.4,0.7-0.9,0.7-1.8c0-0.7-0.2-1.3-0.7-1.6c-0.5-0.3-1.2-0.5-2.2-0.5h-2.7V12.1z"/>
	<path class="st2" d="M481.3,13.4c-1.1,0-2-0.4-2.6-1.1c-0.6-0.8-0.9-1.8-0.9-3c0-1.2,0.3-2.2,1-3c0.6-0.8,1.5-1.1,2.6-1.1
		c1.1,0,2,0.4,2.6,1.1s0.9,1.8,0.9,3c0,1.2-0.3,2.3-1,3C483.3,13.1,482.4,13.4,481.3,13.4z M481.3,6.2c-0.7,0-1.2,0.3-1.6,0.8
		s-0.5,1.3-0.5,2.3c0,2.1,0.7,3.1,2.2,3.1c1.4,0,2.1-1,2.1-3.1S482.8,6.2,481.3,6.2z"/>
	<path class="st2" d="M487.5,3h1.2v2.3h1.9v1h-1.9V11c0,0.4,0.1,0.7,0.3,0.9c0.2,0.2,0.5,0.3,0.9,0.3l0.9-0.1v1.1
		c-0.4,0.1-0.8,0.1-1.2,0.1c-0.8,0-1.3-0.2-1.6-0.5c-0.3-0.4-0.5-0.9-0.5-1.6V6.4h-1.4v-1h0.2c0.5,0,0.9-0.1,1.1-0.3
		c0.2-0.2,0.2-0.7,0.2-1.4V3z"/>
	<path class="st2" d="M497.5,13.2V8.3c0-0.8-0.1-1.3-0.3-1.6c-0.2-0.3-0.7-0.5-1.2-0.5c-0.7,0-1.2,0.2-1.6,0.6
		c-0.4,0.4-0.5,0.9-0.5,1.6v4.7h-1.3V1.4h1.3v5.2h0c0.2-0.4,0.5-0.8,0.9-1.1c0.4-0.3,0.9-0.4,1.5-0.4c1.7,0,2.5,0.9,2.5,2.6v5.5
		H497.5z"/>
	<path class="st2" d="M505.7,13.2V5.3h1.3v1.3h0c0.2-0.4,0.5-0.8,1-1.1c0.4-0.3,1-0.4,1.6-0.4c0.6,0,1.1,0.1,1.5,0.4
		s0.7,0.7,0.8,1.2h0c0.2-0.4,0.5-0.8,0.9-1.1s1-0.5,1.6-0.5c1.7,0,2.5,0.9,2.5,2.6v5.5h-1.3V8.3c0-0.8-0.1-1.3-0.3-1.6
		c-0.2-0.3-0.7-0.5-1.2-0.5c-0.7,0-1.2,0.2-1.6,0.6c-0.4,0.4-0.5,0.9-0.5,1.6v4.7h-1.4V8.3c0-0.8-0.1-1.3-0.3-1.6
		c-0.2-0.3-0.7-0.5-1.2-0.5c-0.7,0-1.2,0.2-1.6,0.6c-0.4,0.4-0.5,0.9-0.5,1.6v4.8H505.7z"/>
	<path class="st2" d="M525.8,11.2c-0.1,0.7-0.5,1.2-1,1.7c-0.6,0.4-1.3,0.6-2.1,0.6c-1.2,0-2-0.4-2.7-1.1c-0.6-0.8-0.9-1.7-0.9-3
		c0-1.2,0.3-2.2,0.9-3s1.5-1.2,2.6-1.2c1.1,0,1.9,0.4,2.5,1.1c0.5,0.7,0.8,1.6,0.8,2.7v0.7h-5.4c0.1,1.8,0.8,2.7,2.2,2.7
		c1,0,1.6-0.4,1.8-1.2H525.8z M524.5,8.6L524.5,8.6c0-1.6-0.7-2.4-1.9-2.4c-0.6,0-1.1,0.2-1.4,0.7c-0.4,0.4-0.6,1-0.7,1.8H524.5z"/>
	<path class="st2" d="M528.4,3h1.2v2.3h2v1h-2V11c0,0.4,0.1,0.7,0.3,0.9c0.2,0.2,0.5,0.3,0.9,0.3l0.9-0.1v1.1
		c-0.4,0.1-0.8,0.1-1.2,0.1c-0.8,0-1.3-0.2-1.6-0.5c-0.3-0.4-0.5-0.9-0.5-1.6V6.4h-1.4v-1h0.2c0.5,0,0.9-0.1,1.1-0.3
		c0.2-0.2,0.2-0.7,0.2-1.4V3z"/>
	<path class="st2" d="M533.5,13.2V5.3h1.3v1.5h0c0.2-0.4,0.5-0.8,1-1.1s1-0.5,1.5-0.5h0.1v1.4h-0.3c-0.7,0-1.3,0.2-1.7,0.6
		c-0.4,0.4-0.6,1-0.6,1.7v4.3H533.5z"/>
	<path class="st2" d="M539.4,3.5V2.1h1.4v1.5H539.4z M539.4,13.2V5.3h1.4v7.9H539.4z"/>
	<path class="st2" d="M549.5,7.7h-1.3c-0.1-0.4-0.2-0.8-0.5-1.1c-0.3-0.3-0.7-0.4-1.3-0.4c-0.7,0-1.2,0.3-1.6,0.8
		c-0.4,0.6-0.6,1.3-0.6,2.2c0,2.1,0.7,3.1,2.1,3.1c0.7,0,1.1-0.2,1.4-0.5c0.3-0.4,0.5-0.8,0.5-1.2h1.3c-0.1,0.9-0.4,1.6-1,2
		c-0.6,0.5-1.3,0.7-2.2,0.7c-1.1,0-2-0.4-2.6-1.1c-0.6-0.7-0.9-1.7-0.9-3c0-1.2,0.3-2.2,1-3c0.6-0.8,1.5-1.2,2.6-1.2
		c0.9,0,1.6,0.2,2.2,0.6S549.5,6.8,549.5,7.7z"/>
	<path class="st2" d="M556.8,7.3h-1.3c0-0.4-0.2-0.6-0.5-0.8s-0.6-0.3-1.1-0.3s-0.8,0.1-1.1,0.4c-0.3,0.2-0.4,0.5-0.4,0.9
		c0,0.3,0.1,0.6,0.3,0.7s0.5,0.3,0.9,0.4l1.2,0.2c0.8,0.1,1.4,0.4,1.7,0.7c0.3,0.4,0.5,0.9,0.5,1.6c0,0.8-0.3,1.4-0.8,1.8
		c-0.6,0.4-1.3,0.6-2.2,0.6c-0.9,0-1.6-0.2-2.2-0.6c-0.6-0.4-0.9-1-0.9-1.8h1.3c0.1,0.9,0.7,1.4,1.8,1.4c0.5,0,1-0.1,1.3-0.4
		c0.3-0.2,0.5-0.6,0.5-1c0-0.3-0.1-0.6-0.2-0.8s-0.5-0.3-1-0.4l-1.2-0.2c-0.7-0.1-1.3-0.3-1.6-0.7c-0.4-0.3-0.5-0.8-0.5-1.5
		c0-0.7,0.3-1.3,0.8-1.7c0.5-0.4,1.2-0.7,2.1-0.7c0.8,0,1.5,0.2,2,0.6S556.7,6.6,556.8,7.3z"/>
	<path class="st2" d="M483.6,21.5v-1.5h1.4v1.5H483.6z M483.6,31.2v-7.9h1.4v7.9H483.6z"/>
	<path class="st2" d="M492.8,31.2v-4.9c0-0.8-0.1-1.3-0.3-1.6c-0.2-0.3-0.7-0.5-1.2-0.5c-0.7,0-1.2,0.2-1.6,0.6
		c-0.4,0.4-0.5,0.9-0.5,1.6v4.7h-1.3v-7.9h1.3v1.3h0c0.2-0.4,0.5-0.8,1-1.1s1-0.4,1.6-0.4c1.7,0,2.5,0.9,2.5,2.6v5.5H492.8z"/>
	<path class="st2" d="M502.9,25.7h-1.3c0-0.4-0.2-0.8-0.5-1.1s-0.7-0.4-1.3-0.4c-0.7,0-1.2,0.3-1.6,0.8c-0.4,0.6-0.6,1.3-0.6,2.2
		c0,2.1,0.7,3.1,2.1,3.1c0.7,0,1.1-0.2,1.4-0.5c0.3-0.4,0.5-0.8,0.5-1.2h1.3c-0.1,0.9-0.4,1.6-1,2c-0.6,0.5-1.3,0.7-2.2,0.7
		c-1.1,0-2-0.4-2.6-1.1c-0.6-0.7-0.9-1.7-0.9-3c0-1.2,0.3-2.2,1-3c0.6-0.8,1.5-1.2,2.6-1.2c0.9,0,1.6,0.2,2.2,0.6
		C502.5,24.2,502.8,24.8,502.9,25.7z"/>
	<path class="st2" d="M505,31.2v-7.9h1.3v1.5h0c0.2-0.4,0.5-0.8,1-1.1s1-0.5,1.5-0.5h0.1v1.4h-0.3c-0.7,0-1.3,0.2-1.7,0.6
		c-0.4,0.4-0.6,1-0.6,1.7v4.3H505z"/>
	<path class="st2" d="M516.7,29.2c-0.1,0.7-0.5,1.2-1,1.7s-1.3,0.6-2.1,0.6c-1.2,0-2-0.4-2.7-1.1s-0.9-1.7-0.9-3
		c0-1.2,0.3-2.2,0.9-3s1.5-1.2,2.6-1.2c1.1,0,1.9,0.4,2.5,1.1c0.5,0.7,0.8,1.6,0.8,2.7v0.7h-5.4c0.1,1.8,0.8,2.7,2.2,2.7
		c1,0,1.6-0.4,1.8-1.2H516.7z M515.4,26.6L515.4,26.6c0-1.6-0.7-2.4-1.9-2.4c-0.6,0-1.1,0.2-1.4,0.7c-0.4,0.4-0.6,1-0.7,1.8H515.4z"
		/>
	<path class="st2" d="M519.9,25.5h-1.3c0-0.7,0.3-1.3,0.8-1.7s1.2-0.6,2.2-0.6c1,0,1.7,0.2,2.2,0.7c0.5,0.5,0.7,1.2,0.7,2.2v3.2
		c0,0.3,0.1,0.6,0.2,0.7s0.3,0.2,0.6,0.2v1.1h-0.2c-0.6,0-1-0.1-1.3-0.3c-0.3-0.2-0.4-0.6-0.5-1.1h0c-0.2,0.5-0.5,0.8-1,1.1
		c-0.4,0.3-1,0.4-1.6,0.4c-0.8,0-1.4-0.2-1.8-0.6c-0.4-0.4-0.7-1-0.7-1.7c0-0.9,0.4-1.6,1.2-2c0.7-0.4,2-0.6,3.8-0.6v-0.3
		c0-0.7-0.1-1.2-0.4-1.5c-0.3-0.3-0.7-0.5-1.3-0.5c-0.5,0-0.9,0.1-1.2,0.4C520.1,24.8,520,25.1,519.9,25.5z M521,30.3
		c0.6,0,1.1-0.2,1.6-0.6c0.5-0.4,0.7-1.1,0.7-2v-0.2c-1.7,0.1-2.8,0.3-3.2,0.6c-0.3,0.2-0.4,0.5-0.4,1c0,0.4,0.1,0.7,0.4,0.9
		S520.6,30.3,521,30.3z"/>
	<path class="st2" d="M532.5,25.3h-1.3c0-0.4-0.2-0.6-0.5-0.8s-0.6-0.3-1.1-0.3s-0.8,0.1-1.1,0.4c-0.3,0.2-0.4,0.5-0.4,0.9
		c0,0.3,0.1,0.6,0.3,0.7s0.5,0.3,0.9,0.4l1.2,0.2c0.8,0.1,1.4,0.4,1.7,0.7s0.5,0.9,0.5,1.6c0,0.8-0.3,1.4-0.8,1.8
		c-0.6,0.4-1.3,0.6-2.2,0.6c-0.9,0-1.6-0.2-2.2-0.6c-0.6-0.4-0.9-1-0.9-1.8h1.3c0.1,0.9,0.7,1.4,1.8,1.4c0.5,0,1-0.1,1.3-0.4
		c0.3-0.2,0.5-0.6,0.5-1c0-0.3-0.1-0.6-0.2-0.8s-0.5-0.3-1-0.4l-1.2-0.2c-0.7-0.1-1.3-0.3-1.6-0.7c-0.4-0.3-0.5-0.8-0.5-1.5
		c0-0.7,0.3-1.3,0.8-1.7c0.5-0.4,1.2-0.7,2.1-0.7c0.9,0,1.5,0.2,2,0.6S532.4,24.6,532.5,25.3z"/>
	<path class="st2" d="M540.9,29.2c-0.1,0.7-0.5,1.2-1,1.7s-1.3,0.6-2.1,0.6c-1.2,0-2-0.4-2.7-1.1c-0.6-0.8-0.9-1.7-0.9-3
		c0-1.2,0.3-2.2,0.9-3s1.5-1.2,2.6-1.2c1.1,0,1.9,0.4,2.5,1.1c0.5,0.7,0.8,1.6,0.8,2.7v0.7h-5.4c0.1,1.8,0.8,2.7,2.2,2.7
		c1,0,1.6-0.4,1.8-1.2H540.9z M539.7,26.6L539.7,26.6c0-1.6-0.7-2.4-1.9-2.4c-0.6,0-1.1,0.2-1.4,0.7c-0.4,0.4-0.6,1-0.7,1.8H539.7z"
		/>
</g>
</svg>
