<?xml version="1.0" encoding="utf-8"?>
<!-- Generator: Adobe Illustrator 27.2.0, SVG Export Plug-In . SVG Version: 6.00 Build 0)  -->
<svg version="1.1" xmlns="http://www.w3.org/2000/svg" xmlns:xlink="http://www.w3.org/1999/xlink" x="0px" y="0px"
	 viewBox="0 0 750 400" style="enable-background:new 0 0 750 400;" xml:space="preserve">
<style type="text/css">
	.st0{fill:none;}
	.st1{fill:#EBEBEB;}
	.st2{fill:none;stroke:#FFFFFF;stroke-width:0.53;stroke-linejoin:round;stroke-miterlimit:10;}
	.st3{fill:none;stroke:#FFFFFF;stroke-width:1.07;stroke-linejoin:round;stroke-miterlimit:10;}
	.st4{fill:#FFFFFF;}
	.st5{fill:none;stroke:#FF0000;stroke-width:5.33;stroke-linejoin:round;stroke-miterlimit:10;stroke-dasharray:28.45,28.45;}
	.st6{fill:none;stroke:#FF0000;stroke-width:4.27;stroke-linejoin:round;stroke-miterlimit:10;}
	.st7{fill:#FFFFFF;stroke:#FFFFFF;stroke-width:1.07;stroke-linejoin:round;stroke-miterlimit:10;}
	.st8{fill:#4D4D4D;}
	.st9{font-family:'ComicSansMS';}
	.st10{font-size:11.2px;}
	.st11{fill:none;stroke:#333333;stroke-width:1.07;stroke-linejoin:round;stroke-miterlimit:10;}
	.st12{font-size:14px;}
	.st13{font-family:'ComicSansMS-Bold';}
	.st14{font-size:12px;}
</style>
<g id="Layer_1">
	<rect x="-21" y="-81" class="st0" width="750" height="400"/>
	<rect x="155.1" y="0.8" class="st0" width="568.4" height="278.9"/>
	<rect x="155.1" y="0.8" class="st1" width="568.4" height="278.9"/>
	<line class="st2" x1="246.8" y1="279.6" x2="246.8" y2="0.8"/>
	<line class="st2" x1="378.5" y1="279.6" x2="378.5" y2="0.8"/>
	<line class="st2" x1="510.2" y1="279.6" x2="510.2" y2="0.8"/>
	<line class="st2" x1="641.8" y1="279.6" x2="641.8" y2="0.8"/>
	<line class="st3" x1="155.1" y1="263.2" x2="723.5" y2="263.2"/>
	<line class="st3" x1="155.1" y1="235.9" x2="723.5" y2="235.9"/>
	<line class="st3" x1="155.1" y1="208.5" x2="723.5" y2="208.5"/>
	<line class="st3" x1="155.1" y1="181.2" x2="723.5" y2="181.2"/>
	<line class="st3" x1="155.1" y1="153.9" x2="723.5" y2="153.9"/>
	<line class="st3" x1="155.1" y1="126.5" x2="723.5" y2="126.5"/>
	<line class="st3" x1="155.1" y1="99.2" x2="723.5" y2="99.2"/>
	<line class="st3" x1="155.1" y1="71.8" x2="723.5" y2="71.8"/>
	<line class="st3" x1="155.1" y1="44.5" x2="723.5" y2="44.5"/>
	<line class="st3" x1="155.1" y1="17.2" x2="723.5" y2="17.2"/>
	<line class="st3" x1="181" y1="279.6" x2="181" y2="0.8"/>
	<line class="st3" x1="312.6" y1="279.6" x2="312.6" y2="0.8"/>
	<line class="st3" x1="444.3" y1="279.6" x2="444.3" y2="0.8"/>
	<line class="st3" x1="576" y1="279.6" x2="576" y2="0.8"/>
	<line class="st3" x1="707.7" y1="279.6" x2="707.7" y2="0.8"/>
	
		<image style="overflow:visible;enable-background:new    ;" width="750" height="360" xlink:href="BA7A67C042286870.png"  image-rendering="pixelated" transform="matrix(0.7579 0 0 0.7747 155.13 0.76)">
	</image>
	<rect x="181" y="4.9" class="st4" width="516.7" height="24.6"/>
	<rect x="181" y="59.5" class="st4" width="177.5" height="24.6"/>
	<rect x="181" y="250.9" class="st4" width="63.2" height="24.6"/>
	<rect x="181" y="114.2" class="st4" width="123.8" height="24.6"/>
	<rect x="181" y="196.2" class="st4" width="75.6" height="24.6"/>
	<rect x="181" y="141.6" class="st4" width="106.7" height="24.6"/>
	<rect x="181" y="32.2" class="st4" width="358.6" height="24.6"/>
	<rect x="181" y="223.6" class="st4" width="71.1" height="24.6"/>
	<rect x="181" y="86.9" class="st4" width="173.8" height="24.6"/>
	<rect x="181" y="168.9" class="st4" width="78.5" height="24.6"/>
	<line class="st5" x1="265.2" y1="279.6" x2="265.2" y2="0.8"/>
	<polyline class="st6" points="302.7,208.5 303,208.3 304.4,207.1 306.5,205.4 308.4,203.7 309.8,202.2 310.7,201.1 311.5,199.5 
		312.1,198 312.4,196.6 312.6,195.2 312.6,193.6 312.5,192.4 312,190.8 311.3,189.4 310.5,188 309.5,186.7 308.3,185.3 307.2,184.3 
		305.5,183 303.7,181.9 302,181 300.1,180.1 297.9,179.2 296.1,178.6 293.6,177.9 291.1,177.4 288.9,177.1 286.5,176.8 283.9,176.6 
		281.8,176.6 279,176.7 276.1,177.1 272.7,177.6 269.4,178.1 267.5,178.4 267.2,178.4 	"/>
	<polyline class="st6" points="271.3,175.1 267.2,179.2 272.8,180.7 	"/>
	<rect x="-21" y="-81" class="st0" width="750" height="400"/>
	<rect x="155.1" y="0.8" class="st7" width="22.7" height="278.9"/>
	<text transform="matrix(1 0 0 1 54.2805 267.43)" class="st8 st9 st10">Pleasant View Academy</text>
	<text transform="matrix(1 0 0 1 76.8664 240.09)" class="st8 st9 st10">Chemitan Academy</text>
	<text transform="matrix(1 0 0 1 35.1836 212.74)" class="st8 st9 st10">Premese Makueni Academy</text>
	<text transform="matrix(1 0 0 1 106.7258 185.4)" class="st8 st9 st10">Lily Academy</text>
	<text transform="matrix(1 0 0 1 88.2906 158.06)" class="st8 st9 st10">Sally Ann School</text>
	<text transform="matrix(1 0 0 1 72.2836 130.72)" class="st8 st9 st10">Gilgil Hills Academy</text>
	<text transform="matrix(1 0 0 1 123.9523 103.38)" class="st8 st9 st10">High Peak</text>
	<text transform="matrix(1 0 0 1 90.2375 76.04)" class="st8 st9 st10">Fred&apos;s Academy</text>
	<text transform="matrix(1 0 0 1 58.2891 48.69)" class="st8 st9 st10">Acacia Crest Academy</text>
	<text transform="matrix(1 0 0 1 26.625 21.35)" class="st8 st9 st10">Makini Ngong Road Academy</text>
	<line class="st11" x1="181" y1="282.4" x2="181" y2="279.6"/>
	<line class="st11" x1="312.6" y1="282.4" x2="312.6" y2="279.6"/>
	<line class="st11" x1="444.3" y1="282.4" x2="444.3" y2="279.6"/>
	<line class="st11" x1="576" y1="282.4" x2="576" y2="279.6"/>
	<line class="st11" x1="707.7" y1="282.4" x2="707.7" y2="279.6"/>
	<text transform="matrix(1 0 0 1 177.552 292.95)" class="st8 st9 st10">0</text>
	<text transform="matrix(1 0 0 1 295.5602 292.95)" class="st8 st9 st10">50000</text>
	<text transform="matrix(1 0 0 1 424.7191 292.95)" class="st8 st9 st10">100000</text>
	<text transform="matrix(1 0 0 1 556.399 292.95)" class="st8 st9 st10">150000</text>
	<text transform="matrix(1 0 0 1 687.1822 292.95)" class="st8 st9 st10">200000</text>
	<text transform="matrix(1 0 0 1 379.1122 309.44)" class="st9 st12">Tuition in Shillings</text>
	<text transform="matrix(1 0 0 1 275.5133 225.9196)"><tspan x="0" y="0" class="st4 st13 st14">best-ranked university in Kenya costs 32000 shillings a year</tspan><tspan x="-2.6" y="14.4" class="st4 st13 st14">which is lower than best-ranked kindergartens in the country</tspan></text>
</g>
<g id="ai2html-settings">
	<rect x="-450" class="st0" width="400" height="418"/>
	<text id="ai2html-settings_00000157280987671635626400000001486360224376183955_" transform="matrix(1 0 0 1 -450 10.6499)"><tspan x="0" y="0" style="font-family:'MyriadPro-Regular'; font-size:15px;">ai2html-settings</tspan><tspan x="0" y="19" style="font-family:'MyriadPro-Regular'; font-size:15px;">settings_version: 0.115.5</tspan><tspan x="0" y="38" style="font-family:'MyriadPro-Regular'; font-size:15px;">image_format: auto</tspan><tspan x="0" y="57" style="font-family:'MyriadPro-Regular'; font-size:15px;">responsiveness: fixed</tspan><tspan x="0" y="76" style="font-family:'MyriadPro-Regular'; font-size:15px;">output: one-file</tspan><tspan x="0" y="95" style="font-family:'MyriadPro-Regular'; font-size:15px;">html_output_path: /ai2html-output/</tspan><tspan x="0" y="114" style="font-family:'MyriadPro-Regular'; font-size:15px;">html_output_extension: .html</tspan><tspan x="0" y="133" style="font-family:'MyriadPro-Regular'; font-size:15px;">image_output_path: </tspan><tspan x="0" y="152" style="font-family:'MyriadPro-Regular'; font-size:15px;">local_preview_template: </tspan><tspan x="0" y="171" style="font-family:'MyriadPro-Regular'; font-size:15px;">png_number_of_colors: 128</tspan><tspan x="0" y="190" style="font-family:'MyriadPro-Regular'; font-size:15px;">jpg_quality: 60</tspan><tspan x="0" y="209" style="font-family:'MyriadPro-Regular'; font-size:15px;">headline: </tspan><tspan x="0" y="228" style="font-family:'MyriadPro-Regular'; font-size:15px;">leadin: </tspan><tspan x="0" y="247" style="font-family:'MyriadPro-Regular'; font-size:15px;">notes: </tspan><tspan x="0" y="266" style="font-family:'MyriadPro-Regular'; font-size:15px;">sources: </tspan><tspan x="0" y="285" style="font-family:'MyriadPro-Regular'; font-size:15px;">credit: </tspan></text>
</g>
</svg>
